<?xml version="1.0" encoding="UTF-8"?>
<svg xmlns="http://www.w3.org/2000/svg" width="1200" height="420" viewBox="0 0 1200 420">
  <rect width="100%" height="100%" fill="#ffffff" />
  <text x="70" y="22" font-size="20" font-weight="700" fill="#0f172a">Onion Prediction Model Performance on the Holdout Test Period</text>
  <rect x="70" y="8" width="14" height="14" fill="#0f766e" /><text x="90" y="20" font-size="12" fill="#0f172a">Actual</text>
<rect x="250" y="8" width="14" height="14" fill="#dc2626" /><text x="270" y="20" font-size="12" fill="#0f172a">Predicted</text>
<rect x="430" y="8" width="14" height="14" fill="#2563eb" /><text x="450" y="20" font-size="12" fill="#0f172a">Lag-1 Baseline</text>
  <line x1="70" y1="365" x2="1170" y2="365" stroke="#e5e7eb" stroke-width="1" />
      <text x="60" y="369" font-size="12" text-anchor="end" fill="#475569">975</text>
<line x1="70" y1="298" x2="1170" y2="298" stroke="#e5e7eb" stroke-width="1" />
      <text x="60" y="302" font-size="12" text-anchor="end" fill="#475569">1154.29</text>
<line x1="70" y1="230.99999999999997" x2="1170" y2="230.99999999999997" stroke="#e5e7eb" stroke-width="1" />
      <text x="60" y="234.99999999999997" font-size="12" text-anchor="end" fill="#475569">1333.57</text>
<line x1="70" y1="164.00000000000006" x2="1170" y2="164.00000000000006" stroke="#e5e7eb" stroke-width="1" />
      <text x="60" y="168.00000000000006" font-size="12" text-anchor="end" fill="#475569">1512.86</text>
<line x1="70" y1="97" x2="1170" y2="97" stroke="#e5e7eb" stroke-width="1" />
      <text x="60" y="101" font-size="12" text-anchor="end" fill="#475569">1692.14</text>
<line x1="70" y1="30" x2="1170" y2="30" stroke="#e5e7eb" stroke-width="1" />
      <text x="60" y="34" font-size="12" text-anchor="end" fill="#475569">1871.43</text>
  <line x1="70" y1="365" x2="1170" y2="365" stroke="#475569" stroke-width="1.5" />
  <line x1="70" y1="30" x2="70" y2="365" stroke="#475569" stroke-width="1.5" />
  <path d="M 70 98.21603471548252 L 79.24369747899159 143.11290340573163 L 88.48739495798318 100.29383220106428 L 97.73109243697479 103.17135749584463 L 106.97478991596638 118.97906138795003 L 116.21848739495798 108.07809868032086 L 125.46218487394958 128.7663844360407 L 134.70588235294116 144.51429559474806 L 143.94957983193277 131.43463516392802 L 153.19327731092437 135.1716810013052 L 162.43697478991595 166.00230915966668 L 171.68067226890756 156.34951976172152 L 180.92436974789916 142.87746951797683 L 190.16806722689074 118.97906138795003 L 199.41176470588235 175.5766205950269 L 208.65546218487393 184.37736354205015 L 217.89915966386553 187.4903227245853 L 227.14285714285714 220.70892317303083 L 236.38655462184872 231.09043650926455 L 245.63025210084032 221.12373526097966 L 254.8739495798319 238.20577178363064 L 264.11764705882354 256.3603404616088 L 273.3613445378151 299.6016978458998 L 282.6050420168067 304.9419363475118 L 291.8487394957983 339.049953705253 L 301.0924369747899 290.259083252457 L 310.3361344537815 255.5568756065728 L 319.5798319327731 272.90797942951485 L 328.8235294117647 301.2833684727196 L 338.0672268907563 286.25670716062604 L 347.31092436974785 280.9164686590141 L 356.5546218487395 297.7331749272113 L 365.79831932773106 327.6295416262285 L 375.04201680672264 278.24821793112676 L 384.2857142857143 280.9164686590141 L 393.52941176470586 289.2201845096661 L 402.77310924369743 283.5847193869014 L 412.01680672268907 331.6319177180594 L 421.26050420168065 262.2312394721283 L 430.5042016806722 330.7425008087636 L 439.7478991596638 283.2521223073748 L 448.99159663865544 321.39988621532075 L 458.235294117647 316.20912954720393 L 467.4789915966386 304.9419363475118 L 476.7226890756302 311.61256316723006 L 485.9663865546218 247.04762223486495 L 495.2100840336134 265.9682853095055 L 504.453781512605 137.35037872449604 L 513.6974789915967 146.38281851343666 L 522.9411764705882 170.88289102328122 L 532.1848739495798 207.5096772754147 L 541.4285714285713 181.2606673136776 L 550.672268907563 62.92337382729272 L 559.9159663865546 178.14770813114245 L 569.1596638655462 152.78811507870114 L 578.4033613445378 184.82207199669799 L 587.6470588235294 189.56812021016697 L 596.8907563025209 234.2033956917997 L 606.1344537815125 234.2033956917997 L 615.3781512605042 214.2737302410674 L 624.6218487394957 240.43305110270745 L 633.8655462184873 206.17555191147108 L 643.109243697479 203.06259272893593 L 652.3529411764705 226.4938701292906 L 661.5966386554621 238.20577178363064 L 670.8403361344538 215.4546367256785 L 680.0840336134453 242.79860111776713 L 689.3277310924369 246.21426101312989 L 698.5714285714286 222.1925303704695 L 707.8151260504201 237.31635487433485 L 717.0588235294117 230.09264527068484 L 726.3025210084033 257.55993217540686 L 735.5462184873949 262.2312394721283 L 744.7899159663865 304.83356201822784 L 754.0336134453781 302.2699485737872 L 763.2773109243697 261.43151166292955 L 772.5210084033613 273.4423769842598 L 781.7647058823529 318.2869270327856 L 791.0084033613444 318.2869270327856 L 800.2521008403361 324.5165824436933 L 809.4957983193276 277.17942282163693 L 818.7394957983192 243.54601028524257 L 827.9831932773109 229.53208839507826 L 837.2268907563024 247.28305612261974 L 846.470588235294 236.07191861048827 L 855.7142857142857 245.8816639336033 L 864.9579831932772 254.75714779737405 L 874.2016806722688 227.06937518824674 L 883.4453781512605 246.65896946777772 L 892.689075630252 255.22427852704618 L 901.9327731092436 272.90797942951485 L 911.1764705882352 238.20577178363064 L 920.4201680672268 266.9025467688498 L 929.6638655462184 270.2397287016276 L 938.90756302521 257.98595540086797 L 948.1512605042016 327.6295416262285 L 957.3949579831932 252.88862487868545 L 966.6386554621848 262.2312394721283 L 975.8823529411764 305.8313532568076 L 985.126050420168 318.2869270327856 L 994.3697478991596 307.6101870753991 L 1003.6134453781511 271.57385406557125 L 1012.8571428571428 309.9832111821336 L 1022.1008403361344 343.20181163057913 L 1031.344537815126 307.07578952065415 L 1040.5882352941176 340.0851154022065 L 1049.8319327731092 249.1515790413083 L 1059.0756302521008 299.6016978458998 L 1068.3193277310925 297.7331749272113 L 1077.563025210084 327.6295416262285 L 1086.8067226890755 336.9721562196714 L 1096.0504201680671 275.7257119908972 L 1105.2941176470588 365 L 1114.5378151260504 254.22275024262908 L 1123.7815126050418 327.6295416262285 L 1133.0252100840335 291.5932086164006 L 1142.268907563025 247.69786821056857 L 1151.5126050420167 255.22427852704618 L 1160.7563025210084 143.89020893990607 L 1170 198.16706268197183" fill="none" stroke="#0f766e" stroke-width="3" />
<path d="M 70 90.8764766908738 L 79.24369747899159 104.44569012639028 L 88.48739495798318 108.93388217708019 L 97.73109243697479 86.42191805272023 L 106.97478991596638 84.62813605077923 L 116.21848739495798 102.29688876989837 L 125.46218487394958 109.13568265229856 L 134.70588235294116 124.08760304764454 L 143.94957983193277 132.3390002565733 L 153.19327731092437 137.31300826612232 L 162.43697478991595 128.50105418158702 L 171.68067226890756 149.61162611693052 L 180.92436974789916 158.31146882634454 L 190.16806722689074 160.51258882455963 L 199.41176470588235 161.48048369644036 L 208.65546218487393 179.50799281594774 L 217.89915966386553 186.1449862231296 L 227.14285714285714 169.87015160135203 L 236.38655462184872 187.46790044956106 L 245.63025210084032 203.7389980255012 L 254.8739495798319 213.38431333177158 L 264.11764705882354 229.67409613689864 L 273.3613445378151 241.9428176210078 L 282.6050420168067 263.1804491148221 L 291.8487394957983 259.80589672367057 L 301.0924369747899 285.42708298472826 L 310.3361344537815 289.25381792220253 L 319.5798319327731 287.97948529165694 L 328.8235294117647 304.8784065682764 L 338.0672268907563 313.7464163403723 L 347.31092436974785 305.90235712771766 L 356.5546218487395 286.3277110315362 L 365.79831932773106 294.9191794116663 L 375.04201680672264 304.9419363475118 L 384.2857142857143 301.45153553540155 L 393.52941176470586 302.2550003904376 L 402.77310924369743 309.7701995694031 L 412.01680672268907 312.7785214684917 L 421.26050420168065 310.8576799080798 L 430.5042016806722 296.89981370547616 L 439.7478991596638 314.89742645828454 L 448.99159663865544 309.03026449360243 L 458.235294117647 319.90880492620727 L 467.4789915966386 323.88875874301397 L 476.7226890756302 327.65943799292745 L 485.9663865546218 309.7739366152405 L 495.2100840336134 302.0457258235445 L 504.453781512605 300.68917818457663 L 513.6974789915967 262.9338040895553 L 522.9411764705882 245.3547404705331 L 532.1848739495798 241.5280055330589 L 541.4285714285713 244.09535602333705 L 550.672268907563 206.01859598630122 L 559.9159663865546 160.78539317068817 L 569.1596638655462 176.85469027140994 L 578.4033613445378 166.89920016063724 L 587.6470588235294 180.0311792331805 L 596.8907563025209 196.78435572214227 L 606.1344537815125 213.77670314469617 L 615.3781512605042 189.19815267226664 L 624.6218487394957 218.53022544983992 L 633.8655462184873 238.1422420043952 L 643.109243697479 241.61769463315593 L 652.3529411764705 238.50099840478342 L 661.5966386554621 245.15293999531474 L 670.8403361344538 253.41928538759305 L 680.0840336134453 230.07396004149797 L 689.3277310924369 240.56758475285298 L 698.5714285714286 242.31278515890813 L 707.8151260504201 246.0348828129358 L 717.0588235294117 251.90578182345524 L 726.3025210084033 258.83052776011516 L 735.5462184873949 268.1282978035095 L 744.7899159663865 259.40976986490864 L 754.0336134453781 279.399228049039 L 763.2773109243697 283.26333344488694 L 772.5210084033613 276.129312941334 L 781.7647058823529 285.29254933458276 L 791.0084033613444 317.864640853162 L 800.2521008403361 325.19298774025856 L 809.4957983193276 307.58029070870003 L 818.7394957983192 301.010564126591 L 827.9831932773109 294.9303905491784 L 837.2268907563024 286.78736766953364 L 846.470588235294 291.1073926575416 L 855.7142857142857 279.6944546701918 L 864.9579831932772 282.0600046852515 L 874.2016806722688 257.115223720759 L 883.4453781512605 250.91546467655033 L 892.689075630252 253.57997835860021 L 901.9327731092436 268.0797162076236 L 911.1764705882352 265.3143022879645 L 920.4201680672268 270.7479669355109 L 929.6638655462184 282.53834655243577 L 938.90756302521 267.39583681938353 L 948.1512605042016 271.7046506698794 L 957.3949579831932 293.96249567729774 L 966.6386554621848 290.66642124873107 L 975.8823529411764 294.75474939482166 L 985.126050420168 289.3360329306248 L 994.3697478991596 289.2799772430642 L 1003.6134453781511 283.8687348705421 L 1012.8571428571428 313.2643374273507 L 1022.1008403361344 312.78599556016644 L 1031.344537815126 312.83084011021504 L 1040.5882352941176 314.59472574545697 L 1049.8319327731092 324.5352676728802 L 1059.0756302521008 311.36218109612577 L 1068.3193277310925 311.29117722521556 L 1077.563025210084 323.05913456711625 L 1086.8067226890755 328.12283167676225 L 1096.0504201680671 300.3304217841884 L 1105.2941176470588 297.33704806844935 L 1114.5378151260504 324.9313945316422 L 1123.7815126050418 304.6728690472206 L 1133.0252100840335 323.02923820041724 L 1142.268907563025 313.1895965106031 L 1151.5126050420167 300.890978659795 L 1160.7563025210084 271.9438216034716 L 1170 238.82612139263517" fill="none" stroke="#dc2626" stroke-width="3" />
<path d="M 70 30 L 79.24369747899159 98.21603471548252 L 88.48739495798318 143.11290340573163 L 97.73109243697479 100.29383220106428 L 106.97478991596638 103.17135749584463 L 116.21848739495798 118.97906138795003 L 125.46218487394958 108.07809868032086 L 134.70588235294116 128.7663844360407 L 143.94957983193277 144.51429559474806 L 153.19327731092437 131.43463516392802 L 162.43697478991595 135.1716810013052 L 171.68067226890756 166.00230915966668 L 180.92436974789916 156.34951976172152 L 190.16806722689074 142.87746951797683 L 199.41176470588235 118.97906138795003 L 208.65546218487393 175.5766205950269 L 217.89915966386553 184.37736354205015 L 227.14285714285714 187.4903227245853 L 236.38655462184872 220.70892317303083 L 245.63025210084032 231.09043650926455 L 254.8739495798319 221.12373526097966 L 264.11764705882354 238.20577178363064 L 273.3613445378151 256.3603404616088 L 282.6050420168067 299.6016978458998 L 291.8487394957983 304.9419363475118 L 301.0924369747899 339.049953705253 L 310.3361344537815 290.259083252457 L 319.5798319327731 255.5568756065728 L 328.8235294117647 272.90797942951485 L 338.0672268907563 301.2833684727196 L 347.31092436974785 286.25670716062604 L 356.5546218487395 280.9164686590141 L 365.79831932773106 297.7331749272113 L 375.04201680672264 327.6295416262285 L 384.2857142857143 278.24821793112676 L 393.52941176470586 280.9164686590141 L 402.77310924369743 289.2201845096661 L 412.01680672268907 283.5847193869014 L 421.26050420168065 331.6319177180594 L 430.5042016806722 262.2312394721283 L 439.7478991596638 330.7425008087636 L 448.99159663865544 283.2521223073748 L 458.235294117647 321.39988621532075 L 467.4789915966386 316.20912954720393 L 476.7226890756302 304.9419363475118 L 485.9663865546218 311.61256316723006 L 495.2100840336134 247.04762223486495 L 504.453781512605 265.9682853095055 L 513.6974789915967 137.35037872449604 L 522.9411764705882 146.38281851343666 L 532.1848739495798 170.88289102328122 L 541.4285714285713 207.5096772754147 L 550.672268907563 181.2606673136776 L 559.9159663865546 62.92337382729272 L 569.1596638655462 178.14770813114245 L 578.4033613445378 152.78811507870114 L 587.6470588235294 184.82207199669799 L 596.8907563025209 189.56812021016697 L 606.1344537815125 234.2033956917997 L 615.3781512605042 234.2033956917997 L 624.6218487394957 214.2737302410674 L 633.8655462184873 240.43305110270745 L 643.109243697479 206.17555191147108 L 652.3529411764705 203.06259272893593 L 661.5966386554621 226.4938701292906 L 670.8403361344538 238.20577178363064 L 680.0840336134453 215.4546367256785 L 689.3277310924369 242.79860111776713 L 698.5714285714286 246.21426101312989 L 707.8151260504201 222.1925303704695 L 717.0588235294117 237.31635487433485 L 726.3025210084033 230.09264527068484 L 735.5462184873949 257.55993217540686 L 744.7899159663865 262.2312394721283 L 754.0336134453781 304.83356201822784 L 763.2773109243697 302.2699485737872 L 772.5210084033613 261.43151166292955 L 781.7647058823529 273.4423769842598 L 791.0084033613444 318.2869270327856 L 800.2521008403361 318.2869270327856 L 809.4957983193276 324.5165824436933 L 818.7394957983192 277.17942282163693 L 827.9831932773109 243.54601028524257 L 837.2268907563024 229.53208839507826 L 846.470588235294 247.28305612261974 L 855.7142857142857 236.07191861048827 L 864.9579831932772 245.8816639336033 L 874.2016806722688 254.75714779737405 L 883.4453781512605 227.06937518824674 L 892.689075630252 246.65896946777772 L 901.9327731092436 255.22427852704618 L 911.1764705882352 272.90797942951485 L 920.4201680672268 238.20577178363064 L 929.6638655462184 266.9025467688498 L 938.90756302521 270.2397287016276 L 948.1512605042016 257.98595540086797 L 957.3949579831932 327.6295416262285 L 966.6386554621848 252.88862487868545 L 975.8823529411764 262.2312394721283 L 985.126050420168 305.8313532568076 L 994.3697478991596 318.2869270327856 L 1003.6134453781511 307.6101870753991 L 1012.8571428571428 271.57385406557125 L 1022.1008403361344 309.9832111821336 L 1031.344537815126 343.20181163057913 L 1040.5882352941176 307.07578952065415 L 1049.8319327731092 340.0851154022065 L 1059.0756302521008 249.1515790413083 L 1068.3193277310925 299.6016978458998 L 1077.563025210084 297.7331749272113 L 1086.8067226890755 327.6295416262285 L 1096.0504201680671 336.9721562196714 L 1105.2941176470588 275.7257119908972 L 1114.5378151260504 365 L 1123.7815126050418 254.22275024262908 L 1133.0252100840335 327.6295416262285 L 1142.268907563025 291.5932086164006 L 1151.5126050420167 247.69786821056857 L 1160.7563025210084 255.22427852704618 L 1170 143.89020893990607" fill="none" stroke="#2563eb" stroke-width="3" />
  <text x="70" y="385" font-size="11" text-anchor="middle" fill="#475569">2024-01-04</text>
<text x="162.43697478991595" y="385" font-size="11" text-anchor="middle" fill="#475569">2024-01-14</text>
<text x="254.8739495798319" y="385" font-size="11" text-anchor="middle" fill="#475569">2024-01-24</text>
<text x="347.31092436974785" y="385" font-size="11" text-anchor="middle" fill="#475569">2024-02-03</text>
<text x="439.7478991596638" y="385" font-size="11" text-anchor="middle" fill="#475569">2024-02-13</text>
<text x="532.1848739495798" y="385" font-size="11" text-anchor="middle" fill="#475569">2024-02-23</text>
<text x="624.6218487394957" y="385" font-size="11" text-anchor="middle" fill="#475569">2024-03-04</text>
<text x="717.0588235294117" y="385" font-size="11" text-anchor="middle" fill="#475569">2024-03-14</text>
<text x="809.4957983193276" y="385" font-size="11" text-anchor="middle" fill="#475569">2024-03-24</text>
<text x="901.9327731092436" y="385" font-size="11" text-anchor="middle" fill="#475569">2024-04-03</text>
<text x="994.3697478991596" y="385" font-size="11" text-anchor="middle" fill="#475569">2024-04-15</text>
<text x="1086.8067226890755" y="385" font-size="11" text-anchor="middle" fill="#475569">2024-04-27</text>
<text x="1170" y="385" font-size="11" text-anchor="middle" fill="#475569">2024-05-06</text>
  <text x="18" y="197.5" font-size="12" fill="#475569" transform="rotate(-90 18 197.5)">Price</text>
</svg>