<?xml version="1.0" encoding="UTF-8"?>
<svg xmlns="http://www.w3.org/2000/svg" width="746" height="666" viewBox="0 0 746 666">
  <rect width="100%" height="100%" fill="#ffffff" />
  <text x="160" y="28" font-size="20" font-weight="700" fill="#0f172a">Onion Correlation Matrix Between Price and Aggregated Weather Variables</text>
  <text x="150" y="123" font-size="12" text-anchor="end" fill="#334155">Onion price</text>
<text x="150" y="201" font-size="12" text-anchor="end" fill="#334155">Average rainfall</text>
<text x="150" y="279" font-size="12" text-anchor="end" fill="#334155">Average max temperature</text>
<text x="150" y="357" font-size="12" text-anchor="end" fill="#334155">Average min temperature</text>
<text x="150" y="435" font-size="12" text-anchor="end" fill="#334155">Average humidity</text>
<text x="150" y="513" font-size="12" text-anchor="end" fill="#334155">Average wind speed</text>
<text x="150" y="591" font-size="12" text-anchor="end" fill="#334155">Average root soil wetness</text>
  <text x="199" y="68" font-size="12" text-anchor="start" fill="#334155" transform="rotate(-35 199 68)">Onion price</text>
<text x="277" y="68" font-size="12" text-anchor="start" fill="#334155" transform="rotate(-35 277 68)">Average rainfall</text>
<text x="355" y="68" font-size="12" text-anchor="start" fill="#334155" transform="rotate(-35 355 68)">Average max temperature</text>
<text x="433" y="68" font-size="12" text-anchor="start" fill="#334155" transform="rotate(-35 433 68)">Average min temperature</text>
<text x="511" y="68" font-size="12" text-anchor="start" fill="#334155" transform="rotate(-35 511 68)">Average humidity</text>
<text x="589" y="68" font-size="12" text-anchor="start" fill="#334155" transform="rotate(-35 589 68)">Average wind speed</text>
<text x="667" y="68" font-size="12" text-anchor="start" fill="#334155" transform="rotate(-35 667 68)">Average root soil wetness</text>
  <rect x="160" y="80" width="78" height="78" fill="rgb(190, 135, 70)" stroke="#ffffff" />
      <text x="199" y="123" font-size="12" text-anchor="middle" fill="#0f172a">1</text>
<rect x="238" y="80" width="78" height="78" fill="rgb(254, 248, 248)" stroke="#ffffff" />
      <text x="277" y="123" font-size="12" text-anchor="middle" fill="#0f172a">-0.04</text>
<rect x="316" y="80" width="78" height="78" fill="rgb(248, 196, 196)" stroke="#ffffff" />
      <text x="355" y="123" font-size="12" text-anchor="middle" fill="#0f172a">-0.35</text>
<rect x="394" y="80" width="78" height="78" fill="rgb(251, 224, 224)" stroke="#ffffff" />
      <text x="433" y="123" font-size="12" text-anchor="middle" fill="#0f172a">-0.19</text>
<rect x="472" y="80" width="78" height="78" fill="rgb(238, 223, 206)" stroke="#ffffff" />
      <text x="511" y="123" font-size="12" text-anchor="middle" fill="#0f172a">0.26</text>
<rect x="550" y="80" width="78" height="78" fill="rgb(252, 227, 227)" stroke="#ffffff" />
      <text x="589" y="123" font-size="12" text-anchor="middle" fill="#0f172a">-0.16</text>
<rect x="628" y="80" width="78" height="78" fill="rgb(236, 220, 201)" stroke="#ffffff" />
      <text x="667" y="123" font-size="12" text-anchor="middle" fill="#0f172a">0.29</text>
<rect x="160" y="158" width="78" height="78" fill="rgb(254, 248, 248)" stroke="#ffffff" />
      <text x="199" y="201" font-size="12" text-anchor="middle" fill="#0f172a">-0.04</text>
<rect x="238" y="158" width="78" height="78" fill="rgb(190, 135, 70)" stroke="#ffffff" />
      <text x="277" y="201" font-size="12" text-anchor="middle" fill="#0f172a">1</text>
<rect x="316" y="158" width="78" height="78" fill="rgb(247, 186, 186)" stroke="#ffffff" />
      <text x="355" y="201" font-size="12" text-anchor="middle" fill="#0f172a">-0.41</text>
<rect x="394" y="158" width="78" height="78" fill="rgb(231, 210, 186)" stroke="#ffffff" />
      <text x="433" y="201" font-size="12" text-anchor="middle" fill="#0f172a">0.37</text>
<rect x="472" y="158" width="78" height="78" fill="rgb(222, 194, 161)" stroke="#ffffff" />
      <text x="511" y="201" font-size="12" text-anchor="middle" fill="#0f172a">0.51</text>
<rect x="550" y="158" width="78" height="78" fill="rgb(215, 181, 141)" stroke="#ffffff" />
      <text x="589" y="201" font-size="12" text-anchor="middle" fill="#0f172a">0.61</text>
<rect x="628" y="158" width="78" height="78" fill="rgb(224, 197, 166)" stroke="#ffffff" />
      <text x="667" y="201" font-size="12" text-anchor="middle" fill="#0f172a">0.48</text>
<rect x="160" y="236" width="78" height="78" fill="rgb(248, 196, 196)" stroke="#ffffff" />
      <text x="199" y="279" font-size="12" text-anchor="middle" fill="#0f172a">-0.35</text>
<rect x="238" y="236" width="78" height="78" fill="rgb(247, 186, 186)" stroke="#ffffff" />
      <text x="277" y="279" font-size="12" text-anchor="middle" fill="#0f172a">-0.41</text>
<rect x="316" y="236" width="78" height="78" fill="rgb(190, 135, 70)" stroke="#ffffff" />
      <text x="355" y="279" font-size="12" text-anchor="middle" fill="#0f172a">1</text>
<rect x="394" y="236" width="78" height="78" fill="rgb(242, 232, 219)" stroke="#ffffff" />
      <text x="433" y="279" font-size="12" text-anchor="middle" fill="#0f172a">0.2</text>
<rect x="472" y="236" width="78" height="78" fill="rgb(239, 122, 122)" stroke="#ffffff" />
      <text x="511" y="279" font-size="12" text-anchor="middle" fill="#0f172a">-0.78</text>
<rect x="550" y="236" width="78" height="78" fill="rgb(250, 215, 215)" stroke="#ffffff" />
      <text x="589" y="279" font-size="12" text-anchor="middle" fill="#0f172a">-0.24</text>
<rect x="628" y="236" width="78" height="78" fill="rgb(239, 122, 122)" stroke="#ffffff" />
      <text x="667" y="279" font-size="12" text-anchor="middle" fill="#0f172a">-0.78</text>
<rect x="160" y="314" width="78" height="78" fill="rgb(251, 224, 224)" stroke="#ffffff" />
      <text x="199" y="357" font-size="12" text-anchor="middle" fill="#0f172a">-0.19</text>
<rect x="238" y="314" width="78" height="78" fill="rgb(231, 210, 186)" stroke="#ffffff" />
      <text x="277" y="357" font-size="12" text-anchor="middle" fill="#0f172a">0.37</text>
<rect x="316" y="314" width="78" height="78" fill="rgb(242, 232, 219)" stroke="#ffffff" />
      <text x="355" y="357" font-size="12" text-anchor="middle" fill="#0f172a">0.2</text>
<rect x="394" y="314" width="78" height="78" fill="rgb(190, 135, 70)" stroke="#ffffff" />
      <text x="433" y="357" font-size="12" text-anchor="middle" fill="#0f172a">1</text>
<rect x="472" y="314" width="78" height="78" fill="rgb(231, 210, 185)" stroke="#ffffff" />
      <text x="511" y="357" font-size="12" text-anchor="middle" fill="#0f172a">0.38</text>
<rect x="550" y="314" width="78" height="78" fill="rgb(224, 198, 167)" stroke="#ffffff" />
      <text x="589" y="357" font-size="12" text-anchor="middle" fill="#0f172a">0.48</text>
<rect x="628" y="314" width="78" height="78" fill="rgb(239, 225, 209)" stroke="#ffffff" />
      <text x="667" y="357" font-size="12" text-anchor="middle" fill="#0f172a">0.25</text>
<rect x="160" y="392" width="78" height="78" fill="rgb(238, 223, 206)" stroke="#ffffff" />
      <text x="199" y="435" font-size="12" text-anchor="middle" fill="#0f172a">0.26</text>
<rect x="238" y="392" width="78" height="78" fill="rgb(222, 194, 161)" stroke="#ffffff" />
      <text x="277" y="435" font-size="12" text-anchor="middle" fill="#0f172a">0.51</text>
<rect x="316" y="392" width="78" height="78" fill="rgb(239, 122, 122)" stroke="#ffffff" />
      <text x="355" y="435" font-size="12" text-anchor="middle" fill="#0f172a">-0.78</text>
<rect x="394" y="392" width="78" height="78" fill="rgb(231, 210, 185)" stroke="#ffffff" />
      <text x="433" y="435" font-size="12" text-anchor="middle" fill="#0f172a">0.38</text>
<rect x="472" y="392" width="78" height="78" fill="rgb(190, 135, 70)" stroke="#ffffff" />
      <text x="511" y="435" font-size="12" text-anchor="middle" fill="#0f172a">1</text>
<rect x="550" y="392" width="78" height="78" fill="rgb(228, 204, 177)" stroke="#ffffff" />
      <text x="589" y="435" font-size="12" text-anchor="middle" fill="#0f172a">0.42</text>
<rect x="628" y="392" width="78" height="78" fill="rgb(198, 150, 93)" stroke="#ffffff" />
      <text x="667" y="435" font-size="12" text-anchor="middle" fill="#0f172a">0.88</text>
<rect x="160" y="470" width="78" height="78" fill="rgb(252, 227, 227)" stroke="#ffffff" />
      <text x="199" y="513" font-size="12" text-anchor="middle" fill="#0f172a">-0.16</text>
<rect x="238" y="470" width="78" height="78" fill="rgb(215, 181, 141)" stroke="#ffffff" />
      <text x="277" y="513" font-size="12" text-anchor="middle" fill="#0f172a">0.61</text>
<rect x="316" y="470" width="78" height="78" fill="rgb(250, 215, 215)" stroke="#ffffff" />
      <text x="355" y="513" font-size="12" text-anchor="middle" fill="#0f172a">-0.24</text>
<rect x="394" y="470" width="78" height="78" fill="rgb(224, 198, 167)" stroke="#ffffff" />
      <text x="433" y="513" font-size="12" text-anchor="middle" fill="#0f172a">0.48</text>
<rect x="472" y="470" width="78" height="78" fill="rgb(228, 204, 177)" stroke="#ffffff" />
      <text x="511" y="513" font-size="12" text-anchor="middle" fill="#0f172a">0.42</text>
<rect x="550" y="470" width="78" height="78" fill="rgb(190, 135, 70)" stroke="#ffffff" />
      <text x="589" y="513" font-size="12" text-anchor="middle" fill="#0f172a">1</text>
<rect x="628" y="470" width="78" height="78" fill="rgb(234, 216, 194)" stroke="#ffffff" />
      <text x="667" y="513" font-size="12" text-anchor="middle" fill="#0f172a">0.33</text>
<rect x="160" y="548" width="78" height="78" fill="rgb(236, 220, 201)" stroke="#ffffff" />
      <text x="199" y="591" font-size="12" text-anchor="middle" fill="#0f172a">0.29</text>
<rect x="238" y="548" width="78" height="78" fill="rgb(224, 197, 166)" stroke="#ffffff" />
      <text x="277" y="591" font-size="12" text-anchor="middle" fill="#0f172a">0.48</text>
<rect x="316" y="548" width="78" height="78" fill="rgb(239, 122, 122)" stroke="#ffffff" />
      <text x="355" y="591" font-size="12" text-anchor="middle" fill="#0f172a">-0.78</text>
<rect x="394" y="548" width="78" height="78" fill="rgb(239, 225, 209)" stroke="#ffffff" />
      <text x="433" y="591" font-size="12" text-anchor="middle" fill="#0f172a">0.25</text>
<rect x="472" y="548" width="78" height="78" fill="rgb(198, 150, 93)" stroke="#ffffff" />
      <text x="511" y="591" font-size="12" text-anchor="middle" fill="#0f172a">0.88</text>
<rect x="550" y="548" width="78" height="78" fill="rgb(234, 216, 194)" stroke="#ffffff" />
      <text x="589" y="591" font-size="12" text-anchor="middle" fill="#0f172a">0.33</text>
<rect x="628" y="548" width="78" height="78" fill="rgb(190, 135, 70)" stroke="#ffffff" />
      <text x="667" y="591" font-size="12" text-anchor="middle" fill="#0f172a">1</text>
</svg>