<?xml version="1.0" encoding="UTF-8"?>
<svg xmlns="http://www.w3.org/2000/svg" width="1200" height="420" viewBox="0 0 1200 420">
  <rect width="100%" height="100%" fill="#ffffff" />
  <text x="70" y="22" font-size="20" font-weight="700" fill="#0f172a">Onion Monthly Average Modal Price Trend Across Pune District Markets</text>
  <rect x="70" y="8" width="14" height="14" fill="#0f766e" /><text x="90" y="20" font-size="12" fill="#0f172a">Onion</text>
  <line x1="70" y1="365" x2="1170" y2="365" stroke="#e5e7eb" stroke-width="1" />
      <text x="60" y="369" font-size="12" text-anchor="end" fill="#475569">460.45</text>
<line x1="70" y1="298" x2="1170" y2="298" stroke="#e5e7eb" stroke-width="1" />
      <text x="60" y="302" font-size="12" text-anchor="end" fill="#475569">1395.76</text>
<line x1="70" y1="231" x2="1170" y2="231" stroke="#e5e7eb" stroke-width="1" />
      <text x="60" y="235" font-size="12" text-anchor="end" fill="#475569">2331.07</text>
<line x1="70" y1="163.99999999999997" x2="1170" y2="163.99999999999997" stroke="#e5e7eb" stroke-width="1" />
      <text x="60" y="167.99999999999997" font-size="12" text-anchor="end" fill="#475569">3266.38</text>
<line x1="70" y1="96.99999999999994" x2="1170" y2="96.99999999999994" stroke="#e5e7eb" stroke-width="1" />
      <text x="60" y="100.99999999999994" font-size="12" text-anchor="end" fill="#475569">4201.69</text>
<line x1="70" y1="30" x2="1170" y2="30" stroke="#e5e7eb" stroke-width="1" />
      <text x="60" y="34" font-size="12" text-anchor="end" fill="#475569">5137</text>
  <line x1="70" y1="365" x2="1170" y2="365" stroke="#475569" stroke-width="1.5" />
  <line x1="70" y1="30" x2="70" y2="365" stroke="#475569" stroke-width="1.5" />
  <path d="M 70 312.8303877858678 L 78.2089552238806 308.70355283275063 L 86.41791044776119 317.7595235804172 L 94.6268656716418 329.8341512439726 L 102.83582089552239 311.1699115801178 L 111.04477611940298 281.0700195657055 L 119.25373134328359 239.9470870620436 L 127.46268656716418 91.03360383188465 L 135.67164179104478 116.3375992986283 L 143.88059701492537 201.8814938362682 L 152.08955223880596 210.41740171707775 L 160.2985074626866 297.06589259176104 L 168.50746268656718 306.0538110359132 L 176.71641791044777 333.58777303781636 L 184.92537313432837 346.3479381167741 L 193.13432835820896 350.31789460178976 L 201.34328358208955 348.15383135003367 L 209.55223880597015 340.17523601800474 L 217.76119402985074 336.6959724583293 L 225.97014925373134 345.8042360286964 L 234.17910447761193 353.38956068041614 L 242.38805970149255 352.1825277180828 L 250.59701492537314 335.9939592220761 L 258.80597014925377 340.41306091028645 L 267.01492537313436 350.72477574280185 L 275.22388059701495 353.63311629299375 L 283.43283582089555 356.7026333515091 L 291.64179104477614 358.1747121275299 L 299.85074626865674 362.5443863531877 L 308.05970149253733 349.6645924880521 L 316.2686567164179 345.31855748361505 L 324.4776119402985 269.86144700687476 L 332.6865671641791 293.77932450203673 L 340.8955223880597 245.47723214763022 L 349.1044776119403 181.81107867979603 L 357.3134328358209 214.23477777421388 L 365.5223880597015 242.39696998856 L 373.7313432835821 297.0966952133517 L 381.94029850746267 335.94596443959756 L 390.14925373134326 349.26917278763193 L 398.35820895522386 350.6180410772899 L 406.5671641791045 331.8399033475532 L 414.7761194029851 321.25096492072146 L 422.9850746268657 326.78182634634504 L 431.1940298507463 335.65799574472635 L 439.4029850746269 317.06324106445993 L 447.6119402985075 320.2724444301889 L 455.82089552238807 344.06567875891415 L 464.02985074626866 353.2384129326106 L 472.23880597014926 365 L 480.44776119402985 359.58232030022134 L 488.65671641791045 351.3701981161326 L 496.86567164179104 339.729672514995 L 505.07462686567163 315.5288407052207 L 513.2835820895523 313.4543199580888 L 521.4925373134329 278.8056687087703 L 529.7014925373135 204.7704932054613 L 537.9104477611941 209.32211780051534 L 546.1194029850747 138.48468422234336 L 554.3283582089553 30 L 562.5373134328358 196.5963370433332 L 570.7462686567164 279.32501523559034 L 578.955223880597 288.8136553656007 L 587.1641791044776 304.0759961937753 L 595.3731343283582 346.92745720670155 L 603.5820895522388 351.7040125733714 L 611.7910447761194 349.7247650511595 L 620 333.23031935935677 L 628.2089552238806 266.24679518020764 L 636.4179104477612 163.4269279704055 L 644.6268656716418 136.96389432380707 L 652.8358208955224 238.55738739027703 L 661.044776119403 244.0574461943099 L 669.2537313432836 193.05690092055042 L 677.4626865671642 294.63105280602156 L 685.6716417910447 333.14579123499163 L 693.8805970149253 327.097015962622 L 702.0895522388059 303.1841528477189 L 710.2985074626865 300.4283927254065 L 718.5074626865671 303.09747570324276 L 726.7164179104477 304.0380301718147 L 734.9253731343284 245.394136703339 L 743.134328358209 260.70518865402914 L 751.3432835820896 270.9323753621794 L 759.5522388059702 279.38518779869776 L 767.7611940298508 274.2425826731244 L 775.9701492537314 310.5438303877859 L 784.179104477612 331.86569158888494 L 792.3880597014926 334.6966674150816 L 800.5970149253732 323.7968374121949 L 808.8059701492538 318.18932760261305 L 817.0149253731344 315.6448877912136 L 825.223880597015 319.3848991243545 L 833.4328358208955 293.06441714511766 L 841.6417910447761 278.3909078273514 L 849.8507462686567 314.0617763094589 L 858.0597014925373 305.68561225689876 L 866.2686567164179 309.22361569960765 L 874.4776119402985 334.95598250847314 L 882.6865671641791 343.07641316782673 L 890.8955223880597 348.11944702825804 L 899.1044776119403 331.5913333547166 L 907.3134328358209 313.2351199067689 L 915.5223880597015 286.607328051662 L 923.7313432835821 279.362981257551 L 931.9402985074627 227.69480706931392 L 940.1492537313433 168.033710748308 L 948.3582089552239 224.71125081523772 L 956.5671641791045 291.5085265847687 L 964.776119402985 305.8489377853332 L 972.9850746268656 306.25295356619733 L 981.1940298507462 313.9156429419123 L 989.4029850746269 297.75143000716344 L 997.6119402985075 246.42351733649807 L 1005.8208955223881 226.8180068640344 L 1014.0298507462687 195.72670023842363 L 1022.2388059701493 140.19888593086785 L 1030.44776119403 162.46846500090876 L 1038.6567164179105 105.94207268178462 L 1046.865671641791 176.73867487784798 L 1055.0746268656717 237.30235964546512 L 1063.2835820895523 240.39623226523827 L 1071.4925373134329 281.0786156461494 L 1079.7014925373135 314.80318824774673 L 1087.910447761194 322.72232735670525 L 1096.1194029850747 310.5696186291176 L 1104.3283582089553 303.0946103430948 L 1112.5373134328358 302.7335749644503 L 1120.7462686567164 314.4557633298051 L 1128.955223880597 318.7702793726144 L 1137.1641791044776 320.993798847441 L 1145.3731343283582 301.1304059616598 L 1153.5820895522388 308.9979685879548 L 1161.7910447761194 318.99377746415627 L 1170 323.81259689300873" fill="none" stroke="#0f766e" stroke-width="3" />
  <text x="70" y="385" font-size="11" text-anchor="middle" fill="#475569">2015-01</text>
<text x="160.2985074626866" y="385" font-size="11" text-anchor="middle" fill="#475569">2015-12</text>
<text x="250.59701492537314" y="385" font-size="11" text-anchor="middle" fill="#475569">2016-11</text>
<text x="340.8955223880597" y="385" font-size="11" text-anchor="middle" fill="#475569">2017-10</text>
<text x="431.1940298507463" y="385" font-size="11" text-anchor="middle" fill="#475569">2018-09</text>
<text x="521.4925373134329" y="385" font-size="11" text-anchor="middle" fill="#475569">2019-08</text>
<text x="611.7910447761194" y="385" font-size="11" text-anchor="middle" fill="#475569">2020-07</text>
<text x="702.0895522388059" y="385" font-size="11" text-anchor="middle" fill="#475569">2021-06</text>
<text x="792.3880597014926" y="385" font-size="11" text-anchor="middle" fill="#475569">2022-05</text>
<text x="882.6865671641791" y="385" font-size="11" text-anchor="middle" fill="#475569">2023-04</text>
<text x="972.9850746268656" y="385" font-size="11" text-anchor="middle" fill="#475569">2024-03</text>
<text x="1063.2835820895523" y="385" font-size="11" text-anchor="middle" fill="#475569">2025-02</text>
<text x="1153.5820895522388" y="385" font-size="11" text-anchor="middle" fill="#475569">2026-01</text>
<text x="1170" y="385" font-size="11" text-anchor="middle" fill="#475569">2026-03</text>
  <text x="18" y="197.5" font-size="12" fill="#475569" transform="rotate(-90 18 197.5)">Average modal price in rupees per quintal</text>
</svg>