<?xml version="1.0" encoding="UTF-8"?>
<svg xmlns="http://www.w3.org/2000/svg" width="1100" height="480" viewBox="0 0 1100 480">
  <rect width="100%" height="100%" fill="#ffffff" />
  <text x="70" y="22" font-size="20" font-weight="700" fill="#0f172a">Onion Distribution of Prediction Residuals for the Holdout Test Period</text>
  <line x1="70" y1="425" x2="1070" y2="425" stroke="#e5e7eb" stroke-width="1" />
    <text x="60" y="429" font-size="12" text-anchor="end" fill="#475569">0</text>
<line x1="70" y1="346" x2="1070" y2="346" stroke="#e5e7eb" stroke-width="1" />
    <text x="60" y="350" font-size="12" text-anchor="end" fill="#475569">4.4</text>
<line x1="70" y1="267" x2="1070" y2="267" stroke="#e5e7eb" stroke-width="1" />
    <text x="60" y="271" font-size="12" text-anchor="end" fill="#475569">8.8</text>
<line x1="70" y1="188" x2="1070" y2="188" stroke="#e5e7eb" stroke-width="1" />
    <text x="60" y="192" font-size="12" text-anchor="end" fill="#475569">13.2</text>
<line x1="70" y1="109" x2="1070" y2="109" stroke="#e5e7eb" stroke-width="1" />
    <text x="60" y="113" font-size="12" text-anchor="end" fill="#475569">17.6</text>
<line x1="70" y1="30" x2="1070" y2="30" stroke="#e5e7eb" stroke-width="1" />
    <text x="60" y="34" font-size="12" text-anchor="end" fill="#475569">22</text>
  <line x1="70" y1="425" x2="1070" y2="425" stroke="#475569" stroke-width="1.5" />
  <line x1="70" y1="30" x2="70" y2="425" stroke="#475569" stroke-width="1.5" />
  <rect x="75" y="389.09090909090907" width="45.55555555555556" height="35.909090909090935" fill="#b45309" rx="4" />
      <text x="97.77777777777777" y="443" font-size="9" text-anchor="end" fill="#475569" transform="rotate(-35 97.77777777777777 443)">-212.05</text>
<rect x="130.55555555555554" y="389.09090909090907" width="45.55555555555556" height="35.909090909090935" fill="#b45309" rx="4" />
      <text x="153.33333333333331" y="443" font-size="9" text-anchor="end" fill="#475569" transform="rotate(-35 153.33333333333331 443)">-175.99</text>
<rect x="186.11111111111111" y="353.1818181818182" width="45.55555555555556" height="71.81818181818181" fill="#b45309" rx="4" />
      <text x="208.88888888888889" y="443" font-size="9" text-anchor="end" fill="#475569" transform="rotate(-35 208.88888888888889 443)">-139.92</text>
<rect x="241.66666666666669" y="227.5" width="45.55555555555556" height="197.5" fill="#b45309" rx="4" />
      <text x="264.44444444444446" y="443" font-size="9" text-anchor="end" fill="#475569" transform="rotate(-35 264.44444444444446 443)">-103.86</text>
<rect x="297.22222222222223" y="119.77272727272731" width="45.55555555555556" height="305.2272727272727" fill="#b45309" rx="4" />
      <text x="320" y="443" font-size="9" text-anchor="end" fill="#475569" transform="rotate(-35 320 443)">-67.8</text>
<rect x="352.77777777777777" y="101.81818181818181" width="45.55555555555556" height="323.1818181818182" fill="#b45309" rx="4" />
      <text x="375.55555555555554" y="443" font-size="9" text-anchor="end" fill="#475569" transform="rotate(-35 375.55555555555554 443)">-31.74</text>
<rect x="408.33333333333337" y="65.90909090909093" width="45.55555555555556" height="359.09090909090907" fill="#b45309" rx="4" />
      <text x="431.11111111111114" y="443" font-size="9" text-anchor="end" fill="#475569" transform="rotate(-35 431.11111111111114 443)">4.33</text>
<rect x="463.8888888888889" y="137.7272727272727" width="45.55555555555556" height="287.2727272727273" fill="#b45309" rx="4" />
      <text x="486.6666666666667" y="443" font-size="9" text-anchor="end" fill="#475569" transform="rotate(-35 486.6666666666667 443)">40.39</text>
<rect x="519.4444444444445" y="155.6818181818182" width="45.55555555555556" height="269.3181818181818" fill="#b45309" rx="4" />
      <text x="542.2222222222223" y="443" font-size="9" text-anchor="end" fill="#475569" transform="rotate(-35 542.2222222222223 443)">76.45</text>
<rect x="575" y="371.1363636363636" width="45.55555555555556" height="53.863636363636374" fill="#b45309" rx="4" />
      <text x="597.7777777777778" y="443" font-size="9" text-anchor="end" fill="#475569" transform="rotate(-35 597.7777777777778 443)">112.51</text>
<rect x="630.5555555555555" y="335.22727272727275" width="45.55555555555556" height="89.77272727272725" fill="#b45309" rx="4" />
      <text x="653.3333333333334" y="443" font-size="9" text-anchor="end" fill="#475569" transform="rotate(-35 653.3333333333334 443)">148.58</text>
<rect x="686.1111111111111" y="371.1363636363636" width="45.55555555555556" height="53.863636363636374" fill="#b45309" rx="4" />
      <text x="708.8888888888889" y="443" font-size="9" text-anchor="end" fill="#475569" transform="rotate(-35 708.8888888888889 443)">184.64</text>
<rect x="741.6666666666667" y="425" width="45.55555555555556" height="0" fill="#b45309" rx="4" />
      <text x="764.4444444444446" y="443" font-size="9" text-anchor="end" fill="#475569" transform="rotate(-35 764.4444444444446 443)">220.7</text>
<rect x="797.2222222222223" y="425" width="45.55555555555556" height="0" fill="#b45309" rx="4" />
      <text x="820.0000000000001" y="443" font-size="9" text-anchor="end" fill="#475569" transform="rotate(-35 820.0000000000001 443)">256.77</text>
<rect x="852.7777777777778" y="407.04545454545456" width="45.55555555555556" height="17.95454545454544" fill="#b45309" rx="4" />
      <text x="875.5555555555557" y="443" font-size="9" text-anchor="end" fill="#475569" transform="rotate(-35 875.5555555555557 443)">292.83</text>
<rect x="908.3333333333334" y="407.04545454545456" width="45.55555555555556" height="17.95454545454544" fill="#b45309" rx="4" />
      <text x="931.1111111111112" y="443" font-size="9" text-anchor="end" fill="#475569" transform="rotate(-35 931.1111111111112 443)">328.89</text>
<rect x="963.8888888888889" y="407.04545454545456" width="45.55555555555556" height="17.95454545454544" fill="#b45309" rx="4" />
      <text x="986.6666666666667" y="443" font-size="9" text-anchor="end" fill="#475569" transform="rotate(-35 986.6666666666667 443)">364.95</text>
<rect x="1019.4444444444445" y="407.04545454545456" width="45.55555555555556" height="17.95454545454544" fill="#b45309" rx="4" />
      <text x="1042.2222222222222" y="443" font-size="9" text-anchor="end" fill="#475569" transform="rotate(-35 1042.2222222222222 443)">401.02</text>
  <text x="18" y="227.5" font-size="12" fill="#475569" transform="rotate(-90 18 227.5)">Frequency</text>
</svg>