<?xml version="1.0" encoding="UTF-8"?>
<svg xmlns="http://www.w3.org/2000/svg" width="1100" height="480" viewBox="0 0 1100 480">
  <rect width="100%" height="100%" fill="#ffffff" />
  <text x="70" y="22" font-size="20" font-weight="700" fill="#0f172a">Onion Average Modal Price in the Ten Most Frequently Observed Markets</text>
  <line x1="70" y1="425" x2="1070" y2="425" stroke="#e5e7eb" stroke-width="1" />
    <text x="60" y="429" font-size="12" text-anchor="end" fill="#475569">0</text>
<line x1="70" y1="346" x2="1070" y2="346" stroke="#e5e7eb" stroke-width="1" />
    <text x="60" y="350" font-size="12" text-anchor="end" fill="#475569">396.65</text>
<line x1="70" y1="267" x2="1070" y2="267" stroke="#e5e7eb" stroke-width="1" />
    <text x="60" y="271" font-size="12" text-anchor="end" fill="#475569">793.3</text>
<line x1="70" y1="188" x2="1070" y2="188" stroke="#e5e7eb" stroke-width="1" />
    <text x="60" y="192" font-size="12" text-anchor="end" fill="#475569">1189.96</text>
<line x1="70" y1="109" x2="1070" y2="109" stroke="#e5e7eb" stroke-width="1" />
    <text x="60" y="113" font-size="12" text-anchor="end" fill="#475569">1586.61</text>
<line x1="70" y1="30" x2="1070" y2="30" stroke="#e5e7eb" stroke-width="1" />
    <text x="60" y="34" font-size="12" text-anchor="end" fill="#475569">1983.26</text>
  <line x1="70" y1="425" x2="1070" y2="425" stroke="#475569" stroke-width="1.5" />
  <line x1="70" y1="30" x2="70" y2="425" stroke="#475569" stroke-width="1.5" />
  <rect x="75" y="124.6070185595745" width="90" height="300.3929814404255" fill="#0f766e" rx="4" />
      <text x="120" y="443" font-size="11" text-anchor="end" fill="#475569" transform="rotate(-35 120 443)">Pune</text>
<rect x="175" y="91.22888300948313" width="90" height="333.7711169905169" fill="#0f766e" rx="4" />
      <text x="220" y="443" font-size="11" text-anchor="end" fill="#475569" transform="rotate(-35 220 443)">Pune(Pimpri)</text>
<rect x="275" y="124.9940479721364" width="90" height="300.0059520278636" fill="#0f766e" rx="4" />
      <text x="320" y="443" font-size="11" text-anchor="end" fill="#475569" transform="rotate(-35 320 443)">Pune(Khadiki)</text>
<rect x="375" y="91.36015870963246" width="90" height="333.63984129036754" fill="#0f766e" rx="4" />
      <text x="420" y="443" font-size="11" text-anchor="end" fill="#475569" transform="rotate(-35 420 443)">Pune(Manjri)</text>
<rect x="475" y="172.90363734647573" width="90" height="252.09636265352427" fill="#0f766e" rx="4" />
      <text x="520" y="443" font-size="11" text-anchor="end" fill="#475569" transform="rotate(-35 520 443)">Pune(Moshi)</text>
<rect x="575" y="99.7358581136811" width="90" height="325.2641418863189" fill="#0f766e" rx="4" />
      <text x="620" y="443" font-size="11" text-anchor="end" fill="#475569" transform="rotate(-35 620 443)">Khed(Chakan)</text>
<rect x="675" y="92.26867453074487" width="90" height="332.7313254692551" fill="#0f766e" rx="4" />
      <text x="720" y="443" font-size="11" text-anchor="end" fill="#475569" transform="rotate(-35 720 443)">Manchar</text>
<rect x="775" y="85.42713284780632" width="90" height="339.5728671521937" fill="#0f766e" rx="4" />
      <text x="820" y="443" font-size="11" text-anchor="end" fill="#475569" transform="rotate(-35 820 443)">Junnar(Alephata)</text>
<rect x="875" y="65.90909090909099" width="90" height="359.090909090909" fill="#0f766e" rx="4" />
      <text x="920" y="443" font-size="11" text-anchor="end" fill="#475569" transform="rotate(-35 920 443)">Junnar</text>
<rect x="975" y="105.51536048056761" width="90" height="319.4846395194324" fill="#0f766e" rx="4" />
      <text x="1020" y="443" font-size="11" text-anchor="end" fill="#475569" transform="rotate(-35 1020 443)">Junnar(Narayangaon)</text>
  <text x="18" y="227.5" font-size="12" fill="#475569" transform="rotate(-90 18 227.5)">Average modal price in rupees per quintal</text>
</svg>