<?xml version="1.0" encoding="UTF-8"?>
<svg xmlns="http://www.w3.org/2000/svg" width="760" height="520" viewBox="0 0 760 520">
  <rect width="100%" height="100%" fill="#ffffff" />
  <text x="70" y="22" font-size="20" font-weight="700" fill="#0f172a">Onion Diagnostic Scatter Plot of Actual Prices Versus Model Predictions</text>
  <line x1="70" y1="465" x2="730" y2="465" stroke="#475569" stroke-width="1.5" />
  <line x1="70" y1="30" x2="70" y2="465" stroke="#475569" stroke-width="1.5" />
  <line x1="150.57204359605612" y1="465" x2="682.5777838259127" y2="30" stroke="#dc2626" stroke-width="2" stroke-dasharray="6 4" />
  <circle cx="652.8899088243664" cy="41.16257654588151" r="3.5" fill="#7c3aed" fill-opacity="0.65" />
<circle cx="554.7958135909839" cy="65.40379391316361" r="3.5" fill="#7c3aed" fill-opacity="0.65" />
<circle cx="648.3501787636237" cy="73.4218886689074" r="3.5" fill="#7c3aed" fill-opacity="0.65" />
<circle cx="642.063142528423" cy="33.204567429439635" r="3.5" fill="#7c3aed" fill-opacity="0.65" />
<circle cx="607.5252681454357" cy="30" r="3.5" fill="#7c3aed" fill-opacity="0.65" />
<circle cx="631.3425210000867" cy="61.564989179980614" r="3.5" fill="#7c3aed" fill-opacity="0.65" />
<circle cx="586.1411799636288" cy="73.7824025047193" r="3.5" fill="#7c3aed" fill-opacity="0.65" />
<circle cx="551.7339452946198" cy="100.49380726552783" r="3.5" fill="#7c3aed" fill-opacity="0.65" />
<circle cx="580.3113827273514" cy="115.2348174409504" r="3.5" fill="#7c3aed" fill-opacity="0.65" />
<circle cx="572.1464006037139" cy="124.12081587550074" r="3.5" fill="#7c3aed" fill-opacity="0.65" />
<circle cx="504.7852980837035" cy="108.37837837837844" r="3.5" fill="#7c3aed" fill-opacity="0.65" />
<circle cx="525.8754469090594" cy="146.09213131359644" r="3.5" fill="#7c3aed" fill-opacity="0.65" />
<circle cx="555.3102074647732" cy="161.63428334637882" r="3.5" fill="#7c3aed" fill-opacity="0.65" />
<circle cx="607.5252681454357" cy="165.56655462958696" r="3.5" fill="#7c3aed" fill-opacity="0.65" />
<circle cx="483.86661388294397" cy="167.29568580505554" r="3.5" fill="#7c3aed" fill-opacity="0.65" />
<circle cx="464.63808098177725" cy="199.50158847092416" r="3.5" fill="#7c3aed" fill-opacity="0.65" />
<circle cx="457.8366508727872" cy="211.3584879598509" r="3.5" fill="#7c3aed" fill-opacity="0.65" />
<circle cx="385.2581247757722" cy="182.28371471983053" r="3.5" fill="#7c3aed" fill-opacity="0.65" />
<circle cx="362.57580443630695" cy="213.72185643906263" r="3.5" fill="#7c3aed" fill-opacity="0.65" />
<circle cx="384.3518117600485" cy="242.78995349693818" r="3.5" fill="#7c3aed" fill-opacity="0.65" />
<circle cx="347.0296784729009" cy="260.021179612321" r="3.5" fill="#7c3aed" fill-opacity="0.65" />
<circle cx="307.3641953162694" cy="289.1226575809201" r="3.5" fill="#7c3aed" fill-opacity="0.65" />
<circle cx="212.8871871636584" cy="311.04056356185833" r="3.5" fill="#7c3aed" fill-opacity="0.65" />
<circle cx="201.21942770898028" cy="348.98130668999494" r="3.5" fill="#7c3aed" fill-opacity="0.65" />
<circle cx="126.69763586653971" cy="342.95271421336156" r="3.5" fill="#7c3aed" fill-opacity="0.65" />
<circle cx="233.29964247275248" cy="388.7246189971914" r="3.5" fill="#7c3aed" fill-opacity="0.65" />
<circle cx="309.11966647285135" cy="395.56102951332934" r="3.5" fill="#7c3aed" fill-opacity="0.65" />
<circle cx="271.209654472802" cy="393.28445140199835" r="3.5" fill="#7c3aed" fill-opacity="0.65" />
<circle cx="209.2129452080215" cy="423.4741470601777" r="3.5" fill="#7c3aed" fill-opacity="0.65" />
<circle cx="242.0443383271684" cy="439.31672728947" r="3.5" fill="#7c3aed" fill-opacity="0.65" />
<circle cx="253.71209778184655" cy="425.3034209678162" r="3.5" fill="#7c3aed" fill-opacity="0.65" />
<circle cx="216.96967822547722" cy="390.33357889405596" r="3.5" fill="#7c3aed" fill-opacity="0.65" />
<circle cx="151.64982123637623" cy="405.682121644643" r="3.5" fill="#7c3aed" fill-opacity="0.65" />
<circle cx="259.5418950181239" cy="423.58764215663706" r="3.5" fill="#7c3aed" fill-opacity="0.65" />
<circle cx="253.71209778184655" cy="417.3520880335191" r="3.5" fill="#7c3aed" fill-opacity="0.65" />
<circle cx="235.56950750312373" cy="418.7874671946222" r="3.5" fill="#7c3aed" fill-opacity="0.65" />
<circle cx="247.8823005455692" cy="432.2132694875455" r="3.5" fill="#7c3aed" fill-opacity="0.65" />
<circle cx="142.90512538196032" cy="437.5875961140016" r="3.5" fill="#7c3aed" fill-opacity="0.65" />
<circle cx="294.53700840003467" cy="434.15603849164324" r="3.5" fill="#7c3aed" fill-opacity="0.65" />
<circle cx="144.84839112738615" cy="409.2204981813159" r="3.5" fill="#7c3aed" fill-opacity="0.65" />
<circle cx="248.60898395457303" cy="441.37299139002727" r="3.5" fill="#7c3aed" fill-opacity="0.65" />
<circle cx="165.26084643648022" cy="430.89138542290164" r="3.5" fill="#7c3aed" fill-opacity="0.65" />
<circle cx="176.60200660621277" cy="450.32575164602423" r="3.5" fill="#7c3aed" fill-opacity="0.65" />
<circle cx="201.21942770898028" cy="457.43588563009354" r="3.5" fill="#7c3aed" fill-opacity="0.65" />
<circle cx="186.644934618287" cy="464.1721534140614" r="3.5" fill="#7c3aed" fill-opacity="0.65" />
<circle cx="327.7113307683744" cy="432.2199456696902" r="3.5" fill="#7c3aed" fill-opacity="0.65" />
<circle cx="286.37202627639704" cy="418.41360099452095" r="3.5" fill="#7c3aed" fill-opacity="0.65" />
<circle cx="567.3862160256332" cy="415.99014687600726" r="3.5" fill="#7c3aed" fill-opacity="0.65" />
<circle cx="547.651454232801" cy="348.5406786684471" r="3.5" fill="#7c3aed" fill-opacity="0.65" />
<circle cx="494.1218314302328" cy="317.1359178599383" r="3.5" fill="#7c3aed" fill-opacity="0.65" />
<circle cx="414.09684163646045" cy="310.2995073438003" r="3.5" fill="#7c3aed" fill-opacity="0.65" />
<circle cx="471.4476760728911" cy="314.8860444771859" r="3.5" fill="#7c3aed" fill-opacity="0.65" />
<circle cx="730" cy="246.86242460518437" r="3.5" fill="#7c3aed" fill-opacity="0.65" />
<circle cx="478.24910618188125" cy="166.05391592614762" r="3.5" fill="#7c3aed" fill-opacity="0.65" />
<circle cx="533.656674872886" cy="194.76149914821121" r="3.5" fill="#7c3aed" fill-opacity="0.65" />
<circle cx="463.6664481090645" cy="176.97614991482118" r="3.5" fill="#7c3aed" fill-opacity="0.65" />
<circle cx="453.2969208120447" cy="200.43625397117728" r="3.5" fill="#7c3aed" fill-opacity="0.65" />
<circle cx="355.7743743273168" cy="230.36557852571477" r="3.5" fill="#7c3aed" fill-opacity="0.65" />
<circle cx="355.7743743273168" cy="260.7221787375109" r="3.5" fill="#7c3aed" fill-opacity="0.65" />
<circle cx="399.3182239926762" cy="216.8129287720429" r="3.5" fill="#7c3aed" fill-opacity="0.65" />
<circle cx="342.1633491272129" cy="269.214282425526" r="3.5" fill="#7c3aed" fill-opacity="0.65" />
<circle cx="417.01174025459903" cy="304.250886320733" r="3.5" fill="#7c3aed" fill-opacity="0.65" />
<circle cx="423.81317036358905" cy="310.4597357152723" r="3.5" fill="#7c3aed" fill-opacity="0.65" />
<circle cx="372.61873244838137" cy="304.89179980662095" r="3.5" fill="#7c3aed" fill-opacity="0.65" />
<circle cx="347.0296784729009" cy="316.7754040241264" r="3.5" fill="#7c3aed" fill-opacity="0.65" />
<circle cx="396.73808964160685" cy="331.5431189281275" r="3.5" fill="#7c3aed" fill-opacity="0.65" />
<circle cx="336.99491544295034" cy="289.83700907039923" r="3.5" fill="#7c3aed" fill-opacity="0.65" />
<circle cx="329.5321217819454" cy="308.5837285326212" r="3.5" fill="#7c3aed" fill-opacity="0.65" />
<circle cx="382.0166268726882" cy="311.7015055941803" r="3.5" fill="#7c3aed" fill-opacity="0.65" />
<circle cx="348.97294421832675" cy="318.35098301026756" r="3.5" fill="#7c3aed" fill-opacity="0.65" />
<circle cx="364.7558546633182" cy="328.8392651595377" r="3.5" fill="#7c3aed" fill-opacity="0.65" />
<circle cx="304.7432360545817" cy="341.21023067360386" r="3.5" fill="#7c3aed" fill-opacity="0.65" />
<circle cx="294.53700840003467" cy="357.8205718495327" r="3.5" fill="#7c3aed" fill-opacity="0.65" />
<circle cx="201.45621219056576" cy="342.24503890602705" r="3.5" fill="#7c3aed" fill-opacity="0.65" />
<circle cx="207.05738992738108" cy="377.9559371978453" r="3.5" fill="#7c3aed" fill-opacity="0.65" />
<circle cx="296.28431457449324" cy="384.8591095354298" r="3.5" fill="#7c3aed" fill-opacity="0.65" />
<circle cx="270.0420620291218" cy="372.1142778212626" r="3.5" fill="#7c3aed" fill-opacity="0.65" />
<circle cx="172.0622765454703" cy="388.4842764399835" r="3.5" fill="#7c3aed" fill-opacity="0.65" />
<circle cx="172.0622765454703" cy="446.6738800128919" r="3.5" fill="#7c3aed" fill-opacity="0.65" />
<circle cx="158.4512513453663" cy="459.7658731985819" r="3.5" fill="#7c3aed" fill-opacity="0.65" />
<circle cx="261.87707990548415" cy="428.3010267507712" r="3.5" fill="#7c3aed" fill-opacity="0.65" />
<circle cx="335.3619190182228" cy="416.5642985404485" r="3.5" fill="#7c3aed" fill-opacity="0.65" />
<circle cx="365.98060198186386" cy="405.70215019107695" r="3.5" fill="#7c3aed" fill-opacity="0.65" />
<circle cx="327.1969368945852" cy="391.1547492978499" r="3.5" fill="#7c3aed" fill-opacity="0.65" />
<circle cx="351.691883265498" cy="398.8724158570837" r="3.5" fill="#7c3aed" fill-opacity="0.65" />
<circle cx="330.25880519094926" cy="378.4833555872739" r="3.5" fill="#7c3aed" fill-opacity="0.65" />
<circle cx="310.8669726473099" cy="382.70937888484735" r="3.5" fill="#7c3aed" fill-opacity="0.65" />
<circle cx="371.361325201341" cy="338.14586306920205" r="3.5" fill="#7c3aed" fill-opacity="0.65" />
<circle cx="328.5604889092327" cy="327.0700768912013" r="3.5" fill="#7c3aed" fill-opacity="0.65" />
<circle cx="309.8463498818552" cy="331.83019476034804" r="3.5" fill="#7c3aed" fill-opacity="0.65" />
<circle cx="271.209654472802" cy="357.7337814816521" r="3.5" fill="#7c3aed" fill-opacity="0.65" />
<circle cx="347.0296784729009" cy="352.79340669459924" r="3.5" fill="#7c3aed" fill-opacity="0.65" />
<circle cx="284.33078074548763" cy="362.5005755329435" r="3.5" fill="#7c3aed" fill-opacity="0.65" />
<circle cx="277.03945170907923" cy="383.56393019936456" r="3.5" fill="#7c3aed" fill-opacity="0.65" />
<circle cx="303.8124280924869" cy="356.5120401491781" r="3.5" fill="#7c3aed" fill-opacity="0.65" />
<circle cx="151.64982123637623" cy="364.209678161978" r="3.5" fill="#7c3aed" fill-opacity="0.65" />
<circle cx="314.94946370912874" cy="403.97301901560854" r="3.5" fill="#7c3aed" fill-opacity="0.65" />
<circle cx="294.53700840003467" cy="398.08462636401305" r="3.5" fill="#7c3aed" fill-opacity="0.65" />
<circle cx="199.27616196355444" cy="405.3883696302777" r="3.5" fill="#7c3aed" fill-opacity="0.65" />
<circle cx="172.0622765454703" cy="395.707905520512" r="3.5" fill="#7c3aed" fill-opacity="0.65" />
<circle cx="195.38963047270295" cy="395.60776278834214" r="3.5" fill="#7c3aed" fill-opacity="0.65" />
<circle cx="274.1245530909406" cy="385.9406510428658" r="3.5" fill="#7c3aed" fill-opacity="0.65" />
<circle cx="190.20486682419312" cy="438.45549979280815" r="3.5" fill="#7c3aed" fill-opacity="0.65" />
<circle cx="117.6263407271782" cy="437.60094847829095" r="3.5" fill="#7c3aed" fill-opacity="0.65" />
<circle cx="196.55722291638318" cy="437.68106266402697" r="3.5" fill="#7c3aed" fill-opacity="0.65" />
<circle cx="124.4359358182921" cy="440.8322206363092" r="3.5" fill="#7c3aed" fill-opacity="0.65" />
<circle cx="323.11444583276636" cy="458.59086514112073" r="3.5" fill="#7c3aed" fill-opacity="0.65" />
<circle cx="212.8871871636584" cy="435.05732308117325" r="3.5" fill="#7c3aed" fill-opacity="0.65" />
<circle cx="216.96967822547722" cy="434.93047562042455" r="3.5" fill="#7c3aed" fill-opacity="0.65" />
<circle cx="151.64982123637623" cy="455.95377319397767" r="3.5" fill="#7c3aed" fill-opacity="0.65" />
<circle cx="131.23736592728218" cy="465" r="3.5" fill="#7c3aed" fill-opacity="0.65" />
<circle cx="265.0532579515793" cy="415.3492333901193" r="3.5" fill="#7c3aed" fill-opacity="0.65" />
<circle cx="70" cy="410.00161149224186" r="3.5" fill="#7c3aed" fill-opacity="0.65" />
<circle cx="312.03456509099016" cy="459.2985404484553" r="3.5" fill="#7c3aed" fill-opacity="0.65" />
<circle cx="151.64982123637623" cy="423.1069570422211" r="3.5" fill="#7c3aed" fill-opacity="0.65" />
<circle cx="230.3847438546139" cy="455.9003637368204" r="3.5" fill="#7c3aed" fill-opacity="0.65" />
<circle cx="326.2906238788615" cy="438.3219761499148" r="3.5" fill="#7c3aed" fill-opacity="0.65" />
<circle cx="309.8463498818552" cy="416.3506607118192" r="3.5" fill="#7c3aed" fill-opacity="0.65" />
<circle cx="553.0974973092673" cy="364.6369538192366" r="3.5" fill="#7c3aed" fill-opacity="0.65" />
<circle cx="434.50929694555447" cy="305.4726276532068" r="3.5" fill="#7c3aed" fill-opacity="0.65" />
  <text x="400" y="512" font-size="12" text-anchor="middle" fill="#475569">Actual average modal price in rupees per quintal</text>
  <text x="18" y="247.5" font-size="12" fill="#475569" transform="rotate(-90 18 247.5)">Predicted average modal price in rupees per quintal</text>
</svg>