<?xml version="1.0" encoding="UTF-8"?>
<svg xmlns="http://www.w3.org/2000/svg" width="1100" height="480" viewBox="0 0 1100 480">
  <rect width="100%" height="100%" fill="#ffffff" />
  <text x="70" y="22" font-size="20" font-weight="700" fill="#0f172a">Onion Distribution of Observed Modal Prices Across All Daily Market Records</text>
  <line x1="70" y1="425" x2="1070" y2="425" stroke="#e5e7eb" stroke-width="1" />
    <text x="60" y="429" font-size="12" text-anchor="end" fill="#475569">0</text>
<line x1="70" y1="346" x2="1070" y2="346" stroke="#e5e7eb" stroke-width="1" />
    <text x="60" y="350" font-size="12" text-anchor="end" fill="#475569">4230.16</text>
<line x1="70" y1="267" x2="1070" y2="267" stroke="#e5e7eb" stroke-width="1" />
    <text x="60" y="271" font-size="12" text-anchor="end" fill="#475569">8460.32</text>
<line x1="70" y1="188" x2="1070" y2="188" stroke="#e5e7eb" stroke-width="1" />
    <text x="60" y="192" font-size="12" text-anchor="end" fill="#475569">12690.48</text>
<line x1="70" y1="109" x2="1070" y2="109" stroke="#e5e7eb" stroke-width="1" />
    <text x="60" y="113" font-size="12" text-anchor="end" fill="#475569">16920.64</text>
<line x1="70" y1="30" x2="1070" y2="30" stroke="#e5e7eb" stroke-width="1" />
    <text x="60" y="34" font-size="12" text-anchor="end" fill="#475569">21150.8</text>
  <line x1="70" y1="425" x2="1070" y2="425" stroke="#475569" stroke-width="1.5" />
  <line x1="70" y1="30" x2="70" y2="425" stroke="#475569" stroke-width="1.5" />
  <rect x="75" y="65.90909090909099" width="45.55555555555556" height="359.090909090909" fill="#2563eb" rx="4" />
      <text x="97.77777777777777" y="443" font-size="9" text-anchor="end" fill="#475569" transform="rotate(-35 97.77777777777777 443)">6</text>
<rect x="130.55555555555554" y="415.47553756831894" width="45.55555555555556" height="9.524462431681059" fill="#2563eb" rx="4" />
      <text x="153.33333333333331" y="443" font-size="9" text-anchor="end" fill="#475569" transform="rotate(-35 153.33333333333331 443)">4172.33</text>
<rect x="186.11111111111111" y="424.7572195850748" width="45.55555555555556" height="0.24278041492522107" fill="#2563eb" rx="4" />
      <text x="208.88888888888889" y="443" font-size="9" text-anchor="end" fill="#475569" transform="rotate(-35 208.88888888888889 443)">8338.67</text>
<rect x="241.66666666666669" y="425" width="45.55555555555556" height="0" fill="#2563eb" rx="4" />
      <text x="264.44444444444446" y="443" font-size="9" text-anchor="end" fill="#475569" transform="rotate(-35 264.44444444444446 443)">12505</text>
<rect x="297.22222222222223" y="425" width="45.55555555555556" height="0" fill="#2563eb" rx="4" />
      <text x="320" y="443" font-size="9" text-anchor="end" fill="#475569" transform="rotate(-35 320 443)">16671.33</text>
<rect x="352.77777777777777" y="424.9813245834673" width="45.55555555555556" height="0.01867541653268745" fill="#2563eb" rx="4" />
      <text x="375.55555555555554" y="443" font-size="9" text-anchor="end" fill="#475569" transform="rotate(-35 375.55555555555554 443)">20837.67</text>
<rect x="408.33333333333337" y="425" width="45.55555555555556" height="0" fill="#2563eb" rx="4" />
      <text x="431.11111111111114" y="443" font-size="9" text-anchor="end" fill="#475569" transform="rotate(-35 431.11111111111114 443)">25004</text>
<rect x="463.8888888888889" y="425" width="45.55555555555556" height="0" fill="#2563eb" rx="4" />
      <text x="486.6666666666667" y="443" font-size="9" text-anchor="end" fill="#475569" transform="rotate(-35 486.6666666666667 443)">29170.33</text>
<rect x="519.4444444444445" y="425" width="45.55555555555556" height="0" fill="#2563eb" rx="4" />
      <text x="542.2222222222223" y="443" font-size="9" text-anchor="end" fill="#475569" transform="rotate(-35 542.2222222222223 443)">33336.67</text>
<rect x="575" y="424.9813245834673" width="45.55555555555556" height="0.01867541653268745" fill="#2563eb" rx="4" />
      <text x="597.7777777777778" y="443" font-size="9" text-anchor="end" fill="#475569" transform="rotate(-35 597.7777777777778 443)">37503</text>
<rect x="630.5555555555555" y="425" width="45.55555555555556" height="0" fill="#2563eb" rx="4" />
      <text x="653.3333333333334" y="443" font-size="9" text-anchor="end" fill="#475569" transform="rotate(-35 653.3333333333334 443)">41669.33</text>
<rect x="686.1111111111111" y="425" width="45.55555555555556" height="0" fill="#2563eb" rx="4" />
      <text x="708.8888888888889" y="443" font-size="9" text-anchor="end" fill="#475569" transform="rotate(-35 708.8888888888889 443)">45835.67</text>
<rect x="741.6666666666667" y="425" width="45.55555555555556" height="0" fill="#2563eb" rx="4" />
      <text x="764.4444444444446" y="443" font-size="9" text-anchor="end" fill="#475569" transform="rotate(-35 764.4444444444446 443)">50002</text>
<rect x="797.2222222222223" y="425" width="45.55555555555556" height="0" fill="#2563eb" rx="4" />
      <text x="820.0000000000001" y="443" font-size="9" text-anchor="end" fill="#475569" transform="rotate(-35 820.0000000000001 443)">54168.33</text>
<rect x="852.7777777777778" y="425" width="45.55555555555556" height="0" fill="#2563eb" rx="4" />
      <text x="875.5555555555557" y="443" font-size="9" text-anchor="end" fill="#475569" transform="rotate(-35 875.5555555555557 443)">58334.67</text>
<rect x="908.3333333333334" y="425" width="45.55555555555556" height="0" fill="#2563eb" rx="4" />
      <text x="931.1111111111112" y="443" font-size="9" text-anchor="end" fill="#475569" transform="rotate(-35 931.1111111111112 443)">62501</text>
<rect x="963.8888888888889" y="425" width="45.55555555555556" height="0" fill="#2563eb" rx="4" />
      <text x="986.6666666666667" y="443" font-size="9" text-anchor="end" fill="#475569" transform="rotate(-35 986.6666666666667 443)">66667.33</text>
<rect x="1019.4444444444445" y="424.9813245834673" width="45.55555555555556" height="0.01867541653268745" fill="#2563eb" rx="4" />
      <text x="1042.2222222222222" y="443" font-size="9" text-anchor="end" fill="#475569" transform="rotate(-35 1042.2222222222222 443)">70833.67</text>
  <text x="18" y="227.5" font-size="12" fill="#475569" transform="rotate(-90 18 227.5)">Frequency</text>
</svg>