<?xml version="1.0" encoding="UTF-8"?>
<svg xmlns="http://www.w3.org/2000/svg" width="1200" height="420" viewBox="0 0 1200 420">
  <rect width="100%" height="100%" fill="#ffffff" />
  <text x="70" y="22" font-size="20" font-weight="700" fill="#0f172a">Tomato Prediction Model Performance on the Holdout Test Period</text>
  <rect x="70" y="8" width="14" height="14" fill="#0f766e" /><text x="90" y="20" font-size="12" fill="#0f172a">Actual</text>
<rect x="250" y="8" width="14" height="14" fill="#dc2626" /><text x="270" y="20" font-size="12" fill="#0f172a">Predicted</text>
<rect x="430" y="8" width="14" height="14" fill="#2563eb" /><text x="450" y="20" font-size="12" fill="#0f172a">Lag-1 Baseline</text>
  <line x1="70" y1="365" x2="1170" y2="365" stroke="#e5e7eb" stroke-width="1" />
      <text x="60" y="369" font-size="12" text-anchor="end" fill="#475569">850</text>
<line x1="70" y1="298" x2="1170" y2="298" stroke="#e5e7eb" stroke-width="1" />
      <text x="60" y="302" font-size="12" text-anchor="end" fill="#475569">1230</text>
<line x1="70" y1="231" x2="1170" y2="231" stroke="#e5e7eb" stroke-width="1" />
      <text x="60" y="235" font-size="12" text-anchor="end" fill="#475569">1610</text>
<line x1="70" y1="164" x2="1170" y2="164" stroke="#e5e7eb" stroke-width="1" />
      <text x="60" y="168" font-size="12" text-anchor="end" fill="#475569">1990</text>
<line x1="70" y1="97" x2="1170" y2="97" stroke="#e5e7eb" stroke-width="1" />
      <text x="60" y="101" font-size="12" text-anchor="end" fill="#475569">2370</text>
<line x1="70" y1="30" x2="1170" y2="30" stroke="#e5e7eb" stroke-width="1" />
      <text x="60" y="34" font-size="12" text-anchor="end" fill="#475569">2750</text>
  <line x1="70" y1="365" x2="1170" y2="365" stroke="#475569" stroke-width="1.5" />
  <line x1="70" y1="30" x2="70" y2="365" stroke="#475569" stroke-width="1.5" />
  <path d="M 70 123.95163157894737 L 79.24369747899159 177.34886842105263 L 88.48739495798318 188.6842105263158 L 97.73109243697479 203.37660526315787 L 106.97478991596638 221.0081842105263 L 116.21848739495798 236.54160526315792 L 125.46218487394958 244.0985 L 134.70588235294116 213.66286842105265 L 143.94957983193277 240.47697368421052 L 153.19327731092437 216.23355263157893 L 162.43697478991595 216.39047368421055 L 171.68067226890756 191.2037631578947 L 180.92436974789916 259.2105263157895 L 190.16806722689074 218.91002631578948 L 199.41176470588235 199.26315789473685 L 208.65546218487393 212.1923947368421 L 217.89915966386553 204.55263157894737 L 227.14285714285714 236.28947368421055 L 236.38655462184872 234.2318684210526 L 245.63025210084032 200.43918421052635 L 254.8739495798319 174.8310789473684 L 264.11764705882354 168.53307894736844 L 273.3613445378151 169.79373684210523 L 282.6050420168067 30 L 291.8487394957983 134.32076315789473 L 301.0924369747899 109.34210526315789 L 310.3361344537815 124.03449999999998 L 319.5798319327731 164.75639473684208 L 328.8235294117647 144.6052631578947 L 338.0672268907563 148.38371052631578 L 347.31092436974785 106.0361842105263 L 356.5546218487395 69.67105263157896 L 365.79831932773106 54.24342105263156 L 375.04201680672264 67.0263157894737 L 384.2857142857143 87.93207894736844 L 393.52941176470586 112.28128947368421 L 402.77310924369743 145.1553684210526 L 412.01680672268907 123.66776315789471 L 421.26050420168065 160.7681315789474 L 430.5042016806722 129.17763157894737 L 439.7478991596638 120.67744736842104 L 448.99159663865544 153.42105263157896 L 458.235294117647 163.2436052631579 L 467.4789915966386 173.25657894736844 L 476.7226890756302 216.39047368421055 L 485.9663865546218 259.2105263157895 L 495.2100840336134 240.11023684210528 L 504.453781512605 200.01955263157893 L 513.6974789915967 222.68847368421052 L 522.9411764705882 194.98044736842107 L 532.1848739495798 222.8453947368421 L 541.4285714285713 253.70065789473682 L 550.672268907563 278.101 L 559.9159663865546 229.45723684210526 L 569.1596638655462 239.375 L 578.4033613445378 260.3125 L 587.6470588235294 245.3573947368421 L 596.8907563025209 265.82236842105266 L 606.1344537815125 285.6578947368421 L 615.3781512605042 282.13157894736844 L 624.6218487394957 302.03057894736844 L 633.8655462184873 300.3502894736842 L 643.109243697479 315.8837105263158 L 652.3529411764705 234.9671052631579 L 661.5966386554621 282.71871052631576 L 670.8403361344538 313.5739736842105 L 680.0840336134453 320.92105263157896 L 689.3277310924369 319.6621578947368 L 698.5714285714286 284.55592105263156 L 707.8151260504201 293.00497368421054 L 717.0588235294117 249.13584210526315 L 726.3025210084033 303.2647894736842 L 735.5462184873949 296.3620263157895 L 744.7899159663865 286.9167894736842 L 754.0336134453781 287.3099736842105 L 763.2773109243697 282.3519736842105 L 772.5210084033613 305.8090263157895 L 781.7647058823529 326.2105263157895 L 791.0084033613444 315.8837105263158 L 800.2521008403361 324.2269736842105 L 809.4957983193276 335.0263157894737 L 818.7394957983192 350.6743421052632 L 827.9831932773109 257.00657894736844 L 837.2268907563024 307.6973684210526 L 846.470588235294 300.7699210526316 L 855.7142857142857 324.2269736842105 L 864.9579831932772 360.5921052631579 L 874.2016806722688 365 L 883.4453781512605 349.0205 L 892.689075630252 328.6348684210526 L 901.9327731092436 347.36842105263156 L 911.1764705882352 353.24502631578946 L 920.4201680672268 339.8115263157895 L 929.6638655462184 337.29373684210526 L 938.90756302521 350.3076052631579 L 948.1512605042016 336.3486842105263 L 957.3949579831932 322.3897631578947 L 966.6386554621848 362.0608157894737 L 975.8823529411764 338.5526315789474 L 985.126050420168 345.60526315789474 L 994.3697478991596 351.7763157894737 L 1003.6134453781511 351.1468684210526 L 1012.8571428571428 347.36842105263156 L 1022.1008403361344 346.1095263157895 L 1031.344537815126 356.1842105263158 L 1040.5882352941176 305.0526315789474 L 1049.8319327731092 319.1578947368421 L 1059.0756302521008 329.7368421052632 L 1068.3193277310925 336.3486842105263 L 1077.563025210084 328.47794736842104 L 1086.8067226890755 341.0721842105263 L 1096.0504201680671 354.7155 L 1105.2941176470588 344.4292368421053 L 1114.5378151260504 329.7368421052632 L 1123.7815126050418 342.9605263157895 L 1133.0252100840335 350.3076052631579 L 1142.268907563025 309.5857105263158 L 1151.5126050420167 314.3092105263158 L 1160.7563025210084 300.3502894736842 L 1170 325.32894736842104" fill="none" stroke="#0f766e" stroke-width="3" />
<path d="M 70 158.31381578947367 L 79.24369747899159 148.18976315789473 L 88.48739495798318 184.8951842105263 L 97.73109243697479 181.42176315789473 L 106.97478991596638 192.63368421052635 L 116.21848739495798 199.61755263157895 L 125.46218487394958 222.43634210526318 L 134.70588235294116 239.66944736842106 L 143.94957983193277 223.09928947368422 L 153.19327731092437 240.16842105263157 L 162.43697478991595 226.65205263157893 L 171.68067226890756 230.4975 L 180.92436974789916 214.01726315789475 L 190.16806722689074 252.73444736842106 L 199.41176470588235 234.24068421052633 L 208.65546218487393 216.1736052631579 L 217.89915966386553 222.51392105263156 L 227.14285714285714 214.41926315789476 L 236.38655462184872 238.6803157894737 L 245.63025210084032 228.7660789473684 L 254.8739495798319 214.11952631578947 L 264.11764705882354 200.9998684210526 L 273.3613445378151 189.19376315789475 L 282.6050420168067 185.72034210526317 L 291.8487394957983 92.45810526315785 L 301.0924369747899 142.75571052631582 L 310.3361344537815 121.53434210526319 L 319.5798319327731 128.3083947368421 L 328.8235294117647 147.6678684210526 L 338.0672268907563 134.90260526315785 L 347.31092436974785 154.0081842105263 L 356.5546218487395 116.81613157894733 L 365.79831932773106 104.10905263157895 L 375.04201680672264 93.51423684210528 L 384.2857142857143 86.42810526315787 L 393.52941176470586 91.0563947368421 L 402.77310924369743 96.05142105263155 L 412.01680672268907 126.13971052631578 L 421.26050420168065 118.17552631578945 L 430.5042016806722 155.9071052631579 L 439.7478991596638 143.70605263157896 L 448.99159663865544 139.48681578947367 L 458.235294117647 157.2382894736842 L 467.4789915966386 159.26239473684214 L 476.7226890756302 171.5604210526316 L 485.9663865546218 197.4717894736842 L 495.2100840336134 240.6056842105263 L 504.453781512605 243.0458947368421 L 513.6974789915967 220.8477368421053 L 522.9411764705882 233.6465 L 532.1848739495798 218.28586842105264 L 541.4285714285713 232.44050000000001 L 550.672268907563 242.10436842105264 L 559.9159663865546 266.7991578947368 L 569.1596638655462 244.38589473684215 L 578.4033613445378 250.1919736842105 L 587.6470588235294 262.53936842105264 L 596.8907563025209 254.5505 L 606.1344537815125 264.04334210526315 L 615.3781512605042 269.62726315789473 L 624.6218487394957 276.75394736842105 L 633.8655462184873 299.47223684210525 L 643.109243697479 300.3220789473684 L 652.3529411764705 318.2322368421053 L 661.5966386554621 267.1570789473684 L 670.8403361344538 285.7442894736842 L 680.0840336134453 304.0529210526316 L 689.3277310924369 317.2413421052632 L 698.5714285714286 316.18344736842107 L 707.8151260504201 290.73226315789475 L 717.0588235294117 305.8425263157895 L 726.3025210084033 273.8429736842105 L 735.5462184873949 298.7951842105263 L 744.7899159663865 291.9541315789474 L 754.0336134453781 291.0513947368421 L 763.2773109243697 293.64852631578947 L 772.5210084033613 284.33376315789474 L 781.7647058823529 304.66473684210524 L 791.0084033613444 311.45465789473684 L 800.2521008403361 311.77202631578945 L 809.4957983193276 316.61365789473683 L 818.7394957983192 328.7582894736842 L 827.9831932773109 344.8806052631579 L 837.2268907563024 291.4322368421052 L 846.470588235294 313.03973684210524 L 855.7142857142857 306.77523684210524 L 864.9579831932772 316.22576315789473 L 874.2016806722688 336.4773947368421 L 883.4453781512605 345.51534210526313 L 892.689075630252 351.29321052631576 L 901.9327731092436 335.4953157894737 L 911.1764705882352 351.20857894736844 L 920.4201680672268 347.7845263157895 L 929.6638655462184 338.9440526315789 L 938.90756302521 334.86586842105265 L 948.1512605042016 347.97142105263157 L 957.3949579831932 346.04957894736845 L 966.6386554621848 332.5473157894737 L 975.8823529411764 353.20447368421054 L 985.126050420168 338.5931842105263 L 994.3697478991596 345.03576315789473 L 1003.6134453781511 341.7316052631579 L 1012.8571428571428 340.72307894736844 L 1022.1008403361344 350.1401052631579 L 1031.344537815126 339.3830789473684 L 1040.5882352941176 355.4560263157895 L 1049.8319327731092 324.8987368421053 L 1059.0756302521008 325.9337105263158 L 1068.3193277310925 330.6836578947368 L 1077.563025210084 328.8393947368421 L 1086.8067226890755 325.2866315789474 L 1096.0504201680671 323.8831578947368 L 1105.2941176470588 340.52736842105264 L 1114.5378151260504 338.4450789473684 L 1123.7815126050418 331.21084210526317 L 1133.0252100840335 335.8655789473684 L 1142.268907563025 340.3528157894737 L 1151.5126050420167 312.1846052631579 L 1160.7563025210084 308.3938157894737 L 1170 305.1037631578947" fill="none" stroke="#dc2626" stroke-width="3" />
<path d="M 70 143.34636842105266 L 79.24369747899159 123.95163157894737 L 88.48739495798318 177.34886842105263 L 97.73109243697479 188.6842105263158 L 106.97478991596638 203.37660526315787 L 116.21848739495798 221.0081842105263 L 125.46218487394958 236.54160526315792 L 134.70588235294116 244.0985 L 143.94957983193277 213.66286842105265 L 153.19327731092437 240.47697368421052 L 162.43697478991595 216.23355263157893 L 171.68067226890756 216.39047368421055 L 180.92436974789916 191.2037631578947 L 190.16806722689074 259.2105263157895 L 199.41176470588235 218.91002631578948 L 208.65546218487393 199.26315789473685 L 217.89915966386553 212.1923947368421 L 227.14285714285714 204.55263157894737 L 236.38655462184872 236.28947368421055 L 245.63025210084032 234.2318684210526 L 254.8739495798319 200.43918421052635 L 264.11764705882354 174.8310789473684 L 273.3613445378151 168.53307894736844 L 282.6050420168067 169.79373684210523 L 291.8487394957983 30 L 301.0924369747899 134.32076315789473 L 310.3361344537815 109.34210526315789 L 319.5798319327731 124.03449999999998 L 328.8235294117647 164.75639473684208 L 338.0672268907563 144.6052631578947 L 347.31092436974785 148.38371052631578 L 356.5546218487395 106.0361842105263 L 365.79831932773106 69.67105263157896 L 375.04201680672264 54.24342105263156 L 384.2857142857143 67.0263157894737 L 393.52941176470586 87.93207894736844 L 402.77310924369743 112.28128947368421 L 412.01680672268907 145.1553684210526 L 421.26050420168065 123.66776315789471 L 430.5042016806722 160.7681315789474 L 439.7478991596638 129.17763157894737 L 448.99159663865544 120.67744736842104 L 458.235294117647 153.42105263157896 L 467.4789915966386 163.2436052631579 L 476.7226890756302 173.25657894736844 L 485.9663865546218 216.39047368421055 L 495.2100840336134 259.2105263157895 L 504.453781512605 240.11023684210528 L 513.6974789915967 200.01955263157893 L 522.9411764705882 222.68847368421052 L 532.1848739495798 194.98044736842107 L 541.4285714285713 222.8453947368421 L 550.672268907563 253.70065789473682 L 559.9159663865546 278.101 L 569.1596638655462 229.45723684210526 L 578.4033613445378 239.375 L 587.6470588235294 260.3125 L 596.8907563025209 245.3573947368421 L 606.1344537815125 265.82236842105266 L 615.3781512605042 285.6578947368421 L 624.6218487394957 282.13157894736844 L 633.8655462184873 302.03057894736844 L 643.109243697479 300.3502894736842 L 652.3529411764705 315.8837105263158 L 661.5966386554621 234.9671052631579 L 670.8403361344538 282.71871052631576 L 680.0840336134453 313.5739736842105 L 689.3277310924369 320.92105263157896 L 698.5714285714286 319.6621578947368 L 707.8151260504201 284.55592105263156 L 717.0588235294117 293.00497368421054 L 726.3025210084033 249.13584210526315 L 735.5462184873949 303.2647894736842 L 744.7899159663865 296.3620263157895 L 754.0336134453781 286.9167894736842 L 763.2773109243697 287.3099736842105 L 772.5210084033613 282.3519736842105 L 781.7647058823529 305.8090263157895 L 791.0084033613444 326.2105263157895 L 800.2521008403361 315.8837105263158 L 809.4957983193276 324.2269736842105 L 818.7394957983192 335.0263157894737 L 827.9831932773109 350.6743421052632 L 837.2268907563024 257.00657894736844 L 846.470588235294 307.6973684210526 L 855.7142857142857 300.7699210526316 L 864.9579831932772 324.2269736842105 L 874.2016806722688 360.5921052631579 L 883.4453781512605 365 L 892.689075630252 349.0205 L 901.9327731092436 328.6348684210526 L 911.1764705882352 347.36842105263156 L 920.4201680672268 353.24502631578946 L 929.6638655462184 339.8115263157895 L 938.90756302521 337.29373684210526 L 948.1512605042016 350.3076052631579 L 957.3949579831932 336.3486842105263 L 966.6386554621848 322.3897631578947 L 975.8823529411764 362.0608157894737 L 985.126050420168 338.5526315789474 L 994.3697478991596 345.60526315789474 L 1003.6134453781511 351.7763157894737 L 1012.8571428571428 351.1468684210526 L 1022.1008403361344 347.36842105263156 L 1031.344537815126 346.1095263157895 L 1040.5882352941176 356.1842105263158 L 1049.8319327731092 305.0526315789474 L 1059.0756302521008 319.1578947368421 L 1068.3193277310925 329.7368421052632 L 1077.563025210084 336.3486842105263 L 1086.8067226890755 328.47794736842104 L 1096.0504201680671 341.0721842105263 L 1105.2941176470588 354.7155 L 1114.5378151260504 344.4292368421053 L 1123.7815126050418 329.7368421052632 L 1133.0252100840335 342.9605263157895 L 1142.268907563025 350.3076052631579 L 1151.5126050420167 309.5857105263158 L 1160.7563025210084 314.3092105263158 L 1170 300.3502894736842" fill="none" stroke="#2563eb" stroke-width="3" />
  <text x="70" y="385" font-size="11" text-anchor="middle" fill="#475569">2024-01-03</text>
<text x="162.43697478991595" y="385" font-size="11" text-anchor="middle" fill="#475569">2024-01-13</text>
<text x="254.8739495798319" y="385" font-size="11" text-anchor="middle" fill="#475569">2024-01-23</text>
<text x="347.31092436974785" y="385" font-size="11" text-anchor="middle" fill="#475569">2024-02-02</text>
<text x="439.7478991596638" y="385" font-size="11" text-anchor="middle" fill="#475569">2024-02-12</text>
<text x="532.1848739495798" y="385" font-size="11" text-anchor="middle" fill="#475569">2024-02-22</text>
<text x="624.6218487394957" y="385" font-size="11" text-anchor="middle" fill="#475569">2024-03-03</text>
<text x="717.0588235294117" y="385" font-size="11" text-anchor="middle" fill="#475569">2024-03-13</text>
<text x="809.4957983193276" y="385" font-size="11" text-anchor="middle" fill="#475569">2024-03-23</text>
<text x="901.9327731092436" y="385" font-size="11" text-anchor="middle" fill="#475569">2024-04-02</text>
<text x="994.3697478991596" y="385" font-size="11" text-anchor="middle" fill="#475569">2024-04-14</text>
<text x="1086.8067226890755" y="385" font-size="11" text-anchor="middle" fill="#475569">2024-04-26</text>
<text x="1170" y="385" font-size="11" text-anchor="middle" fill="#475569">2024-05-05</text>
  <text x="18" y="197.5" font-size="12" fill="#475569" transform="rotate(-90 18 197.5)">Price</text>
</svg>