<?xml version="1.0" encoding="UTF-8"?>
<svg xmlns="http://www.w3.org/2000/svg" width="1100" height="480" viewBox="0 0 1100 480">
  <rect width="100%" height="100%" fill="#ffffff" />
  <text x="70" y="22" font-size="20" font-weight="700" fill="#0f172a">Tomato Distribution of Observed Modal Prices Across All Daily Market Records</text>
  <line x1="70" y1="425" x2="1070" y2="425" stroke="#e5e7eb" stroke-width="1" />
    <text x="60" y="429" font-size="12" text-anchor="end" fill="#475569">0</text>
<line x1="70" y1="346" x2="1070" y2="346" stroke="#e5e7eb" stroke-width="1" />
    <text x="60" y="350" font-size="12" text-anchor="end" fill="#475569">1842.06</text>
<line x1="70" y1="267" x2="1070" y2="267" stroke="#e5e7eb" stroke-width="1" />
    <text x="60" y="271" font-size="12" text-anchor="end" fill="#475569">3684.12</text>
<line x1="70" y1="188" x2="1070" y2="188" stroke="#e5e7eb" stroke-width="1" />
    <text x="60" y="192" font-size="12" text-anchor="end" fill="#475569">5526.18</text>
<line x1="70" y1="109" x2="1070" y2="109" stroke="#e5e7eb" stroke-width="1" />
    <text x="60" y="113" font-size="12" text-anchor="end" fill="#475569">7368.24</text>
<line x1="70" y1="30" x2="1070" y2="30" stroke="#e5e7eb" stroke-width="1" />
    <text x="60" y="34" font-size="12" text-anchor="end" fill="#475569">9210.3</text>
  <line x1="70" y1="425" x2="1070" y2="425" stroke="#475569" stroke-width="1.5" />
  <line x1="70" y1="30" x2="70" y2="425" stroke="#475569" stroke-width="1.5" />
  <rect x="75" y="235.6120321813622" width="45.55555555555556" height="189.3879678186378" fill="#2563eb" rx="4" />
      <text x="97.77777777777777" y="443" font-size="9" text-anchor="end" fill="#475569" transform="rotate(-35 97.77777777777777 443)">10</text>
<rect x="130.55555555555554" y="65.90909090909099" width="45.55555555555556" height="359.090909090909" fill="#2563eb" rx="4" />
      <text x="153.33333333333331" y="443" font-size="9" text-anchor="end" fill="#475569" transform="rotate(-35 153.33333333333331 443)">842.78</text>
<rect x="186.11111111111111" y="278.5416870243098" width="45.55555555555556" height="146.4583129756902" fill="#2563eb" rx="4" />
      <text x="208.88888888888889" y="443" font-size="9" text-anchor="end" fill="#475569" transform="rotate(-35 208.88888888888889 443)">1675.56</text>
<rect x="241.66666666666669" y="377.78166834956517" width="45.55555555555556" height="47.218331650434834" fill="#2563eb" rx="4" />
      <text x="264.44444444444446" y="443" font-size="9" text-anchor="end" fill="#475569" transform="rotate(-35 264.44444444444446 443)">2508.33</text>
<rect x="297.22222222222223" y="390.69058554010184" width="45.55555555555556" height="34.309414459898164" fill="#2563eb" rx="4" />
      <text x="320" y="443" font-size="9" text-anchor="end" fill="#475569" transform="rotate(-35 320 443)">3341.11</text>
<rect x="352.77777777777777" y="410.16117824609404" width="45.55555555555556" height="14.838821753905961" fill="#2563eb" rx="4" />
      <text x="375.55555555555554" y="443" font-size="9" text-anchor="end" fill="#475569" transform="rotate(-35 375.55555555555554 443)">4173.89</text>
<rect x="408.33333333333337" y="422.12658653898353" width="45.55555555555556" height="2.8734134610164688" fill="#2563eb" rx="4" />
      <text x="431.11111111111114" y="443" font-size="9" text-anchor="end" fill="#475569" transform="rotate(-35 431.11111111111114 443)">5006.67</text>
<rect x="463.8888888888889" y="421.26885117748606" width="45.55555555555556" height="3.731148822513944" fill="#2563eb" rx="4" />
      <text x="486.6666666666667" y="443" font-size="9" text-anchor="end" fill="#475569" transform="rotate(-35 486.6666666666667 443)">5839.44</text>
<rect x="519.4444444444445" y="421.8692659305343" width="45.55555555555556" height="3.1307340694656887" fill="#2563eb" rx="4" />
      <text x="542.2222222222223" y="443" font-size="9" text-anchor="end" fill="#475569" transform="rotate(-35 542.2222222222223 443)">6672.22</text>
<rect x="575" y="423.8420572619784" width="45.55555555555556" height="1.1579427380215748" fill="#2563eb" rx="4" />
      <text x="597.7777777777778" y="443" font-size="9" text-anchor="end" fill="#475569" transform="rotate(-35 597.7777777777778 443)">7505</text>
<rect x="630.5555555555555" y="423.5418498854543" width="45.55555555555556" height="1.4581501145456741" fill="#2563eb" rx="4" />
      <text x="653.3333333333334" y="443" font-size="9" text-anchor="end" fill="#475569" transform="rotate(-35 653.3333333333334 443)">8337.78</text>
<rect x="686.1111111111111" y="424.4853587831015" width="45.55555555555556" height="0.5146412168984966" fill="#2563eb" rx="4" />
      <text x="708.8888888888889" y="443" font-size="9" text-anchor="end" fill="#475569" transform="rotate(-35 708.8888888888889 443)">9170.56</text>
<rect x="741.6666666666667" y="424.7426793915508" width="45.55555555555556" height="0.2573206084492199" fill="#2563eb" rx="4" />
      <text x="764.4444444444446" y="443" font-size="9" text-anchor="end" fill="#475569" transform="rotate(-35 764.4444444444446 443)">10003.33</text>
<rect x="797.2222222222223" y="424.9571132319251" width="45.55555555555556" height="0.042886768074879456" fill="#2563eb" rx="4" />
      <text x="820.0000000000001" y="443" font-size="9" text-anchor="end" fill="#475569" transform="rotate(-35 820.0000000000001 443)">10836.11</text>
<rect x="852.7777777777778" y="425" width="45.55555555555556" height="0" fill="#2563eb" rx="4" />
      <text x="875.5555555555557" y="443" font-size="9" text-anchor="end" fill="#475569" transform="rotate(-35 875.5555555555557 443)">11668.89</text>
<rect x="908.3333333333334" y="424.9571132319251" width="45.55555555555556" height="0.042886768074879456" fill="#2563eb" rx="4" />
      <text x="931.1111111111112" y="443" font-size="9" text-anchor="end" fill="#475569" transform="rotate(-35 931.1111111111112 443)">12501.67</text>
<rect x="963.8888888888889" y="425" width="45.55555555555556" height="0" fill="#2563eb" rx="4" />
      <text x="986.6666666666667" y="443" font-size="9" text-anchor="end" fill="#475569" transform="rotate(-35 986.6666666666667 443)">13334.44</text>
<rect x="1019.4444444444445" y="424.9571132319251" width="45.55555555555556" height="0.042886768074879456" fill="#2563eb" rx="4" />
      <text x="1042.2222222222222" y="443" font-size="9" text-anchor="end" fill="#475569" transform="rotate(-35 1042.2222222222222 443)">14167.22</text>
  <text x="18" y="227.5" font-size="12" fill="#475569" transform="rotate(-90 18 227.5)">Frequency</text>
</svg>