<?xml version="1.0" encoding="UTF-8"?>
<svg xmlns="http://www.w3.org/2000/svg" width="760" height="520" viewBox="0 0 760 520">
  <rect width="100%" height="100%" fill="#ffffff" />
  <text x="70" y="22" font-size="20" font-weight="700" fill="#0f172a">Tomato Diagnostic Scatter Plot of Actual Prices Versus Model Predictions</text>
  <line x1="70" y1="465" x2="730" y2="465" stroke="#475569" stroke-width="1.5" />
  <line x1="70" y1="30" x2="70" y2="465" stroke="#475569" stroke-width="1.5" />
  <line x1="88.80305263157895" y1="465" x2="618.8282105263158" y2="30" stroke="#dc2626" stroke-width="2" stroke-dasharray="6 4" />
  <circle cx="544.9012631578947" cy="146.23434458622518" r="3.5" fill="#7c3aed" fill-opacity="0.65" />
<circle cx="439.70073684210524" cy="129.8644344389611" r="3.5" fill="#7c3aed" fill-opacity="0.65" />
<circle cx="417.36842105263156" cy="189.21462417176224" r="3.5" fill="#7c3aed" fill-opacity="0.65" />
<circle cx="388.42221052631584" cy="183.59833664300737" r="3.5" fill="#7c3aed" fill-opacity="0.65" />
<circle cx="353.68536842105266" cy="201.72725664064802" r="3.5" fill="#7c3aed" fill-opacity="0.65" />
<circle cx="323.08221052631575" cy="213.0197007530328" r="3.5" fill="#7c3aed" fill-opacity="0.65" />
<circle cx="308.19399999999996" cy="249.91614400031457" r="3.5" fill="#7c3aed" fill-opacity="0.65" />
<circle cx="368.15673684210526" cy="277.7809126835886" r="3.5" fill="#7c3aed" fill-opacity="0.65" />
<circle cx="315.32894736842104" cy="250.9880851733155" r="3.5" fill="#7c3aed" fill-opacity="0.65" />
<circle cx="363.0921052631579" cy="278.5877194707143" r="3.5" fill="#7c3aed" fill-opacity="0.65" />
<circle cx="362.782947368421" cy="256.7326635339454" r="3.5" fill="#7c3aed" fill-opacity="0.65" />
<circle cx="412.4045263157895" cy="262.95049251882585" r="3.5" fill="#7c3aed" fill-opacity="0.65" />
<circle cx="278.42105263157896" cy="236.30306128467785" r="3.5" fill="#7c3aed" fill-opacity="0.65" />
<circle cx="357.8190526315789" cy="298.9061363323568" r="3.5" fill="#7c3aed" fill-opacity="0.65" />
<circle cx="396.5263157894737" cy="269.00296887595607" r="3.5" fill="#7c3aed" fill-opacity="0.65" />
<circle cx="371.0537894736843" cy="239.78972100430587" r="3.5" fill="#7c3aed" fill-opacity="0.65" />
<circle cx="386.10526315789474" cy="250.04158392481463" r="3.5" fill="#7c3aed" fill-opacity="0.65" />
<circle cx="323.57894736842104" cy="236.95306816617838" r="3.5" fill="#7c3aed" fill-opacity="0.65" />
<circle cx="327.63273684210526" cy="276.1815536462122" r="3.5" fill="#7c3aed" fill-opacity="0.65" />
<circle cx="394.2093684210526" cy="260.1509014765734" r="3.5" fill="#7c3aed" fill-opacity="0.65" />
<circle cx="444.66115789473685" cy="236.468413912428" r="3.5" fill="#7c3aed" fill-opacity="0.65" />
<circle cx="457.0691578947368" cy="215.25481213503465" r="3.5" fill="#7c3aed" fill-opacity="0.65" />
<circle cx="454.58547368421057" cy="196.1651363520183" r="3.5" fill="#7c3aed" fill-opacity="0.65" />
<circle cx="730" cy="190.54884882326343" r="3.5" fill="#7c3aed" fill-opacity="0.65" />
<circle cx="524.4725263157895" cy="39.75010322250836" r="3.5" fill="#7c3aed" fill-opacity="0.65" />
<circle cx="573.6842105263158" cy="121.07793790920363" r="3.5" fill="#7c3aed" fill-opacity="0.65" />
<circle cx="544.738" cy="86.76441674367396" r="3.5" fill="#7c3aed" fill-opacity="0.65" />
<circle cx="464.50978947368424" cy="97.71760287843341" r="3.5" fill="#7c3aed" fill-opacity="0.65" />
<circle cx="504.2105263157895" cy="129.02056585596034" r="3.5" fill="#7c3aed" fill-opacity="0.65" />
<circle cx="496.7664210526316" cy="108.3799964609425" r="3.5" fill="#7c3aed" fill-opacity="0.65" />
<circle cx="580.1973684210526" cy="139.2724287764692" r="3.5" fill="#7c3aed" fill-opacity="0.65" />
<circle cx="651.8421052631579" cy="79.13538860816737" r="3.5" fill="#7c3aed" fill-opacity="0.65" />
<circle cx="682.2368421052632" cy="58.58889915652469" r="3.5" fill="#7c3aed" fill-opacity="0.65" />
<circle cx="657.0526315789474" cy="41.45779674013494" r="3.5" fill="#7c3aed" fill-opacity="0.65" />
<circle cx="615.8651578947367" cy="30" r="3.5" fill="#7c3aed" fill-opacity="0.65" />
<circle cx="567.8935789473684" cy="37.48363185938149" r="3.5" fill="#7c3aed" fill-opacity="0.65" />
<circle cx="503.1267368421053" cy="45.56025245276339" r="3.5" fill="#7c3aed" fill-opacity="0.65" />
<circle cx="545.4605263157895" cy="94.2109868071804" r="3.5" fill="#7c3aed" fill-opacity="0.65" />
<circle cx="472.36726315789474" cy="81.33343819429427" r="3.5" fill="#7c3aed" fill-opacity="0.65" />
<circle cx="534.6052631578948" cy="142.3428560193468" r="3.5" fill="#7c3aed" fill-opacity="0.65" />
<circle cx="551.3518947368422" cy="122.61457698432991" r="3.5" fill="#7c3aed" fill-opacity="0.65" />
<circle cx="486.84210526315786" cy="115.79235563594892" r="3.5" fill="#7c3aed" fill-opacity="0.65" />
<circle cx="467.49021052631576" cy="144.4952910874738" r="3.5" fill="#7c3aed" fill-opacity="0.65" />
<circle cx="447.7631578947368" cy="147.76813275397654" r="3.5" fill="#7c3aed" fill-opacity="0.65" />
<circle cx="362.782947368421" cy="167.65321169461873" r="3.5" fill="#7c3aed" fill-opacity="0.65" />
<circle cx="278.42105263157896" cy="209.55014647765475" r="3.5" fill="#7c3aed" fill-opacity="0.65" />
<circle cx="316.05147368421046" cy="279.2947444997149" r="3.5" fill="#7c3aed" fill-opacity="0.65" />
<circle cx="395.03610526315794" cy="283.24040030671824" r="3.5" fill="#7c3aed" fill-opacity="0.65" />
<circle cx="350.3749473684211" cy="247.34747645543737" r="3.5" fill="#7c3aed" fill-opacity="0.65" />
<circle cx="404.96389473684206" cy="268.04221309058016" r="3.5" fill="#7c3aed" fill-opacity="0.65" />
<circle cx="350.0657894736842" cy="243.2051080395588" r="3.5" fill="#7c3aed" fill-opacity="0.65" />
<circle cx="289.2763157894737" cy="266.09219244607857" r="3.5" fill="#7c3aed" fill-opacity="0.65" />
<circle cx="241.20399999999998" cy="281.718015768467" r="3.5" fill="#7c3aed" fill-opacity="0.65" />
<circle cx="337.0394736842105" cy="321.6478244627514" r="3.5" fill="#7c3aed" fill-opacity="0.65" />
<circle cx="317.5" cy="285.40708991172016" r="3.5" fill="#7c3aed" fill-opacity="0.65" />
<circle cx="276.25" cy="294.79512789760327" r="3.5" fill="#7c3aed" fill-opacity="0.65" />
<circle cx="305.7137894736842" cy="314.7600322447455" r="3.5" fill="#7c3aed" fill-opacity="0.65" />
<circle cx="265.39473684210526" cy="301.84257092860935" r="3.5" fill="#7c3aed" fill-opacity="0.65" />
<circle cx="226.3157894736842" cy="317.1918562356226" r="3.5" fill="#7c3aed" fill-opacity="0.65" />
<circle cx="233.26315789473685" cy="326.22067989225536" r="3.5" fill="#7c3aed" fill-opacity="0.65" />
<circle cx="194.05915789473687" cy="337.7440475020153" r="3.5" fill="#7c3aed" fill-opacity="0.65" />
<circle cx="197.36957894736844" cy="374.4779890289219" r="3.5" fill="#7c3aed" fill-opacity="0.65" />
<circle cx="166.76642105263156" cy="375.8521263836732" r="3.5" fill="#7c3aed" fill-opacity="0.65" />
<circle cx="326.1842105263158" cy="404.8116434989481" r="3.5" fill="#7c3aed" fill-opacity="0.65" />
<circle cx="232.10642105263162" cy="322.2265586598769" r="3.5" fill="#7c3aed" fill-opacity="0.65" />
<circle cx="171.3169473684211" cy="352.2808242071528" r="3.5" fill="#7c3aed" fill-opacity="0.65" />
<circle cx="156.8421052631579" cy="381.88464638917833" r="3.5" fill="#7c3aed" fill-opacity="0.65" />
<circle cx="159.3223157894737" cy="403.2094335541968" r="3.5" fill="#7c3aed" fill-opacity="0.65" />
<circle cx="228.48684210526315" cy="401.4988891291953" r="3.5" fill="#7c3aed" fill-opacity="0.65" />
<circle cx="211.84094736842104" cy="360.34604117103476" r="3.5" fill="#7c3aed" fill-opacity="0.65" />
<circle cx="298.26968421052635" cy="384.77831737480585" r="3.5" fill="#7c3aed" fill-opacity="0.65" />
<circle cx="191.62757894736848" cy="333.03719942588623" r="3.5" fill="#7c3aed" fill-opacity="0.65" />
<circle cx="205.22705263157894" cy="373.38324059692104" r="3.5" fill="#7c3aed" fill-opacity="0.65" />
<circle cx="223.8355789473684" cy="362.3217199819115" r="3.5" fill="#7c3aed" fill-opacity="0.65" />
<circle cx="223.0609473684211" cy="360.8620554059102" r="3.5" fill="#7c3aed" fill-opacity="0.65" />
<circle cx="232.82894736842104" cy="365.0614419692888" r="3.5" fill="#7c3aed" fill-opacity="0.65" />
<circle cx="186.61505263157895" cy="350.00009830715084" r="3.5" fill="#7c3aed" fill-opacity="0.65" />
<circle cx="146.42105263157896" cy="382.8739112483042" r="3.5" fill="#7c3aed" fill-opacity="0.65" />
<circle cx="166.76642105263156" cy="393.85275554943865" r="3.5" fill="#7c3aed" fill-opacity="0.65" />
<circle cx="150.32894736842104" cy="394.3659188769391" r="3.5" fill="#7c3aed" fill-opacity="0.65" />
<circle cx="129.05263157894737" cy="402.19451052869584" r="3.5" fill="#7c3aed" fill-opacity="0.65" />
<circle cx="98.22368421052632" cy="421.8315605277128" r="3.5" fill="#7c3aed" fill-opacity="0.65" />
<circle cx="282.7631578947369" cy="447.9002575647352" r="3.5" fill="#7c3aed" fill-opacity="0.65" />
<circle cx="182.89473684210526" cy="361.47785139891073" r="3.5" fill="#7c3aed" fill-opacity="0.65" />
<circle cx="196.54284210526313" cy="396.41572127956584" r="3.5" fill="#7c3aed" fill-opacity="0.65" />
<circle cx="150.32894736842104" cy="386.28644737618214" r="3.5" fill="#7c3aed" fill-opacity="0.65" />
<circle cx="78.6842105263158" cy="401.5673109061953" r="3.5" fill="#7c3aed" fill-opacity="0.65" />
<circle cx="70" cy="434.31283301547353" r="3.5" fill="#7c3aed" fill-opacity="0.65" />
<circle cx="101.482" cy="448.9265842197361" r="3.5" fill="#7c3aed" fill-opacity="0.65" />
<circle cx="141.64473684210526" cy="458.2690076876192" r="3.5" fill="#7c3aed" fill-opacity="0.65" />
<circle cx="104.73684210526315" cy="432.72487760759714" r="3.5" fill="#7c3aed" fill-opacity="0.65" />
<circle cx="93.15905263157893" cy="458.1321641336191" r="3.5" fill="#7c3aed" fill-opacity="0.65" />
<circle cx="119.62505263157894" cy="452.5957020113643" r="3.5" fill="#7c3aed" fill-opacity="0.65" />
<circle cx="124.58547368421051" cy="438.301252433102" r="3.5" fill="#7c3aed" fill-opacity="0.65" />
<circle cx="98.94621052631581" cy="431.70710367472134" r="3.5" fill="#7c3aed" fill-opacity="0.65" />
<circle cx="126.44736842105263" cy="452.89789819311454" r="3.5" fill="#7c3aed" fill-opacity="0.65" />
<circle cx="153.9485263157895" cy="449.7904091543619" r="3.5" fill="#7c3aed" fill-opacity="0.65" />
<circle cx="75.79063157894736" cy="427.9581604765931" r="3.5" fill="#7c3aed" fill-opacity="0.65" />
<circle cx="122.10526315789474" cy="461.35939128212186" r="3.5" fill="#7c3aed" fill-opacity="0.65" />
<circle cx="108.21052631578948" cy="437.7339218654765" r="3.5" fill="#7c3aed" fill-opacity="0.65" />
<circle cx="96.05263157894737" cy="448.15113741373546" r="3.5" fill="#7c3aed" fill-opacity="0.65" />
<circle cx="97.29273684210528" cy="442.80853699298086" r="3.5" fill="#7c3aed" fill-opacity="0.65" />
<circle cx="104.73684210526315" cy="441.17781797447947" r="3.5" fill="#7c3aed" fill-opacity="0.65" />
<circle cx="107.21705263157895" cy="456.4045142643676" r="3.5" fill="#7c3aed" fill-opacity="0.65" />
<circle cx="87.36842105263158" cy="439.0111283694776" r="3.5" fill="#7c3aed" fill-opacity="0.65" />
<circle cx="188.10526315789474" cy="465" r="3.5" fill="#7c3aed" fill-opacity="0.65" />
<circle cx="160.31578947368422" cy="415.5909242838324" r="3.5" fill="#7c3aed" fill-opacity="0.65" />
<circle cx="139.4736842105263" cy="417.26440691295886" r="3.5" fill="#7c3aed" fill-opacity="0.65" />
<circle cx="126.44736842105263" cy="424.94475138121544" r="3.5" fill="#7c3aed" fill-opacity="0.65" />
<circle cx="141.95389473684213" cy="421.96270226696294" r="3.5" fill="#7c3aed" fill-opacity="0.65" />
<circle cx="117.14136842105265" cy="416.21812390633295" r="3.5" fill="#7c3aed" fill-opacity="0.65" />
<circle cx="90.26200000000001" cy="413.948801635831" r="3.5" fill="#7c3aed" fill-opacity="0.65" />
<circle cx="110.52747368421052" cy="440.8613672558542" r="3.5" fill="#7c3aed" fill-opacity="0.65" />
<circle cx="139.4736842105263" cy="437.49444564597627" r="3.5" fill="#7c3aed" fill-opacity="0.65" />
<circle cx="113.42105263157895" cy="425.7971726863412" r="3.5" fill="#7c3aed" fill-opacity="0.65" />
<circle cx="98.94621052631581" cy="433.3235681563477" r="3.5" fill="#7c3aed" fill-opacity="0.65" />
<circle cx="179.17442105263154" cy="440.579127425729" r="3.5" fill="#7c3aed" fill-opacity="0.65" />
<circle cx="169.86842105263156" cy="395.0330312026897" r="3.5" fill="#7c3aed" fill-opacity="0.65" />
<circle cx="197.36957894736844" cy="388.9035803464344" r="3.5" fill="#7c3aed" fill-opacity="0.65" />
<circle cx="148.15789473684208" cy="383.5837871846798" r="3.5" fill="#7c3aed" fill-opacity="0.65" />
  <text x="400" y="512" font-size="12" text-anchor="middle" fill="#475569">Actual average modal price in rupees per quintal</text>
  <text x="18" y="247.5" font-size="12" fill="#475569" transform="rotate(-90 18 247.5)">Predicted average modal price in rupees per quintal</text>
</svg>