<?xml version="1.0" encoding="UTF-8"?>
<svg xmlns="http://www.w3.org/2000/svg" width="1200" height="420" viewBox="0 0 1200 420">
  <rect width="100%" height="100%" fill="#ffffff" />
  <text x="70" y="22" font-size="20" font-weight="700" fill="#0f172a">Tomato Monthly Average Modal Price Trend Across Pune District Markets</text>
  <rect x="70" y="8" width="14" height="14" fill="#0f766e" /><text x="90" y="20" font-size="12" fill="#0f172a">Tomato</text>
  <line x1="70" y1="365" x2="1170" y2="365" stroke="#e5e7eb" stroke-width="1" />
      <text x="60" y="369" font-size="12" text-anchor="end" fill="#475569">477.11</text>
<line x1="70" y1="298" x2="1170" y2="298" stroke="#e5e7eb" stroke-width="1" />
      <text x="60" y="302" font-size="12" text-anchor="end" fill="#475569">1636.95</text>
<line x1="70" y1="231" x2="1170" y2="231" stroke="#e5e7eb" stroke-width="1" />
      <text x="60" y="235" font-size="12" text-anchor="end" fill="#475569">2796.8</text>
<line x1="70" y1="164" x2="1170" y2="164" stroke="#e5e7eb" stroke-width="1" />
      <text x="60" y="168" font-size="12" text-anchor="end" fill="#475569">3956.64</text>
<line x1="70" y1="97" x2="1170" y2="97" stroke="#e5e7eb" stroke-width="1" />
      <text x="60" y="101" font-size="12" text-anchor="end" fill="#475569">5116.49</text>
<line x1="70" y1="30" x2="1170" y2="30" stroke="#e5e7eb" stroke-width="1" />
      <text x="60" y="34" font-size="12" text-anchor="end" fill="#475569">6276.33</text>
  <line x1="70" y1="365" x2="1170" y2="365" stroke="#475569" stroke-width="1.5" />
  <line x1="70" y1="30" x2="70" y2="365" stroke="#475569" stroke-width="1.5" />
  <path d="M 70 298.46987181034694 L 78.2089552238806 315.2741144498743 L 86.41791044776119 334.1348405475219 L 94.6268656716418 336.6967799117812 L 102.83582089552239 341.51391911326004 L 111.04477611940298 326.0741185883619 L 119.25373134328359 309.81230234410833 L 127.46268656716418 345.613022096075 L 135.67164179104478 337.7504388521215 L 143.88059701492537 305.33714016712594 L 152.08955223880596 236.3172805998048 L 160.2985074626866 292.69612120250656 L 168.50746268656718 298.46987181034694 L 176.71641791044777 345.6205317266805 L 184.92537313432837 365 L 193.13432835820896 351.49306286017776 L 201.34328358208955 296.2337348815875 L 209.55223880597015 137.92494507882097 L 217.76119402985074 218.796157069399 L 225.97014925373134 340.4747017702381 L 234.17910447761193 352.05570749169715 L 242.38805970149255 334.67668927890304 L 250.59701492537314 349.63876176451316 L 258.80597014925377 362.91232269167233 L 267.01492537313436 363.9752242542963 L 275.22388059701495 350.573421942951 L 283.43283582089555 321.17264045854444 L 291.64179104477614 315.98059739068356 L 299.85074626865674 343.1567952241853 L 308.05970149253733 308.3635213011405 L 316.2686567164179 161.04478705756983 L 324.4776119402985 199.52471194402008 L 332.6865671641791 311.1906083921631 L 340.8955223880597 284.3823824583306 L 349.1044776119403 232.4197823155528 L 357.3134328358209 315.16666896582643 L 365.5223880597015 352.13946875614306 L 373.7313432835821 359.4399850324699 L 381.94029850746267 364.9029524660213 L 390.14925373134326 363.81347836433173 L 398.35820895522386 356.24665903345624 L 406.5671641791045 322.1581350595425 L 414.7761194029851 317.17693931252825 L 422.9850746268657 333.8379213066585 L 431.1940298507463 361.1920396191212 L 439.4029850746269 352.15564334513954 L 447.6119402985075 355.8214984084066 L 455.82089552238807 338.752108042116 L 464.02985074626866 312.3915716251496 L 472.23880597014926 315.0060784036474 L 480.44776119402985 305.95639586013294 L 488.65671641791045 334.72059173475054 L 496.86567164179104 307.45370067009014 L 505.07462686567163 283.087260010829 L 513.2835820895523 291.74759709064324 L 521.4925373134329 289.1856577263839 L 529.7014925373135 318.17803083863004 L 537.9104477611941 268.13789613085896 L 546.1194029850747 294.66306675725355 L 554.3283582089553 339.1264342446053 L 562.5373134328358 331.42039791558176 L 570.7462686567164 358.5550039488069 L 578.955223880597 349.80512896561953 L 587.1641791044776 361.79569838702446 L 595.3731343283582 357.78382265201185 L 603.5820895522388 319.1092250337114 L 611.7910447761194 284.20099599601326 L 620 300.81923086208144 L 628.2089552238806 249.98480830180608 L 636.4179104477612 282.6904049165233 L 644.6268656716418 280.1735233358969 L 652.8358208955224 302.38470001138086 L 661.044776119403 355.2524994740672 L 669.2537313432836 343.4646900790106 L 677.4626865671642 346.02258579602085 L 685.6716417910447 338.00287797324467 L 693.8805970149253 343.7205951834902 L 702.0895522388059 347.85840164711806 L 710.2985074626865 340.3972948086122 L 718.5074626865671 348.5383120488617 L 726.7164179104477 338.71629288076673 L 734.9253731343284 244.61888840223344 L 743.134328358209 231.1032863040202 L 751.3432835820896 251.45785122826862 L 759.5522388059702 300.44663765127035 L 767.7611940298508 312.8762316311504 L 775.9701492537314 327.9324633312756 L 784.179104477612 323.2129493276682 L 792.3880597014926 213.82420394466843 L 800.5970149253732 193.33388800562835 L 808.8059701492538 310.88386886512325 L 817.0149253731344 328.1953004024679 L 825.223880597015 313.51686088818843 L 833.4328358208955 265.32409530936917 L 841.6417910447761 336.63728053083 L 849.8507462686567 353.3254127279186 L 858.0597014925373 339.8658440273002 L 866.2686567164179 332.3579464134832 L 874.4776119402985 319.73310203786025 L 882.6865671641791 335.68991174675216 L 890.8955223880597 348.68792699707893 L 899.1044776119403 266.4332099834116 L 907.3134328358209 30 L 915.5223880597015 142.75248223036894 L 923.7313432835821 343.29601222233333 L 931.9402985074627 352.73735088511904 L 940.1492537313433 295.1673673356072 L 948.3582089552239 285.94669627984456 L 956.5671641791045 285.2569655919244 L 964.776119402985 281.9816113201431 L 972.9850746268656 323.8859277626991 L 981.1940298507462 335.3427357472212 L 989.4029850746269 325.9279696235011 L 997.6119402985075 222.65206355337443 L 1005.8208955223881 167.436060366739 L 1014.0298507462687 298.28386403688773 L 1022.2388059701493 277.1979766244426 L 1030.44776119403 203.70584319960273 L 1038.6567164179105 268.4307717244733 L 1046.865671641791 277.6502874524505 L 1055.0746268656717 321.67058673407803 L 1063.2835820895523 332.93849862567725 L 1071.4925373134329 332.4486396446419 L 1079.7014925373135 333.1655205355203 L 1087.910447761194 312.89587220350325 L 1096.1194029850747 294.5804608205931 L 1104.3283582089553 273.4304527160549 L 1112.5373134328358 245.7256924207049 L 1120.7462686567164 313.0033176875511 L 1128.955223880597 311.35004362655667 L 1137.1641791044776 265.32698362883286 L 1145.3731343283582 227.2745300230031 L 1153.5820895522388 273.90240411641565 L 1161.7910447761194 318.94805680763966 L 1170 316.74195840130227" fill="none" stroke="#0f766e" stroke-width="3" />
  <text x="70" y="385" font-size="11" text-anchor="middle" fill="#475569">2015-01</text>
<text x="160.2985074626866" y="385" font-size="11" text-anchor="middle" fill="#475569">2015-12</text>
<text x="250.59701492537314" y="385" font-size="11" text-anchor="middle" fill="#475569">2016-11</text>
<text x="340.8955223880597" y="385" font-size="11" text-anchor="middle" fill="#475569">2017-10</text>
<text x="431.1940298507463" y="385" font-size="11" text-anchor="middle" fill="#475569">2018-09</text>
<text x="521.4925373134329" y="385" font-size="11" text-anchor="middle" fill="#475569">2019-08</text>
<text x="611.7910447761194" y="385" font-size="11" text-anchor="middle" fill="#475569">2020-07</text>
<text x="702.0895522388059" y="385" font-size="11" text-anchor="middle" fill="#475569">2021-06</text>
<text x="792.3880597014926" y="385" font-size="11" text-anchor="middle" fill="#475569">2022-05</text>
<text x="882.6865671641791" y="385" font-size="11" text-anchor="middle" fill="#475569">2023-04</text>
<text x="972.9850746268656" y="385" font-size="11" text-anchor="middle" fill="#475569">2024-03</text>
<text x="1063.2835820895523" y="385" font-size="11" text-anchor="middle" fill="#475569">2025-02</text>
<text x="1153.5820895522388" y="385" font-size="11" text-anchor="middle" fill="#475569">2026-01</text>
<text x="1170" y="385" font-size="11" text-anchor="middle" fill="#475569">2026-03</text>
  <text x="18" y="197.5" font-size="12" fill="#475569" transform="rotate(-90 18 197.5)">Average modal price in rupees per quintal</text>
</svg>