<?xml version="1.0" encoding="UTF-8"?>
<svg xmlns="http://www.w3.org/2000/svg" width="760" height="520" viewBox="0 0 760 520">
<rect width="100%" height="100%" fill="#ffffff" />
<text x="80" y="22" font-size="20" font-weight="700" fill="#0f172a">Diagnostic Scatter Plot of Actual Versus Predicted Mumbai Diesel Prices</text>
<line x1="80" y1="450" x2="730" y2="450" stroke="#475569" stroke-width="1.5" />
<line x1="80" y1="30" x2="80" y2="450" stroke="#475569" stroke-width="1.5" />
<line x1="80" y1="428.1818181818174" x2="730" y2="31.818181818180165" stroke="#dc2626" stroke-width="2" stroke-dasharray="6 4" />
<circle cx="730" cy="30" r="3.2" fill="#7c3aed" fill-opacity="0.65" /><circle cx="730" cy="30" r="3.2" fill="#7c3aed" fill-opacity="0.65" /><circle cx="730" cy="30" r="3.2" fill="#7c3aed" fill-opacity="0.65" /><circle cx="730" cy="30" r="3.2" fill="#7c3aed" fill-opacity="0.65" /><circle cx="730" cy="30" r="3.2" fill="#7c3aed" fill-opacity="0.65" /><circle cx="730" cy="30" r="3.2" fill="#7c3aed" fill-opacity="0.65" /><circle cx="730" cy="30" r="3.2" fill="#7c3aed" fill-opacity="0.65" /><circle cx="730" cy="30" r="3.2" fill="#7c3aed" fill-opacity="0.65" /><circle cx="730" cy="30" r="3.2" fill="#7c3aed" fill-opacity="0.65" /><circle cx="730" cy="30" r="3.2" fill="#7c3aed" fill-opacity="0.65" /><circle cx="730" cy="30" r="3.2" fill="#7c3aed" fill-opacity="0.65" /><circle cx="730" cy="30" r="3.2" fill="#7c3aed" fill-opacity="0.65" /><circle cx="730" cy="30" r="3.2" fill="#7c3aed" fill-opacity="0.65" /><circle cx="730" cy="30" r="3.2" fill="#7c3aed" fill-opacity="0.65" /><circle cx="730" cy="30" r="3.2" fill="#7c3aed" fill-opacity="0.65" /><circle cx="730" cy="30" r="3.2" fill="#7c3aed" fill-opacity="0.65" /><circle cx="80" cy="30" r="3.2" fill="#7c3aed" fill-opacity="0.65" /><circle cx="80" cy="450" r="3.2" fill="#7c3aed" fill-opacity="0.65" /><circle cx="80" cy="446.3636363636345" r="3.2" fill="#7c3aed" fill-opacity="0.65" /><circle cx="80" cy="442.7272727272716" r="3.2" fill="#7c3aed" fill-opacity="0.65" /><circle cx="80" cy="440.90909090908883" r="3.2" fill="#7c3aed" fill-opacity="0.65" /><circle cx="80" cy="437.27272727272594" r="3.2" fill="#7c3aed" fill-opacity="0.65" /><circle cx="80" cy="433.63636363636306" r="3.2" fill="#7c3aed" fill-opacity="0.65" /><circle cx="80" cy="433.63636363636306" r="3.2" fill="#7c3aed" fill-opacity="0.65" /><circle cx="80" cy="431.8181818181803" r="3.2" fill="#7c3aed" fill-opacity="0.65" /><circle cx="80" cy="431.8181818181803" r="3.2" fill="#7c3aed" fill-opacity="0.65" /><circle cx="80" cy="431.8181818181803" r="3.2" fill="#7c3aed" fill-opacity="0.65" /><circle cx="80" cy="431.8181818181803" r="3.2" fill="#7c3aed" fill-opacity="0.65" /><circle cx="80" cy="431.8181818181803" r="3.2" fill="#7c3aed" fill-opacity="0.65" /><circle cx="80" cy="431.8181818181803" r="3.2" fill="#7c3aed" fill-opacity="0.65" /><circle cx="80" cy="426.3636363636346" r="3.2" fill="#7c3aed" fill-opacity="0.65" /><circle cx="80" cy="426.3636363636346" r="3.2" fill="#7c3aed" fill-opacity="0.65" /><circle cx="80" cy="426.3636363636346" r="3.2" fill="#7c3aed" fill-opacity="0.65" /><circle cx="80" cy="424.54545454545445" r="3.2" fill="#7c3aed" fill-opacity="0.65" /><circle cx="80" cy="424.54545454545445" r="3.2" fill="#7c3aed" fill-opacity="0.65" /><circle cx="80" cy="424.54545454545445" r="3.2" fill="#7c3aed" fill-opacity="0.65" /><circle cx="80" cy="424.54545454545445" r="3.2" fill="#7c3aed" fill-opacity="0.65" /><circle cx="80" cy="424.54545454545445" r="3.2" fill="#7c3aed" fill-opacity="0.65" /><circle cx="80" cy="424.54545454545445" r="3.2" fill="#7c3aed" fill-opacity="0.65" /><circle cx="80" cy="422.7272727272717" r="3.2" fill="#7c3aed" fill-opacity="0.65" /><circle cx="80" cy="422.7272727272717" r="3.2" fill="#7c3aed" fill-opacity="0.65" /><circle cx="80" cy="422.7272727272717" r="3.2" fill="#7c3aed" fill-opacity="0.65" /><circle cx="80" cy="422.7272727272717" r="3.2" fill="#7c3aed" fill-opacity="0.65" /><circle cx="80" cy="422.7272727272717" r="3.2" fill="#7c3aed" fill-opacity="0.65" /><circle cx="80" cy="422.7272727272717" r="3.2" fill="#7c3aed" fill-opacity="0.65" /><circle cx="80" cy="420.90909090908895" r="3.2" fill="#7c3aed" fill-opacity="0.65" /><circle cx="80" cy="424.54545454545445" r="3.2" fill="#7c3aed" fill-opacity="0.65" /><circle cx="80" cy="424.54545454545445" r="3.2" fill="#7c3aed" fill-opacity="0.65" /><circle cx="80" cy="424.54545454545445" r="3.2" fill="#7c3aed" fill-opacity="0.65" /><circle cx="80" cy="426.3636363636346" r="3.2" fill="#7c3aed" fill-opacity="0.65" /><circle cx="80" cy="426.3636363636346" r="3.2" fill="#7c3aed" fill-opacity="0.65" /><circle cx="80" cy="426.3636363636346" r="3.2" fill="#7c3aed" fill-opacity="0.65" /><circle cx="80" cy="424.54545454545445" r="3.2" fill="#7c3aed" fill-opacity="0.65" /><circle cx="80" cy="426.3636363636346" r="3.2" fill="#7c3aed" fill-opacity="0.65" /><circle cx="80" cy="426.3636363636346" r="3.2" fill="#7c3aed" fill-opacity="0.65" /><circle cx="80" cy="426.3636363636346" r="3.2" fill="#7c3aed" fill-opacity="0.65" /><circle cx="80" cy="426.3636363636346" r="3.2" fill="#7c3aed" fill-opacity="0.65" /><circle cx="80" cy="426.3636363636346" r="3.2" fill="#7c3aed" fill-opacity="0.65" /><circle cx="80" cy="426.3636363636346" r="3.2" fill="#7c3aed" fill-opacity="0.65" /><circle cx="80" cy="424.54545454545445" r="3.2" fill="#7c3aed" fill-opacity="0.65" /><circle cx="80" cy="426.3636363636346" r="3.2" fill="#7c3aed" fill-opacity="0.65" /><circle cx="80" cy="426.3636363636346" r="3.2" fill="#7c3aed" fill-opacity="0.65" /><circle cx="80" cy="426.3636363636346" r="3.2" fill="#7c3aed" fill-opacity="0.65" /><circle cx="80" cy="426.3636363636346" r="3.2" fill="#7c3aed" fill-opacity="0.65" /><circle cx="80" cy="426.3636363636346" r="3.2" fill="#7c3aed" fill-opacity="0.65" /><circle cx="80" cy="426.3636363636346" r="3.2" fill="#7c3aed" fill-opacity="0.65" /><circle cx="80" cy="424.54545454545445" r="3.2" fill="#7c3aed" fill-opacity="0.65" /><circle cx="80" cy="426.3636363636346" r="3.2" fill="#7c3aed" fill-opacity="0.65" /><circle cx="80" cy="426.3636363636346" r="3.2" fill="#7c3aed" fill-opacity="0.65" /><circle cx="80" cy="426.3636363636346" r="3.2" fill="#7c3aed" fill-opacity="0.65" /><circle cx="80" cy="426.3636363636346" r="3.2" fill="#7c3aed" fill-opacity="0.65" /><circle cx="80" cy="426.3636363636346" r="3.2" fill="#7c3aed" fill-opacity="0.65" /><circle cx="80" cy="426.3636363636346" r="3.2" fill="#7c3aed" fill-opacity="0.65" /><circle cx="80" cy="424.54545454545445" r="3.2" fill="#7c3aed" fill-opacity="0.65" /><circle cx="80" cy="426.3636363636346" r="3.2" fill="#7c3aed" fill-opacity="0.65" /><circle cx="80" cy="426.3636363636346" r="3.2" fill="#7c3aed" fill-opacity="0.65" /><circle cx="80" cy="426.3636363636346" r="3.2" fill="#7c3aed" fill-opacity="0.65" /><circle cx="80" cy="426.3636363636346" r="3.2" fill="#7c3aed" fill-opacity="0.65" /><circle cx="80" cy="426.3636363636346" r="3.2" fill="#7c3aed" fill-opacity="0.65" /><circle cx="80" cy="426.3636363636346" r="3.2" fill="#7c3aed" fill-opacity="0.65" /><circle cx="80" cy="426.3636363636346" r="3.2" fill="#7c3aed" fill-opacity="0.65" /><circle cx="80" cy="426.3636363636346" r="3.2" fill="#7c3aed" fill-opacity="0.65" /><circle cx="80" cy="426.3636363636346" r="3.2" fill="#7c3aed" fill-opacity="0.65" /><circle cx="80" cy="426.3636363636346" r="3.2" fill="#7c3aed" fill-opacity="0.65" /><circle cx="80" cy="426.3636363636346" r="3.2" fill="#7c3aed" fill-opacity="0.65" /><circle cx="80" cy="426.3636363636346" r="3.2" fill="#7c3aed" fill-opacity="0.65" /><circle cx="80" cy="426.3636363636346" r="3.2" fill="#7c3aed" fill-opacity="0.65" /><circle cx="80" cy="426.3636363636346" r="3.2" fill="#7c3aed" fill-opacity="0.65" /><circle cx="80" cy="426.3636363636346" r="3.2" fill="#7c3aed" fill-opacity="0.65" /><circle cx="80" cy="426.3636363636346" r="3.2" fill="#7c3aed" fill-opacity="0.65" /><circle cx="80" cy="426.3636363636346" r="3.2" fill="#7c3aed" fill-opacity="0.65" /><circle cx="80" cy="426.3636363636346" r="3.2" fill="#7c3aed" fill-opacity="0.65" /><circle cx="80" cy="426.3636363636346" r="3.2" fill="#7c3aed" fill-opacity="0.65" /><circle cx="80" cy="426.3636363636346" r="3.2" fill="#7c3aed" fill-opacity="0.65" /><circle cx="80" cy="426.3636363636346" r="3.2" fill="#7c3aed" fill-opacity="0.65" /><circle cx="80" cy="426.3636363636346" r="3.2" fill="#7c3aed" fill-opacity="0.65" /><circle cx="80" cy="426.3636363636346" r="3.2" fill="#7c3aed" fill-opacity="0.65" /><circle cx="80" cy="426.3636363636346" r="3.2" fill="#7c3aed" fill-opacity="0.65" /><circle cx="80" cy="426.3636363636346" r="3.2" fill="#7c3aed" fill-opacity="0.65" /><circle cx="80" cy="426.3636363636346" r="3.2" fill="#7c3aed" fill-opacity="0.65" /><circle cx="80" cy="426.3636363636346" r="3.2" fill="#7c3aed" fill-opacity="0.65" /><circle cx="80" cy="426.3636363636346" r="3.2" fill="#7c3aed" fill-opacity="0.65" /><circle cx="80" cy="426.3636363636346" r="3.2" fill="#7c3aed" fill-opacity="0.65" /><circle cx="80" cy="426.3636363636346" r="3.2" fill="#7c3aed" fill-opacity="0.65" /><circle cx="80" cy="426.3636363636346" r="3.2" fill="#7c3aed" fill-opacity="0.65" /><circle cx="80" cy="426.3636363636346" r="3.2" fill="#7c3aed" fill-opacity="0.65" /><circle cx="80" cy="426.3636363636346" r="3.2" fill="#7c3aed" fill-opacity="0.65" /><circle cx="80" cy="426.3636363636346" r="3.2" fill="#7c3aed" fill-opacity="0.65" /><circle cx="80" cy="426.3636363636346" r="3.2" fill="#7c3aed" fill-opacity="0.65" /><circle cx="80" cy="426.3636363636346" r="3.2" fill="#7c3aed" fill-opacity="0.65" /><circle cx="80" cy="428.1818181818174" r="3.2" fill="#7c3aed" fill-opacity="0.65" /><circle cx="80" cy="428.1818181818174" r="3.2" fill="#7c3aed" fill-opacity="0.65" /><circle cx="80" cy="428.1818181818174" r="3.2" fill="#7c3aed" fill-opacity="0.65" /><circle cx="80" cy="428.1818181818174" r="3.2" fill="#7c3aed" fill-opacity="0.65" /><circle cx="80" cy="428.1818181818174" r="3.2" fill="#7c3aed" fill-opacity="0.65" /><circle cx="80" cy="428.1818181818174" r="3.2" fill="#7c3aed" fill-opacity="0.65" /><circle cx="80" cy="428.1818181818174" r="3.2" fill="#7c3aed" fill-opacity="0.65" /><circle cx="80" cy="428.1818181818174" r="3.2" fill="#7c3aed" fill-opacity="0.65" /><circle cx="80" cy="428.1818181818174" r="3.2" fill="#7c3aed" fill-opacity="0.65" /><circle cx="80" cy="428.1818181818174" r="3.2" fill="#7c3aed" fill-opacity="0.65" />
<text x="405" y="512" font-size="12" text-anchor="middle" fill="#475569">Actual diesel price in rupees per litre</text>
<text x="18" y="240" font-size="12" fill="#475569" transform="rotate(-90 18 240)">Predicted diesel price in rupees per litre</text>
</svg>