<?xml version="1.0" encoding="UTF-8"?>
<svg xmlns="http://www.w3.org/2000/svg" width="1200" height="420" viewBox="0 0 1200 420">
<rect width="100%" height="100%" fill="#ffffff" />
<text x="80" y="22" font-size="20" font-weight="700" fill="#0f172a">Lag Based Ridge Regression Model for Mumbai Diesel Price on the Holdout Test Window</text>
<rect x="80" y="8" width="14" height="14" fill="#b91c1c" /><text x="100" y="20" font-size="12" fill="#0f172a">Actual price</text><rect x="300" y="8" width="14" height="14" fill="#1d4ed8" /><text x="320" y="20" font-size="12" fill="#0f172a">Predicted price</text><rect x="520" y="8" width="14" height="14" fill="#047857" /><text x="540" y="20" font-size="12" fill="#0f172a">Lag one baseline</text><line x1="80" y1="350" x2="1170" y2="350" stroke="#e5e7eb" />
      <text x="70" y="354" font-size="12" text-anchor="end" fill="#475569">89.85</text><line x1="80" y1="285.9999999999996" x2="1170" y2="285.9999999999996" stroke="#e5e7eb" />
      <text x="70" y="289.9999999999996" font-size="12" text-anchor="end" fill="#475569">90.31</text><line x1="80" y1="221.9999999999992" x2="1170" y2="221.9999999999992" stroke="#e5e7eb" />
      <text x="70" y="225.9999999999992" font-size="12" text-anchor="end" fill="#475569">90.77</text><line x1="80" y1="158.0000000000008" x2="1170" y2="158.0000000000008" stroke="#e5e7eb" />
      <text x="70" y="162.0000000000008" font-size="12" text-anchor="end" fill="#475569">91.24</text><line x1="80" y1="94.00000000000037" x2="1170" y2="94.00000000000037" stroke="#e5e7eb" />
      <text x="70" y="98.00000000000037" font-size="12" text-anchor="end" fill="#475569">91.7</text><line x1="80" y1="30" x2="1170" y2="30" stroke="#e5e7eb" />
      <text x="70" y="34" font-size="12" text-anchor="end" fill="#475569">92.16</text>
<line x1="80" y1="350" x2="1170" y2="350" stroke="#475569" stroke-width="1.5" />
<line x1="80" y1="30" x2="80" y2="350" stroke="#475569" stroke-width="1.5" />
<path d="M 80 31.38528138528011 L 89.15966386554622 31.38528138528011 L 98.31932773109244 31.38528138528011 L 107.47899159663865 31.38528138528011 L 116.63865546218487 31.38528138528011 L 125.7983193277311 31.38528138528011 L 134.9579831932773 31.38528138528011 L 144.11764705882354 31.38528138528011 L 153.27731092436974 31.38528138528011 L 162.43697478991595 31.38528138528011 L 171.5966386554622 31.38528138528011 L 180.7563025210084 31.38528138528011 L 189.9159663865546 31.38528138528011 L 199.07563025210084 31.38528138528011 L 208.23529411764704 31.38528138528011 L 217.39495798319328 31.38528138528011 L 226.5546218487395 333.3766233766228 L 235.7142857142857 333.3766233766228 L 244.87394957983193 333.3766233766228 L 254.03361344537814 333.3766233766228 L 263.1932773109244 333.3766233766228 L 272.3529411764706 333.3766233766228 L 281.5126050420168 333.3766233766228 L 290.672268907563 333.3766233766228 L 299.8319327731092 333.3766233766228 L 308.99159663865544 333.3766233766228 L 318.1512605042017 333.3766233766228 L 327.3109243697479 333.3766233766228 L 336.4705882352941 333.3766233766228 L 345.6302521008403 333.3766233766228 L 354.78991596638656 333.3766233766228 L 363.94957983193274 333.3766233766228 L 373.109243697479 333.3766233766228 L 382.2689075630252 333.3766233766228 L 391.4285714285714 333.3766233766228 L 400.5882352941176 333.3766233766228 L 409.74789915966386 333.3766233766228 L 418.90756302521004 333.3766233766228 L 428.0672268907563 333.3766233766228 L 437.2268907563025 333.3766233766228 L 446.38655462184875 333.3766233766228 L 455.5462184873949 333.3766233766228 L 464.70588235294116 333.3766233766228 L 473.8655462184874 333.3766233766228 L 483.0252100840336 333.3766233766228 L 492.1848739495798 333.3766233766228 L 501.34453781512605 333.3766233766228 L 510.5042016806722 333.3766233766228 L 519.6638655462184 333.3766233766228 L 528.8235294117646 333.3766233766228 L 537.9831932773109 333.3766233766228 L 547.1428571428571 333.3766233766228 L 556.3025210084033 333.3766233766228 L 565.4621848739496 333.3766233766228 L 574.6218487394958 333.3766233766228 L 583.781512605042 333.3766233766228 L 592.9411764705882 333.3766233766228 L 602.1008403361344 333.3766233766228 L 611.2605042016806 333.3766233766228 L 620.4201680672269 333.3766233766228 L 629.5798319327731 333.3766233766228 L 638.7394957983192 333.3766233766228 L 647.8991596638655 333.3766233766228 L 657.0588235294117 333.3766233766228 L 666.218487394958 333.3766233766228 L 675.3781512605042 333.3766233766228 L 684.5378151260504 333.3766233766228 L 693.6974789915967 333.3766233766228 L 702.8571428571428 333.3766233766228 L 712.016806722689 333.3766233766228 L 721.1764705882352 333.3766233766228 L 730.3361344537815 333.3766233766228 L 739.4957983193277 333.3766233766228 L 748.655462184874 333.3766233766228 L 757.8151260504201 333.3766233766228 L 766.9747899159663 333.3766233766228 L 776.1344537815125 333.3766233766228 L 785.2941176470588 333.3766233766228 L 794.453781512605 333.3766233766228 L 803.6134453781513 333.3766233766228 L 812.7731092436975 333.3766233766228 L 821.9327731092436 333.3766233766228 L 831.0924369747898 333.3766233766228 L 840.2521008403361 333.3766233766228 L 849.4117647058823 333.3766233766228 L 858.5714285714286 333.3766233766228 L 867.7310924369748 333.3766233766228 L 876.8907563025209 333.3766233766228 L 886.0504201680671 333.3766233766228 L 895.2100840336134 333.3766233766228 L 904.3697478991596 333.3766233766228 L 913.5294117647059 333.3766233766228 L 922.6890756302521 333.3766233766228 L 931.8487394957982 333.3766233766228 L 941.0084033613444 333.3766233766228 L 950.1680672268907 333.3766233766228 L 959.3277310924369 333.3766233766228 L 968.4873949579832 333.3766233766228 L 977.6470588235294 333.3766233766228 L 986.8067226890756 333.3766233766228 L 995.9663865546217 333.3766233766228 L 1005.126050420168 333.3766233766228 L 1014.2857142857142 333.3766233766228 L 1023.4453781512605 333.3766233766228 L 1032.6050420168067 333.3766233766228 L 1041.764705882353 333.3766233766228 L 1050.9243697478992 333.3766233766228 L 1060.0840336134452 333.3766233766228 L 1069.2436974789916 333.3766233766228 L 1078.4033613445376 333.3766233766228 L 1087.563025210084 333.3766233766228 L 1096.7226890756301 333.3766233766228 L 1105.8823529411764 333.3766233766228 L 1115.0420168067226 333.3766233766228 L 1124.2016806722688 333.3766233766228 L 1133.361344537815 333.3766233766228 L 1142.5210084033613 333.3766233766228 L 1151.6806722689075 333.3766233766228 L 1160.8403361344538 333.3766233766228 L 1170 333.3766233766228" fill="none" stroke="#b91c1c" stroke-width="3" /><path d="M 80 30 L 89.15966386554622 30 L 98.31932773109244 30 L 107.47899159663865 30 L 116.63865546218487 30 L 125.7983193277311 30 L 134.9579831932773 30 L 144.11764705882354 30 L 153.27731092436974 30 L 162.43697478991595 30 L 171.5966386554622 30 L 180.7563025210084 30 L 189.9159663865546 30 L 199.07563025210084 30 L 208.23529411764704 30 L 217.39495798319328 30 L 226.5546218487395 30 L 235.7142857142857 350 L 244.87394957983193 347.2294372294358 L 254.03361344537814 344.4588744588736 L 263.1932773109244 343.0735930735915 L 272.3529411764706 340.3030303030293 L 281.5126050420168 337.5324675324671 L 290.672268907563 337.5324675324671 L 299.8319327731092 336.147186147185 L 308.99159663865544 336.147186147185 L 318.1512605042017 336.147186147185 L 327.3109243697479 336.147186147185 L 336.4705882352941 336.147186147185 L 345.6302521008403 336.147186147185 L 354.78991596638656 331.9913419913407 L 363.94957983193274 331.9913419913407 L 373.109243697479 331.9913419913407 L 382.2689075630252 330.60606060606057 L 391.4285714285714 330.60606060606057 L 400.5882352941176 330.60606060606057 L 409.74789915966386 330.60606060606057 L 418.90756302521004 330.60606060606057 L 428.0672268907563 330.60606060606057 L 437.2268907563025 329.22077922077847 L 446.38655462184875 329.22077922077847 L 455.5462184873949 329.22077922077847 L 464.70588235294116 329.22077922077847 L 473.8655462184874 329.22077922077847 L 483.0252100840336 329.22077922077847 L 492.1848739495798 327.83549783549637 L 501.34453781512605 330.60606060606057 L 510.5042016806722 330.60606060606057 L 519.6638655462184 330.60606060606057 L 528.8235294117646 331.9913419913407 L 537.9831932773109 331.9913419913407 L 547.1428571428571 331.9913419913407 L 556.3025210084033 330.60606060606057 L 565.4621848739496 331.9913419913407 L 574.6218487394958 331.9913419913407 L 583.781512605042 331.9913419913407 L 592.9411764705882 331.9913419913407 L 602.1008403361344 331.9913419913407 L 611.2605042016806 331.9913419913407 L 620.4201680672269 330.60606060606057 L 629.5798319327731 331.9913419913407 L 638.7394957983192 331.9913419913407 L 647.8991596638655 331.9913419913407 L 657.0588235294117 331.9913419913407 L 666.218487394958 331.9913419913407 L 675.3781512605042 331.9913419913407 L 684.5378151260504 330.60606060606057 L 693.6974789915967 331.9913419913407 L 702.8571428571428 331.9913419913407 L 712.016806722689 331.9913419913407 L 721.1764705882352 331.9913419913407 L 730.3361344537815 331.9913419913407 L 739.4957983193277 331.9913419913407 L 748.655462184874 330.60606060606057 L 757.8151260504201 331.9913419913407 L 766.9747899159663 331.9913419913407 L 776.1344537815125 331.9913419913407 L 785.2941176470588 331.9913419913407 L 794.453781512605 331.9913419913407 L 803.6134453781513 331.9913419913407 L 812.7731092436975 331.9913419913407 L 821.9327731092436 331.9913419913407 L 831.0924369747898 331.9913419913407 L 840.2521008403361 331.9913419913407 L 849.4117647058823 331.9913419913407 L 858.5714285714286 331.9913419913407 L 867.7310924369748 331.9913419913407 L 876.8907563025209 331.9913419913407 L 886.0504201680671 331.9913419913407 L 895.2100840336134 331.9913419913407 L 904.3697478991596 331.9913419913407 L 913.5294117647059 331.9913419913407 L 922.6890756302521 331.9913419913407 L 931.8487394957982 331.9913419913407 L 941.0084033613444 331.9913419913407 L 950.1680672268907 331.9913419913407 L 959.3277310924369 331.9913419913407 L 968.4873949579832 331.9913419913407 L 977.6470588235294 331.9913419913407 L 986.8067226890756 331.9913419913407 L 995.9663865546217 331.9913419913407 L 1005.126050420168 331.9913419913407 L 1014.2857142857142 331.9913419913407 L 1023.4453781512605 331.9913419913407 L 1032.6050420168067 331.9913419913407 L 1041.764705882353 331.9913419913407 L 1050.9243697478992 331.9913419913407 L 1060.0840336134452 331.9913419913407 L 1069.2436974789916 331.9913419913407 L 1078.4033613445376 331.9913419913407 L 1087.563025210084 333.3766233766228 L 1096.7226890756301 333.3766233766228 L 1105.8823529411764 333.3766233766228 L 1115.0420168067226 333.3766233766228 L 1124.2016806722688 333.3766233766228 L 1133.361344537815 333.3766233766228 L 1142.5210084033613 333.3766233766228 L 1151.6806722689075 333.3766233766228 L 1160.8403361344538 333.3766233766228 L 1170 333.3766233766228" fill="none" stroke="#1d4ed8" stroke-width="3" /><path d="M 80 31.38528138528011 L 89.15966386554622 31.38528138528011 L 98.31932773109244 31.38528138528011 L 107.47899159663865 31.38528138528011 L 116.63865546218487 31.38528138528011 L 125.7983193277311 31.38528138528011 L 134.9579831932773 31.38528138528011 L 144.11764705882354 31.38528138528011 L 153.27731092436974 31.38528138528011 L 162.43697478991595 31.38528138528011 L 171.5966386554622 31.38528138528011 L 180.7563025210084 31.38528138528011 L 189.9159663865546 31.38528138528011 L 199.07563025210084 31.38528138528011 L 208.23529411764704 31.38528138528011 L 217.39495798319328 31.38528138528011 L 226.5546218487395 31.38528138528011 L 235.7142857142857 333.3766233766228 L 244.87394957983193 333.3766233766228 L 254.03361344537814 333.3766233766228 L 263.1932773109244 333.3766233766228 L 272.3529411764706 333.3766233766228 L 281.5126050420168 333.3766233766228 L 290.672268907563 333.3766233766228 L 299.8319327731092 333.3766233766228 L 308.99159663865544 333.3766233766228 L 318.1512605042017 333.3766233766228 L 327.3109243697479 333.3766233766228 L 336.4705882352941 333.3766233766228 L 345.6302521008403 333.3766233766228 L 354.78991596638656 333.3766233766228 L 363.94957983193274 333.3766233766228 L 373.109243697479 333.3766233766228 L 382.2689075630252 333.3766233766228 L 391.4285714285714 333.3766233766228 L 400.5882352941176 333.3766233766228 L 409.74789915966386 333.3766233766228 L 418.90756302521004 333.3766233766228 L 428.0672268907563 333.3766233766228 L 437.2268907563025 333.3766233766228 L 446.38655462184875 333.3766233766228 L 455.5462184873949 333.3766233766228 L 464.70588235294116 333.3766233766228 L 473.8655462184874 333.3766233766228 L 483.0252100840336 333.3766233766228 L 492.1848739495798 333.3766233766228 L 501.34453781512605 333.3766233766228 L 510.5042016806722 333.3766233766228 L 519.6638655462184 333.3766233766228 L 528.8235294117646 333.3766233766228 L 537.9831932773109 333.3766233766228 L 547.1428571428571 333.3766233766228 L 556.3025210084033 333.3766233766228 L 565.4621848739496 333.3766233766228 L 574.6218487394958 333.3766233766228 L 583.781512605042 333.3766233766228 L 592.9411764705882 333.3766233766228 L 602.1008403361344 333.3766233766228 L 611.2605042016806 333.3766233766228 L 620.4201680672269 333.3766233766228 L 629.5798319327731 333.3766233766228 L 638.7394957983192 333.3766233766228 L 647.8991596638655 333.3766233766228 L 657.0588235294117 333.3766233766228 L 666.218487394958 333.3766233766228 L 675.3781512605042 333.3766233766228 L 684.5378151260504 333.3766233766228 L 693.6974789915967 333.3766233766228 L 702.8571428571428 333.3766233766228 L 712.016806722689 333.3766233766228 L 721.1764705882352 333.3766233766228 L 730.3361344537815 333.3766233766228 L 739.4957983193277 333.3766233766228 L 748.655462184874 333.3766233766228 L 757.8151260504201 333.3766233766228 L 766.9747899159663 333.3766233766228 L 776.1344537815125 333.3766233766228 L 785.2941176470588 333.3766233766228 L 794.453781512605 333.3766233766228 L 803.6134453781513 333.3766233766228 L 812.7731092436975 333.3766233766228 L 821.9327731092436 333.3766233766228 L 831.0924369747898 333.3766233766228 L 840.2521008403361 333.3766233766228 L 849.4117647058823 333.3766233766228 L 858.5714285714286 333.3766233766228 L 867.7310924369748 333.3766233766228 L 876.8907563025209 333.3766233766228 L 886.0504201680671 333.3766233766228 L 895.2100840336134 333.3766233766228 L 904.3697478991596 333.3766233766228 L 913.5294117647059 333.3766233766228 L 922.6890756302521 333.3766233766228 L 931.8487394957982 333.3766233766228 L 941.0084033613444 333.3766233766228 L 950.1680672268907 333.3766233766228 L 959.3277310924369 333.3766233766228 L 968.4873949579832 333.3766233766228 L 977.6470588235294 333.3766233766228 L 986.8067226890756 333.3766233766228 L 995.9663865546217 333.3766233766228 L 1005.126050420168 333.3766233766228 L 1014.2857142857142 333.3766233766228 L 1023.4453781512605 333.3766233766228 L 1032.6050420168067 333.3766233766228 L 1041.764705882353 333.3766233766228 L 1050.9243697478992 333.3766233766228 L 1060.0840336134452 333.3766233766228 L 1069.2436974789916 333.3766233766228 L 1078.4033613445376 333.3766233766228 L 1087.563025210084 333.3766233766228 L 1096.7226890756301 333.3766233766228 L 1105.8823529411764 333.3766233766228 L 1115.0420168067226 333.3766233766228 L 1124.2016806722688 333.3766233766228 L 1133.361344537815 333.3766233766228 L 1142.5210084033613 333.3766233766228 L 1151.6806722689075 333.3766233766228 L 1160.8403361344538 333.3766233766228 L 1170 333.3766233766228" fill="none" stroke="#047857" stroke-width="3" /><text x="80" y="370" font-size="11" text-anchor="middle" fill="#475569">2024-06-13</text><text x="171.5966386554622" y="370" font-size="11" text-anchor="middle" fill="#475569">2024-06-23</text><text x="263.1932773109244" y="370" font-size="11" text-anchor="middle" fill="#475569">2024-07-03</text><text x="354.78991596638656" y="370" font-size="11" text-anchor="middle" fill="#475569">2024-07-13</text><text x="446.38655462184875" y="370" font-size="11" text-anchor="middle" fill="#475569">2024-07-23</text><text x="537.9831932773109" y="370" font-size="11" text-anchor="middle" fill="#475569">2024-08-02</text><text x="629.5798319327731" y="370" font-size="11" text-anchor="middle" fill="#475569">2024-08-12</text><text x="721.1764705882352" y="370" font-size="11" text-anchor="middle" fill="#475569">2024-08-22</text><text x="812.7731092436975" y="370" font-size="11" text-anchor="middle" fill="#475569">2024-09-01</text><text x="904.3697478991596" y="370" font-size="11" text-anchor="middle" fill="#475569">2024-09-11</text><text x="995.9663865546217" y="370" font-size="11" text-anchor="middle" fill="#475569">2024-09-21</text><text x="1087.563025210084" y="370" font-size="11" text-anchor="middle" fill="#475569">2024-10-01</text><text x="1170" y="370" font-size="11" text-anchor="middle" fill="#475569">2024-10-10</text>
<text x="18" y="190" font-size="12" fill="#475569" transform="rotate(-90 18 190)">Price in rupees per litre</text>
</svg>