<?xml version="1.0" encoding="UTF-8"?>
<svg xmlns="http://www.w3.org/2000/svg" width="1200" height="420" viewBox="0 0 1200 420">
<rect width="100%" height="100%" fill="#ffffff" />
<text x="80" y="22" font-size="20" font-weight="700" fill="#0f172a">Monthly Average Price Spread Between Petrol and Diesel in Mumbai</text>
<rect x="80" y="8" width="14" height="14" fill="#b91c1c" /><text x="100" y="20" font-size="12" fill="#0f172a">Petrol minus diesel spread</text><line x1="80" y1="350" x2="1170" y2="350" stroke="#e5e7eb" />
      <text x="70" y="354" font-size="12" text-anchor="end" fill="#475569">7.34</text><line x1="80" y1="286" x2="1170" y2="286" stroke="#e5e7eb" />
      <text x="70" y="290" font-size="12" text-anchor="end" fill="#475569">9.34</text><line x1="80" y1="222.00000000000003" x2="1170" y2="222.00000000000003" stroke="#e5e7eb" />
      <text x="70" y="226.00000000000003" font-size="12" text-anchor="end" fill="#475569">11.34</text><line x1="80" y1="157.99999999999997" x2="1170" y2="157.99999999999997" stroke="#e5e7eb" />
      <text x="70" y="161.99999999999997" font-size="12" text-anchor="end" fill="#475569">13.33</text><line x1="80" y1="94" x2="1170" y2="94" stroke="#e5e7eb" />
      <text x="70" y="98" font-size="12" text-anchor="end" fill="#475569">15.33</text><line x1="80" y1="30" x2="1170" y2="30" stroke="#e5e7eb" />
      <text x="70" y="34" font-size="12" text-anchor="end" fill="#475569">17.33</text>
<line x1="80" y1="350" x2="1170" y2="350" stroke="#475569" stroke-width="1.5" />
<line x1="80" y1="30" x2="80" y2="350" stroke="#475569" stroke-width="1.5" />
<path d="M 80 65.55555555555554 L 90.38095238095238 96.30630630630628 L 100.76190476190476 55.94594594594588 L 111.14285714285714 30 L 121.52380952380952 61.7117117117117 L 131.9047619047619 79.64964964964963 L 142.28571428571428 98.54854854854852 L 152.66666666666669 155.88588588588584 L 163.04761904761904 166.1361361361361 L 173.42857142857144 163.57357357357355 L 183.8095238095238 184.07407407407405 L 194.1904761904762 192.08208208208208 L 204.57142857142858 201.37137137137134 L 214.95238095238096 213.86386386386386 L 225.33333333333334 211.9419419419419 L 235.71428571428572 228.27827827827824 L 246.0952380952381 291.0610610610611 L 256.4761904761905 349.6796796796797 L 266.8571428571429 317.967967967968 L 277.23809523809524 316.68668668668664 L 287.6190476190476 350 L 298 329.8198198198198 L 308.3809523809524 293.62362362362364 L 318.76190476190476 328.85885885885887 L 329.14285714285717 310.9209209209209 L 339.5238095238095 290.42042042042044 L 349.9047619047619 293.62362362362364 L 360.2857142857143 289.1391391391391 L 370.6666666666667 284.6546546546546 L 381.04761904761904 253.90390390390388 L 391.42857142857144 238.84884884884883 L 401.8095238095238 291.70170170170167 L 412.1904761904762 274.72472472472475 L 422.5714285714286 262.5525525525525 L 432.95238095238096 261.59159159159157 L 443.33333333333337 261.59159159159157 L 453.7142857142857 279.8498498498499 L 464.09523809523813 337.82782782782783 L 474.4761904761905 343.2732732732733 L 484.8571428571429 281.4514514514514 L 495.23809523809524 236.60660660660653 L 505.61904761904765 242.37237237237238 L 516 269.91991991991995 L 526.3809523809524 274.40440440440443 L 536.7619047619048 290.10010010010006 L 547.1428571428571 297.46746746746743 L 557.5238095238095 296.1861861861862 L 567.9047619047619 312.84284284284286 L 578.2857142857143 329.1791791791792 L 588.6666666666667 270.56056056056053 L 599.047619047619 243.97397397397395 L 609.4285714285714 235.005005005005 L 619.8095238095239 284.6546546546546 L 630.1904761904763 99.18918918918916 L 640.5714285714286 77.72772772772771 L 650.952380952381 77.72772772772771 L 661.3333333333334 77.72772772772771 L 671.7142857142858 78.3683683683683 L 682.0952380952381 80.93093093093091 L 692.4761904761905 98.2282282282282 L 702.8571428571429 134.4244244244244 L 713.2380952380953 169.97997997997993 L 723.6190476190476 199.44944944944945 L 734 199.44944944944945 L 744.3809523809524 199.44944944944945 L 754.7619047619048 199.44944944944945 L 765.1428571428572 199.44944944944945 L 775.5238095238095 199.44944944944945 L 785.9047619047619 199.44944944944945 L 796.2857142857143 199.44944944944945 L 806.6666666666667 199.44944944944945 L 817.047619047619 199.44944944944945 L 827.4285714285714 199.44944944944945 L 837.8095238095239 199.44944944944945 L 848.1904761904763 199.44944944944945 L 858.5714285714286 199.44944944944945 L 868.952380952381 199.44944944944945 L 879.3333333333334 199.44944944944945 L 889.7142857142858 199.44944944944945 L 900.0952380952381 199.44944944944945 L 910.4761904761905 199.44944944944945 L 920.8571428571429 199.12912912912907 L 931.2380952380953 198.80880880880878 L 941.6190476190477 198.80880880880878 L 952 195.92592592592587 L 962.3809523809524 153.6436436436436 L 972.7619047619048 153.6436436436436 L 983.1428571428572 153.6436436436436 L 993.5238095238095 153.6436436436436 L 1003.9047619047619 153.6436436436436 L 1014.2857142857143 153.6436436436436 L 1024.6666666666667 153.6436436436436 L 1035.047619047619 153.6436436436436 L 1045.4285714285716 153.6436436436436 L 1055.8095238095239 153.6436436436436 L 1066.1904761904761 153.6436436436436 L 1076.5714285714287 153.6436436436436 L 1086.952380952381 153.6436436436436 L 1097.3333333333335 153.6436436436436 L 1107.7142857142858 153.6436436436436 L 1118.095238095238 153.6436436436436 L 1128.4761904761906 153.6436436436436 L 1138.857142857143 152.68268268268264 L 1149.2380952380952 152.36236236236235 L 1159.6190476190477 152.36236236236235 L 1170 152.36236236236235" fill="none" stroke="#b91c1c" stroke-width="3" /><text x="80" y="370" font-size="11" text-anchor="middle" fill="#475569">2017-06</text><text x="163.04761904761904" y="370" font-size="11" text-anchor="middle" fill="#475569">2018-02</text><text x="246.0952380952381" y="370" font-size="11" text-anchor="middle" fill="#475569">2018-10</text><text x="329.14285714285717" y="370" font-size="11" text-anchor="middle" fill="#475569">2019-06</text><text x="412.1904761904762" y="370" font-size="11" text-anchor="middle" fill="#475569">2020-02</text><text x="495.23809523809524" y="370" font-size="11" text-anchor="middle" fill="#475569">2020-10</text><text x="578.2857142857143" y="370" font-size="11" text-anchor="middle" fill="#475569">2021-06</text><text x="661.3333333333334" y="370" font-size="11" text-anchor="middle" fill="#475569">2022-02</text><text x="744.3809523809524" y="370" font-size="11" text-anchor="middle" fill="#475569">2022-10</text><text x="827.4285714285714" y="370" font-size="11" text-anchor="middle" fill="#475569">2023-06</text><text x="910.4761904761905" y="370" font-size="11" text-anchor="middle" fill="#475569">2024-02</text><text x="993.5238095238095" y="370" font-size="11" text-anchor="middle" fill="#475569">2024-10</text><text x="1076.5714285714287" y="370" font-size="11" text-anchor="middle" fill="#475569">2025-06</text><text x="1159.6190476190477" y="370" font-size="11" text-anchor="middle" fill="#475569">2026-02</text><text x="1170" y="370" font-size="11" text-anchor="middle" fill="#475569">2026-03</text>
<text x="18" y="190" font-size="12" fill="#475569" transform="rotate(-90 18 190)">Average spread in rupees per litre</text>
</svg>