<?xml version="1.0" encoding="UTF-8"?>
<svg xmlns="http://www.w3.org/2000/svg" width="1200" height="420" viewBox="0 0 1200 420">
<rect width="100%" height="100%" fill="#ffffff" />
<text x="80" y="22" font-size="20" font-weight="700" fill="#0f172a">Monthly Average Retail Selling Prices of Petrol and Diesel in Mumbai</text>
<rect x="80" y="8" width="14" height="14" fill="#b91c1c" /><text x="100" y="20" font-size="12" fill="#0f172a">Petrol</text><rect x="300" y="8" width="14" height="14" fill="#1d4ed8" /><text x="320" y="20" font-size="12" fill="#0f172a">Diesel</text><line x1="80" y1="350" x2="1170" y2="350" stroke="#e5e7eb" />
      <text x="70" y="354" font-size="12" text-anchor="end" fill="#475569">58.7</text><line x1="80" y1="286" x2="1170" y2="286" stroke="#e5e7eb" />
      <text x="70" y="290" font-size="12" text-anchor="end" fill="#475569">70.99</text><line x1="80" y1="222.00000000000006" x2="1170" y2="222.00000000000006" stroke="#e5e7eb" />
      <text x="70" y="226.00000000000006" font-size="12" text-anchor="end" fill="#475569">83.27</text><line x1="80" y1="158.00000000000006" x2="1170" y2="158.00000000000006" stroke="#e5e7eb" />
      <text x="70" y="162.00000000000006" font-size="12" text-anchor="end" fill="#475569">95.56</text><line x1="80" y1="94.00000000000003" x2="1170" y2="94.00000000000003" stroke="#e5e7eb" />
      <text x="70" y="98.00000000000003" font-size="12" text-anchor="end" fill="#475569">107.84</text><line x1="80" y1="30" x2="1170" y2="30" stroke="#e5e7eb" />
      <text x="70" y="34" font-size="12" text-anchor="end" fill="#475569">120.13</text>
<line x1="80" y1="350" x2="1170" y2="350" stroke="#475569" stroke-width="1.5" />
<line x1="80" y1="30" x2="80" y2="350" stroke="#475569" stroke-width="1.5" />
<path d="M 80 262.7983070161159 L 90.38095238095238 270.5078951652288 L 100.76190476190476 255.14081067882145 L 111.14285714285714 242.58668403060398 L 121.52380952380952 257.2244831515546 L 131.9047619047619 256.44310597427966 L 142.28571428571428 254.4636171251831 L 152.66666666666669 242.8992349015139 L 163.04761904761904 237.01286016604263 L 173.42857142857144 237.42959466058926 L 183.8095238095238 228.5739866514732 L 194.1904761904762 219.4579195832655 L 204.57142857142858 216.38450268598407 L 214.95238095238096 219.71837864235718 L 225.33333333333334 214.2487384014325 L 235.71428571428572 193.4120136741006 L 246.0952380952381 199.24629659775354 L 256.4761904761905 227.11541592055994 L 266.8571428571429 259.4644310597428 L 277.23809523809524 261.65228715611266 L 287.6190476190476 257.43285039882795 L 298 248.6293342015302 L 308.3809523809524 246.85821259970697 L 318.76190476190476 251.80693472244832 L 329.14285714285717 259.3081556242878 L 339.5238095238095 247.7437734006186 L 349.9047619047619 250.71300667426337 L 360.2857142857143 247.43122252970863 L 370.6666666666667 243.8889793260622 L 381.04761904761904 242.430408595149 L 391.42857142857144 236.596125671496 L 401.8095238095238 235.86684030603942 L 412.1904761904762 250.0358131206251 L 422.5714285714286 260.6104509197461 L 432.95238095238096 258.2663193879212 L 443.33333333333337 258.2663193879212 L 453.7142857142857 223.3648054696402 L 464.09523809523813 201.59042812957838 L 474.4761904761905 199.1421129741169 L 484.8571428571429 196.2249715122904 L 495.23809523809524 198.72537847957028 L 505.61904761904765 197.37099137229367 L 516 186.0670682077161 L 526.3809523809524 179.13885723587822 L 536.7619047619048 159.3439687449129 L 547.1428571428571 148.04004558033535 L 557.5238095238095 151.0092788539801 L 567.9047619047619 141.9973954094091 L 578.2857142857143 120.90021162298547 L 588.6666666666667 97.87563079928375 L 599.047619047619 94.54175484291062 L 609.4285714285714 96.78170275109878 L 619.8095238095239 75.63242715285685 L 630.1904761904763 79.85186391014162 L 640.5714285714286 82.87318899560472 L 650.952380952381 82.87318899560472 L 661.3333333333334 82.87318899560472 L 671.7142857142858 76.83053882467851 L 682.0952380952381 30 L 692.4761904761905 43.38759563731071 L 702.8571428571429 75.73661077649359 L 713.2380952380953 90.1139508383526 L 723.6190476190476 101.99088393293178 L 734 101.99088393293178 L 744.3809523809524 101.99088393293178 L 754.7619047619048 101.99088393293178 L 765.1428571428572 101.99088393293178 L 775.5238095238095 101.99088393293178 L 785.9047619047619 101.99088393293178 L 796.2857142857143 101.99088393293178 L 806.6666666666667 101.99088393293178 L 817.047619047619 101.99088393293178 L 827.4285714285714 101.99088393293178 L 837.8095238095239 101.99088393293178 L 848.1904761904763 101.99088393293178 L 858.5714285714286 101.99088393293178 L 868.952380952381 101.99088393293178 L 879.3333333333334 101.99088393293178 L 889.7142857142858 101.99088393293178 L 900.0952380952381 101.99088393293178 L 910.4761904761905 101.99088393293178 L 920.8571428571429 107.98144229203973 L 931.2380952380953 112.93016441478105 L 941.6190476190477 112.93016441478105 L 952 113.1906234738727 L 962.3809523809524 116.94123392479244 L 972.7619047619048 116.94123392479244 L 983.1428571428572 116.94123392479244 L 993.5238095238095 116.94123392479244 L 1003.9047619047619 116.94123392479244 L 1014.2857142857143 116.62868305388244 L 1024.6666666666667 116.62868305388244 L 1035.047619047619 116.62868305388244 L 1045.4285714285716 116.62868305388244 L 1055.8095238095239 116.62868305388244 L 1066.1904761904761 116.62868305388244 L 1076.5714285714287 116.62868305388244 L 1086.952380952381 116.62868305388244 L 1097.3333333333335 116.62868305388244 L 1107.7142857142858 116.62868305388244 L 1118.095238095238 116.62868305388244 L 1128.4761904761906 116.62868305388244 L 1138.857142857143 116.47240761842744 L 1149.2380952380952 116.4203158066091 L 1159.6190476190477 116.4203158066091 L 1170 116.4203158066091" fill="none" stroke="#b91c1c" stroke-width="3" /><path d="M 80 347.3433175972652 L 90.38095238095238 350 L 100.76190476190476 341.1964838027023 L 111.14285714285714 332.8617939117695 L 121.52380952380952 342.3425036627055 L 131.9047619047619 338.6439850236041 L 142.28571428571428 333.6431710890444 L 152.66666666666669 312.75435454989423 L 163.04761904761904 305.148950024418 L 173.42857142857144 305.930327201693 L 183.8095238095238 293.7929350480222 L 194.1904761904762 283.3745726843562 L 204.57142857142858 278.7904932443431 L 214.95238095238096 280.0927885398014 L 225.33333333333334 274.93569916978674 L 235.71428571428572 251.3902002279017 L 246.0952380952381 247.06657984698035 L 256.4761904761905 265.4028976070324 L 266.8571428571429 302.9090021162299 L 277.23809523809524 305.3573172716914 L 287.6190476190476 295.72033208530036 L 298 290.0944164089207 L 308.3809523809524 294.2096695425688 L 318.76190476190476 293.53247598893046 L 329.14285714285717 303.8987465407781 L 339.5238095238095 295.66824027348207 L 349.9047619047619 298.1165554289435 L 360.2857142857143 295.5640566498453 L 370.6666666666667 292.75109881165554 L 381.04761904761904 296.29334201530196 L 391.42857142857144 292.90737424711057 L 401.8095238095238 283.5829399316295 L 412.1904761904762 300.51277877258667 L 422.5714285714286 313.0669054208041 L 432.95238095238096 310.87904932443433 L 443.33333333333337 310.87904932443433 L 453.7142857142857 273.00830213250856 L 464.09523809523813 241.805306853329 L 474.4761904761905 238.4714308969559 L 484.8571428571429 245.6080091160671 L 495.23809523809524 255.40126973791308 L 505.61904761904765 253.10923001790655 L 516 237.32541103695263 L 526.3809523809524 229.66791469965816 L 536.7619047619048 207.26843561777636 L 547.1428571428571 194.81849259319551 L 557.5238095238095 197.99609311411365 L 567.9047619047619 186.27543545498946 L 578.2857142857143 162.52156926583103 L 588.6666666666667 149.02979000488358 L 599.047619047619 150.01953442943181 L 609.4285714285714 153.71805306853332 L 619.8095238095239 124.49454663845029 L 630.1904761904763 158.87514243854793 L 640.5714285714286 165.38661891583916 L 650.952380952381 165.38661891583916 L 661.3333333333334 165.38661891583916 L 671.7142857142858 159.2397851212763 L 682.0952380952381 111.9925118020511 L 692.4761904761905 122.61924141299039 L 702.8571428571429 149.02979000488358 L 713.2380952380953 157.62493895490803 L 723.6190476190476 164.7094253622009 L 734 164.7094253622009 L 744.3809523809524 164.7094253622009 L 754.7619047619048 164.7094253622009 L 765.1428571428572 164.7094253622009 L 775.5238095238095 164.7094253622009 L 785.9047619047619 164.7094253622009 L 796.2857142857143 164.7094253622009 L 806.6666666666667 164.7094253622009 L 817.047619047619 164.7094253622009 L 827.4285714285714 164.7094253622009 L 837.8095238095239 164.7094253622009 L 848.1904761904763 164.7094253622009 L 858.5714285714286 164.7094253622009 L 868.952380952381 164.7094253622009 L 879.3333333333334 164.7094253622009 L 889.7142857142858 164.7094253622009 L 900.0952380952381 164.7094253622009 L 910.4761904761905 164.7094253622009 L 920.8571428571429 170.7520755331271 L 931.2380952380953 175.75288946768677 L 941.6190476190477 175.75288946768677 L 952 176.53426664496175 L 962.3809523809524 187.10890444408273 L 972.7619047619048 187.10890444408273 L 983.1428571428572 187.10890444408273 L 993.5238095238095 187.10890444408273 L 1003.9047619047619 187.10890444408273 L 1014.2857142857143 186.7963535731727 L 1024.6666666666667 186.7963535731727 L 1035.047619047619 186.7963535731727 L 1045.4285714285716 186.7963535731727 L 1055.8095238095239 186.7963535731727 L 1066.1904761904761 186.7963535731727 L 1076.5714285714287 186.7963535731727 L 1086.952380952381 186.7963535731727 L 1097.3333333333335 186.7963535731727 L 1107.7142857142858 186.7963535731727 L 1118.095238095238 186.7963535731727 L 1128.4761904761906 186.7963535731727 L 1138.857142857143 186.7963535731727 L 1149.2380952380952 186.7963535731727 L 1159.6190476190477 186.7963535731727 L 1170 186.7963535731727" fill="none" stroke="#1d4ed8" stroke-width="3" /><text x="80" y="370" font-size="11" text-anchor="middle" fill="#475569">2017-06</text><text x="163.04761904761904" y="370" font-size="11" text-anchor="middle" fill="#475569">2018-02</text><text x="246.0952380952381" y="370" font-size="11" text-anchor="middle" fill="#475569">2018-10</text><text x="329.14285714285717" y="370" font-size="11" text-anchor="middle" fill="#475569">2019-06</text><text x="412.1904761904762" y="370" font-size="11" text-anchor="middle" fill="#475569">2020-02</text><text x="495.23809523809524" y="370" font-size="11" text-anchor="middle" fill="#475569">2020-10</text><text x="578.2857142857143" y="370" font-size="11" text-anchor="middle" fill="#475569">2021-06</text><text x="661.3333333333334" y="370" font-size="11" text-anchor="middle" fill="#475569">2022-02</text><text x="744.3809523809524" y="370" font-size="11" text-anchor="middle" fill="#475569">2022-10</text><text x="827.4285714285714" y="370" font-size="11" text-anchor="middle" fill="#475569">2023-06</text><text x="910.4761904761905" y="370" font-size="11" text-anchor="middle" fill="#475569">2024-02</text><text x="993.5238095238095" y="370" font-size="11" text-anchor="middle" fill="#475569">2024-10</text><text x="1076.5714285714287" y="370" font-size="11" text-anchor="middle" fill="#475569">2025-06</text><text x="1159.6190476190477" y="370" font-size="11" text-anchor="middle" fill="#475569">2026-02</text><text x="1170" y="370" font-size="11" text-anchor="middle" fill="#475569">2026-03</text>
<text x="18" y="190" font-size="12" fill="#475569" transform="rotate(-90 18 190)">Average price in rupees per litre</text>
</svg>