<?xml version="1.0" encoding="UTF-8"?>
<svg xmlns="http://www.w3.org/2000/svg" width="1200" height="420" viewBox="0 0 1200 420">
<rect width="100%" height="100%" fill="#ffffff" />
<text x="80" y="22" font-size="20" font-weight="700" fill="#0f172a">Lag Based Ridge Regression Model for Mumbai Petrol Price on the Holdout Test Window</text>
<rect x="80" y="8" width="14" height="14" fill="#b91c1c" /><text x="100" y="20" font-size="12" fill="#0f172a">Actual price</text><rect x="300" y="8" width="14" height="14" fill="#1d4ed8" /><text x="320" y="20" font-size="12" fill="#0f172a">Predicted price</text><rect x="520" y="8" width="14" height="14" fill="#047857" /><text x="540" y="20" font-size="12" fill="#0f172a">Lag one baseline</text><line x1="80" y1="350" x2="1170" y2="350" stroke="#e5e7eb" />
      <text x="70" y="354" font-size="12" text-anchor="end" fill="#475569">103.39</text><line x1="80" y1="286.0000000000011" x2="1170" y2="286.0000000000011" stroke="#e5e7eb" />
      <text x="70" y="290.0000000000011" font-size="12" text-anchor="end" fill="#475569">103.56</text><line x1="80" y1="222.0000000000022" x2="1170" y2="222.0000000000022" stroke="#e5e7eb" />
      <text x="70" y="226.0000000000022" font-size="12" text-anchor="end" fill="#475569">103.72</text><line x1="80" y1="157.9999999999978" x2="1170" y2="157.9999999999978" stroke="#e5e7eb" />
      <text x="70" y="161.9999999999978" font-size="12" text-anchor="end" fill="#475569">103.89</text><line x1="80" y1="93.99999999999892" x2="1170" y2="93.99999999999892" stroke="#e5e7eb" />
      <text x="70" y="97.99999999999892" font-size="12" text-anchor="end" fill="#475569">104.05</text><line x1="80" y1="30" x2="1170" y2="30" stroke="#e5e7eb" />
      <text x="70" y="34" font-size="12" text-anchor="end" fill="#475569">104.22</text>
<line x1="80" y1="350" x2="1170" y2="350" stroke="#475569" stroke-width="1.5" />
<line x1="80" y1="30" x2="80" y2="350" stroke="#475569" stroke-width="1.5" />
<path d="M 80 33.85542168674897 L 89.15966386554622 33.85542168674897 L 98.31932773109244 33.85542168674897 L 107.47899159663865 33.85542168674897 L 116.63865546218487 33.85542168674897 L 125.7983193277311 33.85542168674897 L 134.9579831932773 33.85542168674897 L 144.11764705882354 33.85542168674897 L 153.27731092436974 33.85542168674897 L 162.43697478991595 33.85542168674897 L 171.5966386554622 33.85542168674897 L 180.7563025210084 33.85542168674897 L 189.9159663865546 33.85542168674897 L 199.07563025210084 33.85542168674897 L 208.23529411764704 33.85542168674897 L 217.39495798319328 33.85542168674897 L 226.5546218487395 330.7228915662661 L 235.7142857142857 330.7228915662661 L 244.87394957983193 330.7228915662661 L 254.03361344537814 330.7228915662661 L 263.1932773109244 330.7228915662661 L 272.3529411764706 330.7228915662661 L 281.5126050420168 330.7228915662661 L 290.672268907563 330.7228915662661 L 299.8319327731092 330.7228915662661 L 308.99159663865544 330.7228915662661 L 318.1512605042017 330.7228915662661 L 327.3109243697479 330.7228915662661 L 336.4705882352941 330.7228915662661 L 345.6302521008403 330.7228915662661 L 354.78991596638656 330.7228915662661 L 363.94957983193274 330.7228915662661 L 373.109243697479 330.7228915662661 L 382.2689075630252 330.7228915662661 L 391.4285714285714 330.7228915662661 L 400.5882352941176 330.7228915662661 L 409.74789915966386 330.7228915662661 L 418.90756302521004 330.7228915662661 L 428.0672268907563 330.7228915662661 L 437.2268907563025 330.7228915662661 L 446.38655462184875 330.7228915662661 L 455.5462184873949 330.7228915662661 L 464.70588235294116 330.7228915662661 L 473.8655462184874 330.7228915662661 L 483.0252100840336 330.7228915662661 L 492.1848739495798 330.7228915662661 L 501.34453781512605 330.7228915662661 L 510.5042016806722 330.7228915662661 L 519.6638655462184 330.7228915662661 L 528.8235294117646 330.7228915662661 L 537.9831932773109 330.7228915662661 L 547.1428571428571 330.7228915662661 L 556.3025210084033 330.7228915662661 L 565.4621848739496 330.7228915662661 L 574.6218487394958 330.7228915662661 L 583.781512605042 330.7228915662661 L 592.9411764705882 330.7228915662661 L 602.1008403361344 330.7228915662661 L 611.2605042016806 330.7228915662661 L 620.4201680672269 330.7228915662661 L 629.5798319327731 330.7228915662661 L 638.7394957983192 330.7228915662661 L 647.8991596638655 330.7228915662661 L 657.0588235294117 330.7228915662661 L 666.218487394958 330.7228915662661 L 675.3781512605042 330.7228915662661 L 684.5378151260504 330.7228915662661 L 693.6974789915967 330.7228915662661 L 702.8571428571428 330.7228915662661 L 712.016806722689 330.7228915662661 L 721.1764705882352 330.7228915662661 L 730.3361344537815 330.7228915662661 L 739.4957983193277 330.7228915662661 L 748.655462184874 330.7228915662661 L 757.8151260504201 330.7228915662661 L 766.9747899159663 330.7228915662661 L 776.1344537815125 330.7228915662661 L 785.2941176470588 330.7228915662661 L 794.453781512605 330.7228915662661 L 803.6134453781513 330.7228915662661 L 812.7731092436975 330.7228915662661 L 821.9327731092436 330.7228915662661 L 831.0924369747898 330.7228915662661 L 840.2521008403361 330.7228915662661 L 849.4117647058823 330.7228915662661 L 858.5714285714286 330.7228915662661 L 867.7310924369748 330.7228915662661 L 876.8907563025209 330.7228915662661 L 886.0504201680671 330.7228915662661 L 895.2100840336134 330.7228915662661 L 904.3697478991596 330.7228915662661 L 913.5294117647059 330.7228915662661 L 922.6890756302521 330.7228915662661 L 931.8487394957982 330.7228915662661 L 941.0084033613444 330.7228915662661 L 950.1680672268907 330.7228915662661 L 959.3277310924369 330.7228915662661 L 968.4873949579832 330.7228915662661 L 977.6470588235294 330.7228915662661 L 986.8067226890756 330.7228915662661 L 995.9663865546217 330.7228915662661 L 1005.126050420168 330.7228915662661 L 1014.2857142857142 330.7228915662661 L 1023.4453781512605 330.7228915662661 L 1032.6050420168067 330.7228915662661 L 1041.764705882353 330.7228915662661 L 1050.9243697478992 330.7228915662661 L 1060.0840336134452 330.7228915662661 L 1069.2436974789916 330.7228915662661 L 1078.4033613445376 330.7228915662661 L 1087.563025210084 330.7228915662661 L 1096.7226890756301 330.7228915662661 L 1105.8823529411764 330.7228915662661 L 1115.0420168067226 330.7228915662661 L 1124.2016806722688 330.7228915662661 L 1133.361344537815 330.7228915662661 L 1142.5210084033613 330.7228915662661 L 1151.6806722689075 330.7228915662661 L 1160.8403361344538 330.7228915662661 L 1170 330.7228915662661" fill="none" stroke="#b91c1c" stroke-width="3" /><path d="M 80 30 L 89.15966386554622 30 L 98.31932773109244 30 L 107.47899159663865 30 L 116.63865546218487 30 L 125.7983193277311 30 L 134.9579831932773 30 L 144.11764705882354 30 L 153.27731092436974 30 L 162.43697478991595 30 L 171.5966386554622 30 L 180.7563025210084 30 L 189.9159663865546 30 L 199.07563025210084 30 L 208.23529411764704 30 L 217.39495798319328 30 L 226.5546218487395 30 L 235.7142857142857 350 L 244.87394957983193 350 L 254.03361344537814 346.14457831325103 L 263.1932773109244 346.14457831325103 L 272.3529411764706 346.14457831325103 L 281.5126050420168 342.2891566265075 L 290.672268907563 330.7228915662661 L 299.8319327731092 334.5783132530096 L 308.99159663865544 330.7228915662661 L 318.1512605042017 330.7228915662661 L 327.3109243697479 330.7228915662661 L 336.4705882352941 330.7228915662661 L 345.6302521008403 330.7228915662661 L 354.78991596638656 326.86746987951716 L 363.94957983193274 326.86746987951716 L 373.109243697479 326.86746987951716 L 382.2689075630252 326.86746987951716 L 391.4285714285714 326.86746987951716 L 400.5882352941176 326.86746987951716 L 409.74789915966386 326.86746987951716 L 418.90756302521004 326.86746987951716 L 428.0672268907563 326.86746987951716 L 437.2268907563025 326.86746987951716 L 446.38655462184875 326.86746987951716 L 455.5462184873949 326.86746987951716 L 464.70588235294116 326.86746987951716 L 473.8655462184874 326.86746987951716 L 483.0252100840336 326.86746987951716 L 492.1848739495798 326.86746987951716 L 501.34453781512605 326.86746987951716 L 510.5042016806722 326.86746987951716 L 519.6638655462184 326.86746987951716 L 528.8235294117646 326.86746987951716 L 537.9831932773109 326.86746987951716 L 547.1428571428571 326.86746987951716 L 556.3025210084033 326.86746987951716 L 565.4621848739496 326.86746987951716 L 574.6218487394958 326.86746987951716 L 583.781512605042 326.86746987951716 L 592.9411764705882 326.86746987951716 L 602.1008403361344 326.86746987951716 L 611.2605042016806 326.86746987951716 L 620.4201680672269 326.86746987951716 L 629.5798319327731 326.86746987951716 L 638.7394957983192 326.86746987951716 L 647.8991596638655 326.86746987951716 L 657.0588235294117 326.86746987951716 L 666.218487394958 326.86746987951716 L 675.3781512605042 326.86746987951716 L 684.5378151260504 326.86746987951716 L 693.6974789915967 326.86746987951716 L 702.8571428571428 326.86746987951716 L 712.016806722689 326.86746987951716 L 721.1764705882352 326.86746987951716 L 730.3361344537815 326.86746987951716 L 739.4957983193277 326.86746987951716 L 748.655462184874 326.86746987951716 L 757.8151260504201 326.86746987951716 L 766.9747899159663 326.86746987951716 L 776.1344537815125 326.86746987951716 L 785.2941176470588 326.86746987951716 L 794.453781512605 326.86746987951716 L 803.6134453781513 326.86746987951716 L 812.7731092436975 330.7228915662661 L 821.9327731092436 330.7228915662661 L 831.0924369747898 330.7228915662661 L 840.2521008403361 330.7228915662661 L 849.4117647058823 330.7228915662661 L 858.5714285714286 330.7228915662661 L 867.7310924369748 330.7228915662661 L 876.8907563025209 330.7228915662661 L 886.0504201680671 330.7228915662661 L 895.2100840336134 330.7228915662661 L 904.3697478991596 330.7228915662661 L 913.5294117647059 330.7228915662661 L 922.6890756302521 330.7228915662661 L 931.8487394957982 330.7228915662661 L 941.0084033613444 330.7228915662661 L 950.1680672268907 330.7228915662661 L 959.3277310924369 330.7228915662661 L 968.4873949579832 330.7228915662661 L 977.6470588235294 330.7228915662661 L 986.8067226890756 330.7228915662661 L 995.9663865546217 330.7228915662661 L 1005.126050420168 330.7228915662661 L 1014.2857142857142 330.7228915662661 L 1023.4453781512605 330.7228915662661 L 1032.6050420168067 330.7228915662661 L 1041.764705882353 330.7228915662661 L 1050.9243697478992 330.7228915662661 L 1060.0840336134452 330.7228915662661 L 1069.2436974789916 330.7228915662661 L 1078.4033613445376 330.7228915662661 L 1087.563025210084 330.7228915662661 L 1096.7226890756301 330.7228915662661 L 1105.8823529411764 330.7228915662661 L 1115.0420168067226 330.7228915662661 L 1124.2016806722688 330.7228915662661 L 1133.361344537815 330.7228915662661 L 1142.5210084033613 330.7228915662661 L 1151.6806722689075 330.7228915662661 L 1160.8403361344538 330.7228915662661 L 1170 330.7228915662661" fill="none" stroke="#1d4ed8" stroke-width="3" /><path d="M 80 33.85542168674897 L 89.15966386554622 33.85542168674897 L 98.31932773109244 33.85542168674897 L 107.47899159663865 33.85542168674897 L 116.63865546218487 33.85542168674897 L 125.7983193277311 33.85542168674897 L 134.9579831932773 33.85542168674897 L 144.11764705882354 33.85542168674897 L 153.27731092436974 33.85542168674897 L 162.43697478991595 33.85542168674897 L 171.5966386554622 33.85542168674897 L 180.7563025210084 33.85542168674897 L 189.9159663865546 33.85542168674897 L 199.07563025210084 33.85542168674897 L 208.23529411764704 33.85542168674897 L 217.39495798319328 33.85542168674897 L 226.5546218487395 33.85542168674897 L 235.7142857142857 330.7228915662661 L 244.87394957983193 330.7228915662661 L 254.03361344537814 330.7228915662661 L 263.1932773109244 330.7228915662661 L 272.3529411764706 330.7228915662661 L 281.5126050420168 330.7228915662661 L 290.672268907563 330.7228915662661 L 299.8319327731092 330.7228915662661 L 308.99159663865544 330.7228915662661 L 318.1512605042017 330.7228915662661 L 327.3109243697479 330.7228915662661 L 336.4705882352941 330.7228915662661 L 345.6302521008403 330.7228915662661 L 354.78991596638656 330.7228915662661 L 363.94957983193274 330.7228915662661 L 373.109243697479 330.7228915662661 L 382.2689075630252 330.7228915662661 L 391.4285714285714 330.7228915662661 L 400.5882352941176 330.7228915662661 L 409.74789915966386 330.7228915662661 L 418.90756302521004 330.7228915662661 L 428.0672268907563 330.7228915662661 L 437.2268907563025 330.7228915662661 L 446.38655462184875 330.7228915662661 L 455.5462184873949 330.7228915662661 L 464.70588235294116 330.7228915662661 L 473.8655462184874 330.7228915662661 L 483.0252100840336 330.7228915662661 L 492.1848739495798 330.7228915662661 L 501.34453781512605 330.7228915662661 L 510.5042016806722 330.7228915662661 L 519.6638655462184 330.7228915662661 L 528.8235294117646 330.7228915662661 L 537.9831932773109 330.7228915662661 L 547.1428571428571 330.7228915662661 L 556.3025210084033 330.7228915662661 L 565.4621848739496 330.7228915662661 L 574.6218487394958 330.7228915662661 L 583.781512605042 330.7228915662661 L 592.9411764705882 330.7228915662661 L 602.1008403361344 330.7228915662661 L 611.2605042016806 330.7228915662661 L 620.4201680672269 330.7228915662661 L 629.5798319327731 330.7228915662661 L 638.7394957983192 330.7228915662661 L 647.8991596638655 330.7228915662661 L 657.0588235294117 330.7228915662661 L 666.218487394958 330.7228915662661 L 675.3781512605042 330.7228915662661 L 684.5378151260504 330.7228915662661 L 693.6974789915967 330.7228915662661 L 702.8571428571428 330.7228915662661 L 712.016806722689 330.7228915662661 L 721.1764705882352 330.7228915662661 L 730.3361344537815 330.7228915662661 L 739.4957983193277 330.7228915662661 L 748.655462184874 330.7228915662661 L 757.8151260504201 330.7228915662661 L 766.9747899159663 330.7228915662661 L 776.1344537815125 330.7228915662661 L 785.2941176470588 330.7228915662661 L 794.453781512605 330.7228915662661 L 803.6134453781513 330.7228915662661 L 812.7731092436975 330.7228915662661 L 821.9327731092436 330.7228915662661 L 831.0924369747898 330.7228915662661 L 840.2521008403361 330.7228915662661 L 849.4117647058823 330.7228915662661 L 858.5714285714286 330.7228915662661 L 867.7310924369748 330.7228915662661 L 876.8907563025209 330.7228915662661 L 886.0504201680671 330.7228915662661 L 895.2100840336134 330.7228915662661 L 904.3697478991596 330.7228915662661 L 913.5294117647059 330.7228915662661 L 922.6890756302521 330.7228915662661 L 931.8487394957982 330.7228915662661 L 941.0084033613444 330.7228915662661 L 950.1680672268907 330.7228915662661 L 959.3277310924369 330.7228915662661 L 968.4873949579832 330.7228915662661 L 977.6470588235294 330.7228915662661 L 986.8067226890756 330.7228915662661 L 995.9663865546217 330.7228915662661 L 1005.126050420168 330.7228915662661 L 1014.2857142857142 330.7228915662661 L 1023.4453781512605 330.7228915662661 L 1032.6050420168067 330.7228915662661 L 1041.764705882353 330.7228915662661 L 1050.9243697478992 330.7228915662661 L 1060.0840336134452 330.7228915662661 L 1069.2436974789916 330.7228915662661 L 1078.4033613445376 330.7228915662661 L 1087.563025210084 330.7228915662661 L 1096.7226890756301 330.7228915662661 L 1105.8823529411764 330.7228915662661 L 1115.0420168067226 330.7228915662661 L 1124.2016806722688 330.7228915662661 L 1133.361344537815 330.7228915662661 L 1142.5210084033613 330.7228915662661 L 1151.6806722689075 330.7228915662661 L 1160.8403361344538 330.7228915662661 L 1170 330.7228915662661" fill="none" stroke="#047857" stroke-width="3" /><text x="80" y="370" font-size="11" text-anchor="middle" fill="#475569">2024-06-13</text><text x="171.5966386554622" y="370" font-size="11" text-anchor="middle" fill="#475569">2024-06-23</text><text x="263.1932773109244" y="370" font-size="11" text-anchor="middle" fill="#475569">2024-07-03</text><text x="354.78991596638656" y="370" font-size="11" text-anchor="middle" fill="#475569">2024-07-13</text><text x="446.38655462184875" y="370" font-size="11" text-anchor="middle" fill="#475569">2024-07-23</text><text x="537.9831932773109" y="370" font-size="11" text-anchor="middle" fill="#475569">2024-08-02</text><text x="629.5798319327731" y="370" font-size="11" text-anchor="middle" fill="#475569">2024-08-12</text><text x="721.1764705882352" y="370" font-size="11" text-anchor="middle" fill="#475569">2024-08-22</text><text x="812.7731092436975" y="370" font-size="11" text-anchor="middle" fill="#475569">2024-09-01</text><text x="904.3697478991596" y="370" font-size="11" text-anchor="middle" fill="#475569">2024-09-11</text><text x="995.9663865546217" y="370" font-size="11" text-anchor="middle" fill="#475569">2024-09-21</text><text x="1087.563025210084" y="370" font-size="11" text-anchor="middle" fill="#475569">2024-10-01</text><text x="1170" y="370" font-size="11" text-anchor="middle" fill="#475569">2024-10-10</text>
<text x="18" y="190" font-size="12" fill="#475569" transform="rotate(-90 18 190)">Price in rupees per litre</text>
</svg>