<?xml version="1.0" encoding="UTF-8"?>
<svg xmlns="http://www.w3.org/2000/svg" width="760" height="520" viewBox="0 0 760 520">
<rect width="100%" height="100%" fill="#ffffff" />
<text x="80" y="22" font-size="20" font-weight="700" fill="#0f172a">Diagnostic Scatter Plot of Actual Versus Predicted Mumbai Petrol Prices</text>
<line x1="80" y1="450" x2="730" y2="450" stroke="#475569" stroke-width="1.5" />
<line x1="80" y1="30" x2="80" y2="450" stroke="#475569" stroke-width="1.5" />
<line x1="80" y1="424.6987951807243" x2="730" y2="35.06024096385801" stroke="#dc2626" stroke-width="2" stroke-dasharray="6 4" />
<circle cx="730" cy="30" r="3.2" fill="#7c3aed" fill-opacity="0.65" /><circle cx="730" cy="30" r="3.2" fill="#7c3aed" fill-opacity="0.65" /><circle cx="730" cy="30" r="3.2" fill="#7c3aed" fill-opacity="0.65" /><circle cx="730" cy="30" r="3.2" fill="#7c3aed" fill-opacity="0.65" /><circle cx="730" cy="30" r="3.2" fill="#7c3aed" fill-opacity="0.65" /><circle cx="730" cy="30" r="3.2" fill="#7c3aed" fill-opacity="0.65" /><circle cx="730" cy="30" r="3.2" fill="#7c3aed" fill-opacity="0.65" /><circle cx="730" cy="30" r="3.2" fill="#7c3aed" fill-opacity="0.65" /><circle cx="730" cy="30" r="3.2" fill="#7c3aed" fill-opacity="0.65" /><circle cx="730" cy="30" r="3.2" fill="#7c3aed" fill-opacity="0.65" /><circle cx="730" cy="30" r="3.2" fill="#7c3aed" fill-opacity="0.65" /><circle cx="730" cy="30" r="3.2" fill="#7c3aed" fill-opacity="0.65" /><circle cx="730" cy="30" r="3.2" fill="#7c3aed" fill-opacity="0.65" /><circle cx="730" cy="30" r="3.2" fill="#7c3aed" fill-opacity="0.65" /><circle cx="730" cy="30" r="3.2" fill="#7c3aed" fill-opacity="0.65" /><circle cx="730" cy="30" r="3.2" fill="#7c3aed" fill-opacity="0.65" /><circle cx="80" cy="30" r="3.2" fill="#7c3aed" fill-opacity="0.65" /><circle cx="80" cy="450" r="3.2" fill="#7c3aed" fill-opacity="0.65" /><circle cx="80" cy="450" r="3.2" fill="#7c3aed" fill-opacity="0.65" /><circle cx="80" cy="444.939759036142" r="3.2" fill="#7c3aed" fill-opacity="0.65" /><circle cx="80" cy="444.939759036142" r="3.2" fill="#7c3aed" fill-opacity="0.65" /><circle cx="80" cy="444.939759036142" r="3.2" fill="#7c3aed" fill-opacity="0.65" /><circle cx="80" cy="439.87951807229115" r="3.2" fill="#7c3aed" fill-opacity="0.65" /><circle cx="80" cy="424.6987951807243" r="3.2" fill="#7c3aed" fill-opacity="0.65" /><circle cx="80" cy="429.75903614457513" r="3.2" fill="#7c3aed" fill-opacity="0.65" /><circle cx="80" cy="424.6987951807243" r="3.2" fill="#7c3aed" fill-opacity="0.65" /><circle cx="80" cy="424.6987951807243" r="3.2" fill="#7c3aed" fill-opacity="0.65" /><circle cx="80" cy="424.6987951807243" r="3.2" fill="#7c3aed" fill-opacity="0.65" /><circle cx="80" cy="424.6987951807243" r="3.2" fill="#7c3aed" fill-opacity="0.65" /><circle cx="80" cy="424.6987951807243" r="3.2" fill="#7c3aed" fill-opacity="0.65" /><circle cx="80" cy="419.6385542168663" r="3.2" fill="#7c3aed" fill-opacity="0.65" /><circle cx="80" cy="419.6385542168663" r="3.2" fill="#7c3aed" fill-opacity="0.65" /><circle cx="80" cy="419.6385542168663" r="3.2" fill="#7c3aed" fill-opacity="0.65" /><circle cx="80" cy="419.6385542168663" r="3.2" fill="#7c3aed" fill-opacity="0.65" /><circle cx="80" cy="419.6385542168663" r="3.2" fill="#7c3aed" fill-opacity="0.65" /><circle cx="80" cy="419.6385542168663" r="3.2" fill="#7c3aed" fill-opacity="0.65" /><circle cx="80" cy="419.6385542168663" r="3.2" fill="#7c3aed" fill-opacity="0.65" /><circle cx="80" cy="419.6385542168663" r="3.2" fill="#7c3aed" fill-opacity="0.65" /><circle cx="80" cy="419.6385542168663" r="3.2" fill="#7c3aed" fill-opacity="0.65" /><circle cx="80" cy="419.6385542168663" r="3.2" fill="#7c3aed" fill-opacity="0.65" /><circle cx="80" cy="419.6385542168663" r="3.2" fill="#7c3aed" fill-opacity="0.65" /><circle cx="80" cy="419.6385542168663" r="3.2" fill="#7c3aed" fill-opacity="0.65" /><circle cx="80" cy="419.6385542168663" r="3.2" fill="#7c3aed" fill-opacity="0.65" /><circle cx="80" cy="419.6385542168663" r="3.2" fill="#7c3aed" fill-opacity="0.65" /><circle cx="80" cy="419.6385542168663" r="3.2" fill="#7c3aed" fill-opacity="0.65" /><circle cx="80" cy="419.6385542168663" r="3.2" fill="#7c3aed" fill-opacity="0.65" /><circle cx="80" cy="419.6385542168663" r="3.2" fill="#7c3aed" fill-opacity="0.65" /><circle cx="80" cy="419.6385542168663" r="3.2" fill="#7c3aed" fill-opacity="0.65" /><circle cx="80" cy="419.6385542168663" r="3.2" fill="#7c3aed" fill-opacity="0.65" /><circle cx="80" cy="419.6385542168663" r="3.2" fill="#7c3aed" fill-opacity="0.65" /><circle cx="80" cy="419.6385542168663" r="3.2" fill="#7c3aed" fill-opacity="0.65" /><circle cx="80" cy="419.6385542168663" r="3.2" fill="#7c3aed" fill-opacity="0.65" /><circle cx="80" cy="419.6385542168663" r="3.2" fill="#7c3aed" fill-opacity="0.65" /><circle cx="80" cy="419.6385542168663" r="3.2" fill="#7c3aed" fill-opacity="0.65" /><circle cx="80" cy="419.6385542168663" r="3.2" fill="#7c3aed" fill-opacity="0.65" /><circle cx="80" cy="419.6385542168663" r="3.2" fill="#7c3aed" fill-opacity="0.65" /><circle cx="80" cy="419.6385542168663" r="3.2" fill="#7c3aed" fill-opacity="0.65" /><circle cx="80" cy="419.6385542168663" r="3.2" fill="#7c3aed" fill-opacity="0.65" /><circle cx="80" cy="419.6385542168663" r="3.2" fill="#7c3aed" fill-opacity="0.65" /><circle cx="80" cy="419.6385542168663" r="3.2" fill="#7c3aed" fill-opacity="0.65" /><circle cx="80" cy="419.6385542168663" r="3.2" fill="#7c3aed" fill-opacity="0.65" /><circle cx="80" cy="419.6385542168663" r="3.2" fill="#7c3aed" fill-opacity="0.65" /><circle cx="80" cy="419.6385542168663" r="3.2" fill="#7c3aed" fill-opacity="0.65" /><circle cx="80" cy="419.6385542168663" r="3.2" fill="#7c3aed" fill-opacity="0.65" /><circle cx="80" cy="419.6385542168663" r="3.2" fill="#7c3aed" fill-opacity="0.65" /><circle cx="80" cy="419.6385542168663" r="3.2" fill="#7c3aed" fill-opacity="0.65" /><circle cx="80" cy="419.6385542168663" r="3.2" fill="#7c3aed" fill-opacity="0.65" /><circle cx="80" cy="419.6385542168663" r="3.2" fill="#7c3aed" fill-opacity="0.65" /><circle cx="80" cy="419.6385542168663" r="3.2" fill="#7c3aed" fill-opacity="0.65" /><circle cx="80" cy="419.6385542168663" r="3.2" fill="#7c3aed" fill-opacity="0.65" /><circle cx="80" cy="419.6385542168663" r="3.2" fill="#7c3aed" fill-opacity="0.65" /><circle cx="80" cy="419.6385542168663" r="3.2" fill="#7c3aed" fill-opacity="0.65" /><circle cx="80" cy="419.6385542168663" r="3.2" fill="#7c3aed" fill-opacity="0.65" /><circle cx="80" cy="419.6385542168663" r="3.2" fill="#7c3aed" fill-opacity="0.65" /><circle cx="80" cy="419.6385542168663" r="3.2" fill="#7c3aed" fill-opacity="0.65" /><circle cx="80" cy="419.6385542168663" r="3.2" fill="#7c3aed" fill-opacity="0.65" /><circle cx="80" cy="419.6385542168663" r="3.2" fill="#7c3aed" fill-opacity="0.65" /><circle cx="80" cy="419.6385542168663" r="3.2" fill="#7c3aed" fill-opacity="0.65" /><circle cx="80" cy="419.6385542168663" r="3.2" fill="#7c3aed" fill-opacity="0.65" /><circle cx="80" cy="419.6385542168663" r="3.2" fill="#7c3aed" fill-opacity="0.65" /><circle cx="80" cy="424.6987951807243" r="3.2" fill="#7c3aed" fill-opacity="0.65" /><circle cx="80" cy="424.6987951807243" r="3.2" fill="#7c3aed" fill-opacity="0.65" /><circle cx="80" cy="424.6987951807243" r="3.2" fill="#7c3aed" fill-opacity="0.65" /><circle cx="80" cy="424.6987951807243" r="3.2" fill="#7c3aed" fill-opacity="0.65" /><circle cx="80" cy="424.6987951807243" r="3.2" fill="#7c3aed" fill-opacity="0.65" /><circle cx="80" cy="424.6987951807243" r="3.2" fill="#7c3aed" fill-opacity="0.65" /><circle cx="80" cy="424.6987951807243" r="3.2" fill="#7c3aed" fill-opacity="0.65" /><circle cx="80" cy="424.6987951807243" r="3.2" fill="#7c3aed" fill-opacity="0.65" /><circle cx="80" cy="424.6987951807243" r="3.2" fill="#7c3aed" fill-opacity="0.65" /><circle cx="80" cy="424.6987951807243" r="3.2" fill="#7c3aed" fill-opacity="0.65" /><circle cx="80" cy="424.6987951807243" r="3.2" fill="#7c3aed" fill-opacity="0.65" /><circle cx="80" cy="424.6987951807243" r="3.2" fill="#7c3aed" fill-opacity="0.65" /><circle cx="80" cy="424.6987951807243" r="3.2" fill="#7c3aed" fill-opacity="0.65" /><circle cx="80" cy="424.6987951807243" r="3.2" fill="#7c3aed" fill-opacity="0.65" /><circle cx="80" cy="424.6987951807243" r="3.2" fill="#7c3aed" fill-opacity="0.65" /><circle cx="80" cy="424.6987951807243" r="3.2" fill="#7c3aed" fill-opacity="0.65" /><circle cx="80" cy="424.6987951807243" r="3.2" fill="#7c3aed" fill-opacity="0.65" /><circle cx="80" cy="424.6987951807243" r="3.2" fill="#7c3aed" fill-opacity="0.65" /><circle cx="80" cy="424.6987951807243" r="3.2" fill="#7c3aed" fill-opacity="0.65" /><circle cx="80" cy="424.6987951807243" r="3.2" fill="#7c3aed" fill-opacity="0.65" /><circle cx="80" cy="424.6987951807243" r="3.2" fill="#7c3aed" fill-opacity="0.65" /><circle cx="80" cy="424.6987951807243" r="3.2" fill="#7c3aed" fill-opacity="0.65" /><circle cx="80" cy="424.6987951807243" r="3.2" fill="#7c3aed" fill-opacity="0.65" /><circle cx="80" cy="424.6987951807243" r="3.2" fill="#7c3aed" fill-opacity="0.65" /><circle cx="80" cy="424.6987951807243" r="3.2" fill="#7c3aed" fill-opacity="0.65" /><circle cx="80" cy="424.6987951807243" r="3.2" fill="#7c3aed" fill-opacity="0.65" /><circle cx="80" cy="424.6987951807243" r="3.2" fill="#7c3aed" fill-opacity="0.65" /><circle cx="80" cy="424.6987951807243" r="3.2" fill="#7c3aed" fill-opacity="0.65" /><circle cx="80" cy="424.6987951807243" r="3.2" fill="#7c3aed" fill-opacity="0.65" /><circle cx="80" cy="424.6987951807243" r="3.2" fill="#7c3aed" fill-opacity="0.65" /><circle cx="80" cy="424.6987951807243" r="3.2" fill="#7c3aed" fill-opacity="0.65" /><circle cx="80" cy="424.6987951807243" r="3.2" fill="#7c3aed" fill-opacity="0.65" /><circle cx="80" cy="424.6987951807243" r="3.2" fill="#7c3aed" fill-opacity="0.65" /><circle cx="80" cy="424.6987951807243" r="3.2" fill="#7c3aed" fill-opacity="0.65" /><circle cx="80" cy="424.6987951807243" r="3.2" fill="#7c3aed" fill-opacity="0.65" /><circle cx="80" cy="424.6987951807243" r="3.2" fill="#7c3aed" fill-opacity="0.65" /><circle cx="80" cy="424.6987951807243" r="3.2" fill="#7c3aed" fill-opacity="0.65" /><circle cx="80" cy="424.6987951807243" r="3.2" fill="#7c3aed" fill-opacity="0.65" /><circle cx="80" cy="424.6987951807243" r="3.2" fill="#7c3aed" fill-opacity="0.65" /><circle cx="80" cy="424.6987951807243" r="3.2" fill="#7c3aed" fill-opacity="0.65" />
<text x="405" y="512" font-size="12" text-anchor="middle" fill="#475569">Actual petrol price in rupees per litre</text>
<text x="18" y="240" font-size="12" fill="#475569" transform="rotate(-90 18 240)">Predicted petrol price in rupees per litre</text>
</svg>