<?xml version="1.0" encoding="UTF-8"?>
<svg xmlns="http://www.w3.org/2000/svg" width="1200" height="430" viewBox="0 0 1200 430">
<rect width="100%" height="100%" fill="#ffffff" />
<text x="80" y="22" font-size="20" font-weight="700" fill="#0f172a">Monthly Average Mandi Prices of Onion and Tomato Across Pune District Markets</text>
<rect x="80" y="8" width="14" height="14" fill="#b91c1c" /><text x="100" y="20" font-size="12" fill="#0f172a">Onion average modal price</text><rect x="300" y="8" width="14" height="14" fill="#1d4ed8" /><text x="320" y="20" font-size="12" fill="#0f172a">Tomato average modal price</text><line x1="80" y1="360" x2="1170" y2="360" stroke="#e5e7eb" />
      <text x="70" y="364" font-size="12" text-anchor="end" fill="#475569">460.45</text><line x1="80" y1="294" x2="1170" y2="294" stroke="#e5e7eb" />
      <text x="70" y="298" font-size="12" text-anchor="end" fill="#475569">1623.63</text><line x1="80" y1="228" x2="1170" y2="228" stroke="#e5e7eb" />
      <text x="70" y="232" font-size="12" text-anchor="end" fill="#475569">2786.8</text><line x1="80" y1="162" x2="1170" y2="162" stroke="#e5e7eb" />
      <text x="70" y="166" font-size="12" text-anchor="end" fill="#475569">3949.98</text><line x1="80" y1="96" x2="1170" y2="96" stroke="#e5e7eb" />
      <text x="70" y="100" font-size="12" text-anchor="end" fill="#475569">5113.15</text><line x1="80" y1="30" x2="1170" y2="30" stroke="#e5e7eb" />
      <text x="70" y="34" font-size="12" text-anchor="end" fill="#475569">6276.33</text>
<line x1="80" y1="360" x2="1170" y2="360" stroke="#475569" stroke-width="1.5" />
<line x1="80" y1="30" x2="80" y2="360" stroke="#475569" stroke-width="1.5" />
<path d="M 80 349.80530891283865 L 90.38095238095238 344.41035578450726 L 100.76190476190476 284.6408797980701 L 111.14285714285714 303.58619847727255 L 121.52380952380952 265.3261759183477 L 131.9047619047619 214.89630116164707 L 142.28571428571428 240.57906971945772 L 152.66666666666669 262.88630439417597 L 163.04761904761904 306.2138833676073 L 173.42857142857144 336.98633740723676 L 183.8095238095238 347.5396328672531 L 194.1904761904762 348.6080696300474 L 204.57142857142858 333.7339319243176 L 214.95238095238096 325.3464480009904 L 225.33333333333334 329.7274359168346 L 235.71428571428572 336.7582377903258 L 246.0952380952381 322.02935755208154 L 256.4761904761905 324.57136323307907 L 266.8571428571429 343.41795222734993 L 277.23809523809524 350.6836626615405 L 287.6190476190476 360 L 298 355.70866317736954 L 308.3809523809524 349.20385221153117 L 318.76190476190476 339.9834074980914 L 329.14285714285717 320.8139610858546 L 339.5238095238095 319.170735984924 L 349.9047619047619 291.72558580988607 L 360.2857142857143 233.08242260844446 L 370.6666666666667 236.68775834439498 L 381.04761904761904 180.5775222322331 L 391.42857142857144 94.64694938685113 L 401.8095238095238 226.60768447767148 L 412.1904761904762 292.13695949710103 L 422.5714285714286 299.65289861551474 L 432.95238095238096 307.80320433021313 L 443.33333333333337 346.00364863098963 L 453.7142857142857 349.4682661953135 L 464.09523809523813 347.90050688803757 L 474.4761904761905 334.835278582089 L 484.8571428571429 281.7777189350537 L 495.23809523809524 200.33424004621827 L 505.61904761904765 179.3729065936711 L 516 259.84497616869675 L 526.3809523809524 264.20156536929926 L 536.7619047619048 223.80410187280341 L 547.1428571428571 303.582226593396 L 557.5238095238095 334.7683239681699 L 567.9047619047619 330.2721514199055 L 578.2857142857143 311.03575039374954 L 588.6666666666667 308.8529164975894 L 599.047619047619 310.9670935438833 L 609.4285714285714 311.7121054767292 L 619.8095238095239 265.2603561283933 L 630.1904761904763 277.388219839474 L 640.5714285714286 285.4891607117066 L 650.952380952381 292.18462210361974 L 661.3333333333334 288.1111714822176 L 671.7142857142858 316.8653411005729 L 682.0952380952381 333.7543587556827 L 692.4761904761905 335.99677090999126 L 702.8571428571429 327.3630301863175 L 713.2380952380953 322.9213291883601 L 723.6190476190476 320.9058818269978 L 734 323.86833978692823 L 744.3809523809524 303.01992131887175 L 754.7619047619048 291.3970542720964 L 765.1428571428572 319.65190134597003 L 775.5238095238095 313.01715303616993 L 785.9047619047619 315.81960081707325 L 796.2857142857143 336.20217404760757 L 806.6666666666667 342.6343562797032 L 817.047619047619 346.62893663555644 L 827.4285714285714 333.53703996643674 L 837.8095238095239 318.9971079183202 L 848.1904761904763 297.905269709829 L 858.5714285714286 292.1670323321664 L 868.952380952381 251.24074086810595 L 879.3333333333334 203.98326650481093 L 889.7142857142858 248.87746996155354 L 900.0952380952381 301.78750249317386 L 910.4761904761905 313.14652296814927 L 920.8571428571429 313.46654332620346 L 931.2380952380953 319.53614930156743 L 941.6190476190477 306.7324979194894 L 952 266.07572714705253 L 962.3809523809524 250.54622860169056 L 972.7619047619048 225.91884633107972 L 983.1428571428572 181.93533910603384 L 993.5238095238095 199.57504281381318 L 1003.9047619047619 154.80056328534977 L 1014.2857142857143 210.8784569145168 L 1024.6666666666667 258.8508703755923 L 1035.047619047619 261.3015227274291 L 1045.4285714285716 293.52598402993186 L 1055.8095238095239 320.2391727477183 L 1066.1904761904761 326.5119122127692 L 1076.5714285714287 316.88576793193806 L 1086.952380952381 310.9648238959538 L 1097.3333333333335 310.6788482568416 L 1107.7142857142858 319.963977936271 L 1118.095238095238 323.38150030605857 L 1128.4761904761906 325.1427470993212 L 1138.857142857143 309.4089802403076 L 1149.2380952380952 315.6408660426281 L 1159.6190476190477 323.5585328445566 L 1170 327.4112602048185" fill="none" stroke="#b91c1c" stroke-width="3" /><path d="M 80 293.9163634737993 L 90.38095238095238 157.95537390730206 L 100.76190476190476 196.51612481688065 L 111.14285714285714 305.93868855616006 L 121.52380952380952 279.8678102024113 L 131.9047619047619 228.88187170299247 L 142.28571428571428 312.95417030612737 L 152.66666666666669 346.4223986739754 L 163.04761904761904 353.4741947908141 L 173.42857142857144 358.9593664243416 L 183.8095238095238 357.88922742560027 L 194.1904761904762 350.4566978685943 L 204.57142857142858 317.6863862390558 L 214.95238095238096 312.08035585328446 L 225.33333333333334 329.4545107533168 L 235.71428571428572 355.3143118496255 L 246.0952380952381 346.43828620948165 L 256.4761904761905 350.03908264957323 L 266.8571428571429 333.2726259826544 L 277.23809523809524 307.3799149913685 L 287.6190476190476 309.94802162355484 L 298 301.05894550781653 L 308.3809523809524 329.3126577577254 L 318.76190476190476 301.5350041610212 L 329.14285714285717 278.59567253794785 L 339.5238095238095 287.1023129775717 L 349.9047619047619 284.5858408357807 L 360.2857142857143 313.0636808187239 L 370.6666666666667 263.91161784631043 L 381.04761904761904 288.89987413770575 L 391.42857142857144 333.64030894722725 L 401.8095238095238 326.0710331024712 L 412.1904761904762 352.7240761501269 L 422.5714285714286 344.1294868532363 L 432.95238095238096 352.825075482988 L 443.33333333333337 349.3343569674753 L 453.7142857142857 313.9783489342971 L 464.09523809523813 279.68964283994853 L 474.4761904761905 297.73788317503113 L 484.8571428571429 246.08069630047387 L 495.23809523809524 278.7908622598816 L 505.61904761904765 275.7336464988961 L 516 297.5506372208505 L 526.3809523809524 350.05270053715003 L 536.7619047619048 337.90157293479234 L 547.1428571428571 340.61209997455245 L 557.5238095238095 332.3426377435573 L 567.9047619047619 338.28684567081854 L 578.2857142857143 342.2173084726645 L 588.6666666666667 334.8886153084314 L 599.047619047619 342.8851523759087 L 609.4285714285714 333.2374464397477 L 619.8095238095239 240.81000639628053 L 630.1904761904763 227.53426824487437 L 640.5714285714286 247.52759685550598 L 650.952380952381 295.4676678335867 L 661.3333333333334 307.8559736445731 L 671.7142857142858 322.64499955294815 L 682.0952380952381 318.0092436570218 L 692.4761904761905 209.62731349340083 L 702.8571428571429 190.43517060186937 L 713.2380952380953 305.89896971739444 L 723.6190476190476 322.90317200492444 L 734 308.4852335330165 L 744.3809523809524 261.14775408020796 L 754.7619047619048 331.1953307152142 L 765.1428571428572 347.5872954737718 L 775.5238095238095 334.3172314421893 L 785.9047619047619 326.9919427498504 L 796.2857142857143 314.5911538752519 L 806.6666666666667 330.26477506413477 L 817.047619047619 343.0321120793414 L 827.4285714285714 262.23718508634977 L 837.8095238095239 30 L 848.1904761904763 140.7514426019794 L 858.5714285714286 337.7358886359416 L 868.952380952381 347.0096700757237 L 879.3333333333334 290.46139191317565 L 889.7142857142858 282.19590156605705 L 900.0952380952381 280.72687194371275 L 910.4761904761905 277.50964600370025 L 920.8571428571429 318.6702786164777 L 931.2380952380953 329.92376046273307 L 941.6190476190477 320.6760799741398 L 952 219.23303094286678 L 962.3809523809524 164.99695660845822 L 972.7619047619048 293.52257955803765 L 983.1428571428572 272.8109073777313 L 993.5238095238095 200.62305274524232 L 1003.9047619047619 264.19929572136977 L 1014.2857142857143 273.25519095992354 L 1024.6666666666667 316.4942536641059 L 1035.047619047619 327.489563058385 L 1045.4285714285716 327.0810264310818 L 1055.8095238095239 327.7851847011974 L 1066.1904761904761 307.87526565197356 L 1076.5714285714287 289.88490133909227 L 1086.952380952381 269.1102464287434 L 1097.3333333333335 241.89716775449287 L 1107.7142857142858 307.9808042806936 L 1118.095238095238 306.35687118716345 L 1128.4761904761906 261.1505911401198 L 1138.857142857143 223.7734616257557 L 1149.2380952380952 269.573822018336 L 1159.6190476190477 313.8200409912172 L 1170 314.1270108736769" fill="none" stroke="#1d4ed8" stroke-width="3" /><text x="80" y="380" font-size="11" text-anchor="middle" fill="#475569">2017-06</text><text x="163.04761904761904" y="380" font-size="11" text-anchor="middle" fill="#475569">2018-02</text><text x="246.0952380952381" y="380" font-size="11" text-anchor="middle" fill="#475569">2018-10</text><text x="329.14285714285717" y="380" font-size="11" text-anchor="middle" fill="#475569">2019-06</text><text x="412.1904761904762" y="380" font-size="11" text-anchor="middle" fill="#475569">2020-02</text><text x="495.23809523809524" y="380" font-size="11" text-anchor="middle" fill="#475569">2020-10</text><text x="578.2857142857143" y="380" font-size="11" text-anchor="middle" fill="#475569">2021-06</text><text x="661.3333333333334" y="380" font-size="11" text-anchor="middle" fill="#475569">2022-02</text><text x="744.3809523809524" y="380" font-size="11" text-anchor="middle" fill="#475569">2022-10</text><text x="827.4285714285714" y="380" font-size="11" text-anchor="middle" fill="#475569">2023-06</text><text x="910.4761904761905" y="380" font-size="11" text-anchor="middle" fill="#475569">2024-02</text><text x="993.5238095238095" y="380" font-size="11" text-anchor="middle" fill="#475569">2024-10</text><text x="1076.5714285714287" y="380" font-size="11" text-anchor="middle" fill="#475569">2025-06</text><text x="1159.6190476190477" y="380" font-size="11" text-anchor="middle" fill="#475569">2026-02</text><text x="1170" y="380" font-size="11" text-anchor="middle" fill="#475569">2026-03</text>
<text x="18" y="195" font-size="12" fill="#475569" transform="rotate(-90 18 195)">Average modal price in rupees per quintal</text>
</svg>