<?xml version="1.0" encoding="UTF-8"?>
<svg xmlns="http://www.w3.org/2000/svg" width="1200" height="430" viewBox="0 0 1200 430">
<rect width="100%" height="100%" fill="#ffffff" />
<text x="80" y="22" font-size="20" font-weight="700" fill="#0f172a">Calendar Month Seasonality in Onion and Tomato Prices Across the Study Period</text>
<rect x="80" y="8" width="14" height="14" fill="#b91c1c" /><text x="100" y="20" font-size="12" fill="#0f172a">Onion</text><rect x="300" y="8" width="14" height="14" fill="#1d4ed8" /><text x="320" y="20" font-size="12" fill="#0f172a">Tomato</text><line x1="80" y1="360" x2="1170" y2="360" stroke="#e5e7eb" />
      <text x="70" y="364" font-size="12" text-anchor="end" fill="#475569">905.04</text><line x1="80" y1="294" x2="1170" y2="294" stroke="#e5e7eb" />
      <text x="70" y="298" font-size="12" text-anchor="end" fill="#475569">1244.22</text><line x1="80" y1="228" x2="1170" y2="228" stroke="#e5e7eb" />
      <text x="70" y="232" font-size="12" text-anchor="end" fill="#475569">1583.4</text><line x1="80" y1="161.99999999999997" x2="1170" y2="161.99999999999997" stroke="#e5e7eb" />
      <text x="70" y="165.99999999999997" font-size="12" text-anchor="end" fill="#475569">1922.57</text><line x1="80" y1="96" x2="1170" y2="96" stroke="#e5e7eb" />
      <text x="70" y="100" font-size="12" text-anchor="end" fill="#475569">2261.75</text><line x1="80" y1="30" x2="1170" y2="30" stroke="#e5e7eb" />
      <text x="70" y="34" font-size="12" text-anchor="end" fill="#475569">2600.93</text>
<line x1="80" y1="360" x2="1170" y2="360" stroke="#475569" stroke-width="1.5" />
<line x1="80" y1="30" x2="80" y2="360" stroke="#475569" stroke-width="1.5" />
<path d="M 80 197.32435476357546 L 179.0909090909091 236.2186226701024 L 278.1818181818182 309.42071714556954 L 377.27272727272725 360 L 476.3636363636364 359.39093927082536 L 575.4545454545455 314.746593234231 L 674.5454545454545 296.8756228293108 L 773.6363636363636 242.75289081249372 L 872.7272727272727 196.662755249456 L 971.8181818181819 124.69434927972921 L 1070.909090909091 35.69364758327481 L 1170 94.02337415752203" fill="none" stroke="#b91c1c" stroke-width="3" /><path d="M 80 286.6869903118716 L 179.0909090909091 319.0800700517133 L 278.1818181818182 336.3088997517528 L 377.27272727272725 353.7459387106475 L 476.3636363636364 287.9751634834806 L 575.4545454545455 164.04784508429202 L 674.5454545454545 30 L 773.6363636363636 144.559847631627 L 872.7272727272727 271.5169026292979 L 971.8181818181819 175.57135191551336 L 1070.909090909091 172.24000377382967 L 1170 221.98839547376303" fill="none" stroke="#1d4ed8" stroke-width="3" /><text x="80" y="380" font-size="11" text-anchor="middle" fill="#475569">January</text><text x="179.0909090909091" y="380" font-size="11" text-anchor="middle" fill="#475569">February</text><text x="278.1818181818182" y="380" font-size="11" text-anchor="middle" fill="#475569">March</text><text x="377.27272727272725" y="380" font-size="11" text-anchor="middle" fill="#475569">April</text><text x="476.3636363636364" y="380" font-size="11" text-anchor="middle" fill="#475569">May</text><text x="575.4545454545455" y="380" font-size="11" text-anchor="middle" fill="#475569">June</text><text x="674.5454545454545" y="380" font-size="11" text-anchor="middle" fill="#475569">July</text><text x="773.6363636363636" y="380" font-size="11" text-anchor="middle" fill="#475569">August</text><text x="872.7272727272727" y="380" font-size="11" text-anchor="middle" fill="#475569">September</text><text x="971.8181818181819" y="380" font-size="11" text-anchor="middle" fill="#475569">October</text><text x="1070.909090909091" y="380" font-size="11" text-anchor="middle" fill="#475569">November</text><text x="1170" y="380" font-size="11" text-anchor="middle" fill="#475569">December</text>
<text x="18" y="195" font-size="12" fill="#475569" transform="rotate(-90 18 195)">Average modal price in rupees per quintal</text>
</svg>