<?xml version="1.0" encoding="UTF-8"?>
<svg xmlns="http://www.w3.org/2000/svg" width="1200" height="430" viewBox="0 0 1200 430">
<rect width="100%" height="100%" fill="#ffffff" />
<text x="80" y="22" font-size="20" font-weight="700" fill="#0f172a">Fourteen Day Recursive Forecast for Onion and Tomato Prices After the Final Observed Date</text>
<rect x="80" y="8" width="14" height="14" fill="#b91c1c" /><text x="100" y="20" font-size="12" fill="#0f172a">Forecasted onion price</text><rect x="300" y="8" width="14" height="14" fill="#1d4ed8" /><text x="320" y="20" font-size="12" fill="#0f172a">Forecasted tomato price</text><line x1="80" y1="360" x2="1170" y2="360" stroke="#e5e7eb" />
      <text x="70" y="364" font-size="12" text-anchor="end" fill="#475569">918.19</text><line x1="80" y1="294" x2="1170" y2="294" stroke="#e5e7eb" />
      <text x="70" y="298" font-size="12" text-anchor="end" fill="#475569">986.39</text><line x1="80" y1="228" x2="1170" y2="228" stroke="#e5e7eb" />
      <text x="70" y="232" font-size="12" text-anchor="end" fill="#475569">1054.59</text><line x1="80" y1="162" x2="1170" y2="162" stroke="#e5e7eb" />
      <text x="70" y="166" font-size="12" text-anchor="end" fill="#475569">1122.8</text><line x1="80" y1="96" x2="1170" y2="96" stroke="#e5e7eb" />
      <text x="70" y="100" font-size="12" text-anchor="end" fill="#475569">1191</text><line x1="80" y1="30" x2="1170" y2="30" stroke="#e5e7eb" />
      <text x="70" y="34" font-size="12" text-anchor="end" fill="#475569">1259.2</text>
<line x1="80" y1="360" x2="1170" y2="360" stroke="#475569" stroke-width="1.5" />
<line x1="80" y1="30" x2="80" y2="360" stroke="#475569" stroke-width="1.5" />
<path d="M 80 289.96656989531107 L 163.84615384615384 271.49291809624356 L 247.69230769230768 262.0964194598399 L 331.53846153846155 261.109351631917 L 415.38461538461536 286.6956980733703 L 499.23076923076917 322.60754816574297 L 583.0769230769231 322.87850796164344 L 666.9230769230769 328.9170405559955 L 750.7692307692307 304.95645288994456 L 834.6153846153845 318.6399225829156 L 918.4615384615383 321.96885721826345 L 1002.3076923076923 333.40723145948806 L 1086.1538461538462 360 L 1170 354.18404152370897" fill="none" stroke="#b91c1c" stroke-width="3" /><path d="M 80 52.69288290665969 L 163.84615384615384 30 L 247.69230769230768 30.3290226093078 L 331.53846153846155 37.55784287850793 L 415.38461538461536 39.696489839007654 L 499.23076923076917 45.096331485880285 L 583.0769230769231 52.77997712677046 L 666.9230769230769 60.87006246151151 L 750.7692307692307 52.01548341690858 L 834.6153846153845 58.17981877364309 L 918.4615384615383 70.34397818245805 L 1002.3076923076923 70.86654350312313 L 1086.1538461538462 72.86971056567256 L 1170 84.92742148324095" fill="none" stroke="#1d4ed8" stroke-width="3" /><text x="80" y="380" font-size="11" text-anchor="middle" fill="#475569">2026-03-07</text><text x="163.84615384615384" y="380" font-size="11" text-anchor="middle" fill="#475569">2026-03-08</text><text x="247.69230769230768" y="380" font-size="11" text-anchor="middle" fill="#475569">2026-03-09</text><text x="331.53846153846155" y="380" font-size="11" text-anchor="middle" fill="#475569">2026-03-10</text><text x="415.38461538461536" y="380" font-size="11" text-anchor="middle" fill="#475569">2026-03-11</text><text x="499.23076923076917" y="380" font-size="11" text-anchor="middle" fill="#475569">2026-03-12</text><text x="583.0769230769231" y="380" font-size="11" text-anchor="middle" fill="#475569">2026-03-13</text><text x="666.9230769230769" y="380" font-size="11" text-anchor="middle" fill="#475569">2026-03-14</text><text x="750.7692307692307" y="380" font-size="11" text-anchor="middle" fill="#475569">2026-03-15</text><text x="834.6153846153845" y="380" font-size="11" text-anchor="middle" fill="#475569">2026-03-16</text><text x="918.4615384615383" y="380" font-size="11" text-anchor="middle" fill="#475569">2026-03-17</text><text x="1002.3076923076923" y="380" font-size="11" text-anchor="middle" fill="#475569">2026-03-18</text><text x="1086.1538461538462" y="380" font-size="11" text-anchor="middle" fill="#475569">2026-03-19</text><text x="1170" y="380" font-size="11" text-anchor="middle" fill="#475569">2026-03-20</text>
<text x="18" y="195" font-size="12" fill="#475569" transform="rotate(-90 18 195)">Forecasted modal price in rupees per quintal</text>
</svg>