<?xml version="1.0" encoding="UTF-8"?>
<svg xmlns="http://www.w3.org/2000/svg" width="760" height="520" viewBox="0 0 760 520">
<rect width="100%" height="100%" fill="#ffffff" />
<text x="80" y="22" font-size="20" font-weight="700" fill="#0f172a">Diagnostic Scatter Plot of Actual Versus Predicted Onion Prices on the Holdout Test Data</text>
<line x1="80" y1="450" x2="730" y2="450" stroke="#475569" stroke-width="1.5" />
<line x1="80" y1="30" x2="80" y2="450" stroke="#475569" stroke-width="1.5" />
<line x1="83.97148676171074" y1="450" x2="618.8609137707073" y2="30" stroke="#dc2626" stroke-width="2" stroke-dasharray="6 4" />
<circle cx="160.45127251150632" cy="450" r="3.2" fill="#7c3aed" fill-opacity="0.65" /><circle cx="129.63489797991133" cy="427.1177456444634" r="3.2" fill="#7c3aed" fill-opacity="0.65" /><circle cx="141.05248809275622" cy="424.3403359706902" r="3.2" fill="#7c3aed" fill-opacity="0.65" /><circle cx="122.81075099828408" cy="431.2211092489378" r="3.2" fill="#7c3aed" fill-opacity="0.65" /><circle cx="99.8539591919645" cy="427.14502864715286" r="3.2" fill="#7c3aed" fill-opacity="0.65" /><circle cx="195.95143020564387" cy="418.78824492341266" r="3.2" fill="#7c3aed" fill-opacity="0.65" /><circle cx="134.60012508619718" cy="408.8463187434228" r="3.2" fill="#7c3aed" fill-opacity="0.65" /><circle cx="195.40591540110435" cy="417.0939704564056" r="3.2" fill="#7c3aed" fill-opacity="0.65" /><circle cx="168.26915983770866" cy="400.9833573683594" r="3.2" fill="#7c3aed" fill-opacity="0.65" /><circle cx="149.49233178846532" cy="403.54523132088707" r="3.2" fill="#7c3aed" fill-opacity="0.65" /><circle cx="149.49233178846532" cy="417.2931363760377" r="3.2" fill="#7c3aed" fill-opacity="0.65" /><circle cx="127.15402173506317" cy="413.4789726000701" r="3.2" fill="#7c3aed" fill-opacity="0.65" /><circle cx="156.68826274516096" cy="398.76252094944846" r="3.2" fill="#7c3aed" fill-opacity="0.65" /><circle cx="122.18879462877734" cy="395.8023151576568" r="3.2" fill="#7c3aed" fill-opacity="0.65" /><circle cx="203.1612596286971" cy="414.8131114315781" r="3.2" fill="#7c3aed" fill-opacity="0.65" /><circle cx="135.84056320862135" cy="401.41170051058185" r="3.2" fill="#7c3aed" fill-opacity="0.65" /><circle cx="191.43442863939362" cy="411.90474334489613" r="3.2" fill="#7c3aed" fill-opacity="0.65" /><circle cx="136.18802486756366" cy="406.40176170245934" r="3.2" fill="#7c3aed" fill-opacity="0.65" /><circle cx="135.84056320862135" cy="420.80718712242276" r="3.2" fill="#7c3aed" fill-opacity="0.65" /><circle cx="83.72131436727233" cy="409.93763885099577" r="3.2" fill="#7c3aed" fill-opacity="0.65" /><circle cx="89.92697959598233" cy="423.39907237790857" r="3.2" fill="#7c3aed" fill-opacity="0.65" /><circle cx="162.98774262178534" cy="419.99142534201184" r="3.2" fill="#7c3aed" fill-opacity="0.65" /><circle cx="124.673145490215" cy="414.8785906380325" r="3.2" fill="#7c3aed" fill-opacity="0.65" /><circle cx="111.95257415633638" cy="421.4074131815878" r="3.2" fill="#7c3aed" fill-opacity="0.65" /><circle cx="184.238497682698" cy="439.1359083291109" r="3.2" fill="#7c3aed" fill-opacity="0.65" /><circle cx="123.6794051456399" cy="425.46712398175936" r="3.2" fill="#7c3aed" fill-opacity="0.65" /><circle cx="153.24491770504255" cy="425.2515882605137" r="3.2" fill="#7c3aed" fill-opacity="0.65" /><circle cx="89.51350022184094" cy="411.0125891569552" r="3.2" fill="#7c3aed" fill-opacity="0.65" /><circle cx="161.90018762929583" cy="428.18178274934706" r="3.2" fill="#7c3aed" fill-opacity="0.65" /><circle cx="176.37891495742264" cy="418.5617960010913" r="3.2" fill="#7c3aed" fill-opacity="0.65" /><circle cx="120.59047099764265" cy="413.5117122032973" r="3.2" fill="#7c3aed" fill-opacity="0.65" /><circle cx="80" cy="424.32123786880766" r="3.2" fill="#7c3aed" fill-opacity="0.65" /><circle cx="127.15402173506317" cy="445.9648439022488" r="3.2" fill="#7c3aed" fill-opacity="0.65" /><circle cx="147.13306712424696" cy="432.6780215925478" r="3.2" fill="#7c3aed" fill-opacity="0.65" /><circle cx="134.60012508619718" cy="424.7850489145262" r="3.2" fill="#7c3aed" fill-opacity="0.65" /><circle cx="132.11924884134902" cy="427.6906887009393" r="3.2" fill="#7c3aed" fill-opacity="0.65" /><circle cx="95.30221145982006" cy="420.84265502591876" r="3.2" fill="#7c3aed" fill-opacity="0.65" /><circle cx="184.48519546054706" cy="434.2768055501422" r="3.2" fill="#7c3aed" fill-opacity="0.65" /><circle cx="142.04622843733134" cy="422.8343142222395" r="3.2" fill="#7c3aed" fill-opacity="0.65" /><circle cx="161.90018762929583" cy="420.8508399267256" r="3.2" fill="#7c3aed" fill-opacity="0.65" /><circle cx="257.6258746679068" cy="412.3194449857738" r="3.2" fill="#7c3aed" fill-opacity="0.65" /><circle cx="216.500312715493" cy="388.83696457107214" r="3.2" fill="#7c3aed" fill-opacity="0.65" /><circle cx="256.2117057160116" cy="386.9626222863156" r="3.2" fill="#7c3aed" fill-opacity="0.65" /><circle cx="373.85179958411516" cy="368.8439802003352" r="3.2" fill="#7c3aed" fill-opacity="0.65" /><circle cx="457.24259773027353" cy="334.3337100986085" r="3.2" fill="#7c3aed" fill-opacity="0.65" /><circle cx="362.93107964355784" cy="297.7117355887282" r="3.2" fill="#7c3aed" fill-opacity="0.65" /><circle cx="304.35946779564983" cy="287.2541606579101" r="3.2" fill="#7c3aed" fill-opacity="0.65" /><circle cx="318.25793415334283" cy="271.34271348949596" r="3.2" fill="#7c3aed" fill-opacity="0.65" /><circle cx="211.12508085165527" cy="267.75499863584986" r="3.2" fill="#7c3aed" fill-opacity="0.65" /><circle cx="337.80265246884875" cy="284.5040339868262" r="3.2" fill="#7c3aed" fill-opacity="0.65" /><circle cx="248.76560236487754" cy="251.01960478621814" r="3.2" fill="#7c3aed" fill-opacity="0.65" /><circle cx="415.05032848490686" cy="274.128308064076" r="3.2" fill="#7c3aed" fill-opacity="0.65" /><circle cx="392.96219082594314" cy="263.61071052734144" r="3.2" fill="#7c3aed" fill-opacity="0.65" /><circle cx="370.37718299469185" cy="276.7502046225201" r="3.2" fill="#7c3aed" fill-opacity="0.65" /><circle cx="474.6156806773899" cy="272.674124020735" r="3.2" fill="#7c3aed" fill-opacity="0.65" /><circle cx="400.78007815214545" cy="241.36960673500408" r="3.2" fill="#7c3aed" fill-opacity="0.65" /><circle cx="374.0984973619642" cy="239.65896246638346" r="3.2" fill="#7c3aed" fill-opacity="0.65" /><circle cx="606.651111075474" cy="232.12066882332306" r="3.2" fill="#7c3aed" fill-opacity="0.65" /><circle cx="428.2886176906095" cy="174.09790700393654" r="3.2" fill="#7c3aed" fill-opacity="0.65" /><circle cx="444.2127855199363" cy="197.13840277507106" r="3.2" fill="#7c3aed" fill-opacity="0.65" /><circle cx="464.68870108140754" cy="183.46961842771947" r="3.2" fill="#7c3aed" fill-opacity="0.65" /><circle cx="490.25145532979457" cy="162.72635148302606" r="3.2" fill="#7c3aed" fill-opacity="0.65" /><circle cx="462.2078248365593" cy="165.33733484039436" r="3.2" fill="#7c3aed" fill-opacity="0.65" /><circle cx="573.4268272474088" cy="157.5425809720544" r="3.2" fill="#7c3aed" fill-opacity="0.65" /><circle cx="547.0023680848448" cy="134.88950383910816" r="3.2" fill="#7c3aed" fill-opacity="0.65" /><circle cx="562.3497495603274" cy="137.29586467630668" r="3.2" fill="#7c3aed" fill-opacity="0.65" /><circle cx="407.0552357126438" cy="124.2409478894649" r="3.2" fill="#7c3aed" fill-opacity="0.65" /><circle cx="471.72132505840034" cy="148.05900923724516" r="3.2" fill="#7c3aed" fill-opacity="0.65" /><circle cx="552.7945539394134" cy="130.01948785906376" r="3.2" fill="#7c3aed" fill-opacity="0.65" /><circle cx="487.0235365182204" cy="115.44490782242656" r="3.2" fill="#7c3aed" fill-opacity="0.65" /><circle cx="592.1584852809896" cy="124.33098179833962" r="3.2" fill="#7c3aed" fill-opacity="0.65" /><circle cx="547.0023680848448" cy="108.68417975601204" r="3.2" fill="#7c3aed" fill-opacity="0.65" /><circle cx="490.25145532979457" cy="117.87855166231435" r="3.2" fill="#7c3aed" fill-opacity="0.65" /><circle cx="511.5334819400121" cy="140.13056865572742" r="3.2" fill="#7c3aed" fill-opacity="0.65" /><circle cx="465.92913920383177" cy="131.1053513660989" r="3.2" fill="#7c3aed" fill-opacity="0.65" /><circle cx="683.8814140085849" cy="124.48649491366871" r="3.2" fill="#7c3aed" fill-opacity="0.65" /><circle cx="622.2868857278787" cy="81.2729469540476" r="3.2" fill="#7c3aed" fill-opacity="0.65" /><circle cx="668.6139487146592" cy="80.85278871263199" r="3.2" fill="#7c3aed" fill-opacity="0.65" /><circle cx="622.2868857278787" cy="62.862376739291335" r="3.2" fill="#7c3aed" fill-opacity="0.65" /><circle cx="730" cy="76.04552363877303" r="3.2" fill="#7c3aed" fill-opacity="0.65" /><circle cx="621.0464476054545" cy="35.96952098842411" r="3.2" fill="#7c3aed" fill-opacity="0.65" /><circle cx="586.3002817112219" cy="49.06809057956889" r="3.2" fill="#7c3aed" fill-opacity="0.65" /><circle cx="636.7065445739853" cy="33.09116420470042" r="3.2" fill="#7c3aed" fill-opacity="0.65" /><circle cx="613.6003442543206" cy="30" r="3.2" fill="#7c3aed" fill-opacity="0.65" /><circle cx="547.3672028267342" cy="41.949955177924096" r="3.2" fill="#7c3aed" fill-opacity="0.65" /><circle cx="654.1386960031218" cy="58.57076041626061" r="3.2" fill="#7c3aed" fill-opacity="0.65" /><circle cx="572.3392722549193" cy="34.163386210390854" r="3.2" fill="#7c3aed" fill-opacity="0.65" /><circle cx="592.3669622763549" cy="83.6411115874809" r="3.2" fill="#7c3aed" fill-opacity="0.65" /><circle cx="549.9001983204239" cy="66.47737459562688" r="3.2" fill="#7c3aed" fill-opacity="0.65" /><circle cx="551.2136033912257" cy="61.93202634758546" r="3.2" fill="#7c3aed" fill-opacity="0.65" /><circle cx="417.5312047297551" cy="68.5317846981331" r="3.2" fill="#7c3aed" fill-opacity="0.65" /><circle cx="442.04115015154673" cy="100.09276220914364" r="3.2" fill="#7c3aed" fill-opacity="0.65" /><circle cx="363.42794981584535" cy="108.37588182562263" r="3.2" fill="#7c3aed" fill-opacity="0.65" /><circle cx="431.18297330959905" cy="147.32782476517127" r="3.2" fill="#7c3aed" fill-opacity="0.65" /><circle cx="476.5475675011092" cy="153.03815722804688" r="3.2" fill="#7c3aed" fill-opacity="0.65" /><circle cx="387.7502659418082" cy="158.87671980356237" r="3.2" fill="#7c3aed" fill-opacity="0.65" /><circle cx="585.1710313196593" cy="157.99275051642815" r="3.2" fill="#7c3aed" fill-opacity="0.65" /><circle cx="332.73666148146964" cy="135.25236777487618" r="3.2" fill="#7c3aed" fill-opacity="0.65" /><circle cx="455.070962361884" cy="201.3727247924542" r="3.2" fill="#7c3aed" fill-opacity="0.65" /><circle cx="491.9887636245062" cy="168.49670655181814" r="3.2" fill="#7c3aed" fill-opacity="0.65" /><circle cx="399.33116303435594" cy="154.63694118564132" r="3.2" fill="#7c3aed" fill-opacity="0.65" /><circle cx="338.52537271944874" cy="167.45449584908602" r="3.2" fill="#7c3aed" fill-opacity="0.65" /><circle cx="553.6632080867693" cy="182.26916630938916" r="3.2" fill="#7c3aed" fill-opacity="0.65" /><circle cx="429.0113379412095" cy="126.83828974548857" r="3.2" fill="#7c3aed" fill-opacity="0.65" /><circle cx="521.5230046346039" cy="170.94399189305057" r="3.2" fill="#7c3aed" fill-opacity="0.65" /><circle cx="422.49643183604087" cy="148.13812994504417" r="3.2" fill="#7c3aed" fill-opacity="0.65" /><circle cx="381.2353598366396" cy="170.2482753244728" r="3.2" fill="#7c3aed" fill-opacity="0.65" /><circle cx="461.58586846705265" cy="183.7015239505787" r="3.2" fill="#7c3aed" fill-opacity="0.65" /><circle cx="380.3041625906742" cy="189.3245508048485" r="3.2" fill="#7c3aed" fill-opacity="0.65" /><circle cx="584.413564903165" cy="176.95170908523983" r="3.2" fill="#7c3aed" fill-opacity="0.65" /><circle cx="512.2562021906122" cy="152.9508516194411" r="3.2" fill="#7c3aed" fill-opacity="0.65" /><circle cx="565.7270768852467" cy="144.04840784191447" r="3.2" fill="#7c3aed" fill-opacity="0.65" /><circle cx="549.9001983204239" cy="139.342089878006" r="3.2" fill="#7c3aed" fill-opacity="0.65" /><circle cx="521.3284261055962" cy="131.4682153018669" r="3.2" fill="#7c3aed" fill-opacity="0.65" /><circle cx="522.8746304878896" cy="119.55918462797672" r="3.2" fill="#7c3aed" fill-opacity="0.65" /><circle cx="344.31755857401737" cy="127.18751217991183" r="3.2" fill="#7c3aed" fill-opacity="0.65" /><circle cx="530.6820939643237" cy="141.38558677943638" r="3.2" fill="#7c3aed" fill-opacity="0.65" /><circle cx="399.33116303435594" cy="121.78002104688784" r="3.2" fill="#7c3aed" fill-opacity="0.65" /><circle cx="444.2127855199363" cy="150.27438905561826" r="3.2" fill="#7c3aed" fill-opacity="0.65" /><circle cx="387.7502659418082" cy="154.71606189344038" r="3.2" fill="#7c3aed" fill-opacity="0.65" />
<text x="405" y="512" font-size="12" text-anchor="middle" fill="#475569">Actual onion price</text>
<text x="18" y="240" font-size="12" fill="#475569" transform="rotate(-90 18 240)">Predicted onion price</text>
</svg>