<?xml version="1.0" encoding="UTF-8"?>
<svg xmlns="http://www.w3.org/2000/svg" width="896" height="791" viewBox="0 0 896 791">
<rect width="100%" height="100%" fill="#ffffff" />
<text x="190" y="28" font-size="20" font-weight="700" fill="#0f172a">Correlation Matrix for Onion Price and the Main Cross Commodity, Weather, and Fuel Drivers</text>
<text x="178" y="126" font-size="12" text-anchor="end" fill="#334155">Onion price</text><text x="178" y="200" font-size="12" text-anchor="end" fill="#334155">Tomato price</text><text x="178" y="274" font-size="12" text-anchor="end" fill="#334155">Mumbai petrol price</text><text x="178" y="348" font-size="12" text-anchor="end" fill="#334155">Mumbai diesel price</text><text x="178" y="422" font-size="12" text-anchor="end" fill="#334155">Average rainfall</text><text x="178" y="496" font-size="12" text-anchor="end" fill="#334155">Average max temperature</text><text x="178" y="570" font-size="12" text-anchor="end" fill="#334155">Average humidity</text><text x="178" y="644" font-size="12" text-anchor="end" fill="#334155">Average wind speed</text><text x="178" y="718" font-size="12" text-anchor="end" fill="#334155">Average root zone soil wetness</text>
<text x="227" y="73" font-size="12" text-anchor="start" fill="#334155" transform="rotate(-35 227 73)">Onion price</text><text x="301" y="73" font-size="12" text-anchor="start" fill="#334155" transform="rotate(-35 301 73)">Tomato price</text><text x="375" y="73" font-size="12" text-anchor="start" fill="#334155" transform="rotate(-35 375 73)">Mumbai petrol price</text><text x="449" y="73" font-size="12" text-anchor="start" fill="#334155" transform="rotate(-35 449 73)">Mumbai diesel price</text><text x="523" y="73" font-size="12" text-anchor="start" fill="#334155" transform="rotate(-35 523 73)">Average rainfall</text><text x="597" y="73" font-size="12" text-anchor="start" fill="#334155" transform="rotate(-35 597 73)">Average max temperature</text><text x="671" y="73" font-size="12" text-anchor="start" fill="#334155" transform="rotate(-35 671 73)">Average humidity</text><text x="745" y="73" font-size="12" text-anchor="start" fill="#334155" transform="rotate(-35 745 73)">Average wind speed</text><text x="819" y="73" font-size="12" text-anchor="start" fill="#334155" transform="rotate(-35 819 73)">Average root zone soil wetness</text>
<rect x="190" y="85" width="74" height="74" fill="rgb(190, 145, 75)" stroke="#ffffff" /><text x="227" y="126" font-size="12" text-anchor="middle" fill="#0f172a">1</text><rect x="264" y="85" width="74" height="74" fill="rgb(247, 241, 232)" stroke="#ffffff" /><text x="301" y="126" font-size="12" text-anchor="middle" fill="#0f172a">0.13</text><rect x="338" y="85" width="74" height="74" fill="rgb(255, 253, 253)" stroke="#ffffff" /><text x="375" y="126" font-size="12" text-anchor="middle" fill="#0f172a">-0.01</text><rect x="412" y="85" width="74" height="74" fill="rgb(254, 249, 249)" stroke="#ffffff" /><text x="449" y="126" font-size="12" text-anchor="middle" fill="#0f172a">-0.03</text><rect x="486" y="85" width="74" height="74" fill="rgb(253, 243, 243)" stroke="#ffffff" /><text x="523" y="126" font-size="12" text-anchor="middle" fill="#0f172a">-0.08</text><rect x="560" y="85" width="74" height="74" fill="rgb(248, 200, 200)" stroke="#ffffff" /><text x="597" y="126" font-size="12" text-anchor="middle" fill="#0f172a">-0.33</text><rect x="634" y="85" width="74" height="74" fill="rgb(241, 232, 217)" stroke="#ffffff" /><text x="671" y="126" font-size="12" text-anchor="middle" fill="#0f172a">0.21</text><rect x="708" y="85" width="74" height="74" fill="rgb(251, 219, 219)" stroke="#ffffff" /><text x="745" y="126" font-size="12" text-anchor="middle" fill="#0f172a">-0.22</text><rect x="782" y="85" width="74" height="74" fill="rgb(238, 227, 209)" stroke="#ffffff" /><text x="819" y="126" font-size="12" text-anchor="middle" fill="#0f172a">0.26</text><rect x="190" y="159" width="74" height="74" fill="rgb(247, 241, 232)" stroke="#ffffff" /><text x="227" y="200" font-size="12" text-anchor="middle" fill="#0f172a">0.13</text><rect x="264" y="159" width="74" height="74" fill="rgb(190, 145, 75)" stroke="#ffffff" /><text x="301" y="200" font-size="12" text-anchor="middle" fill="#0f172a">1</text><rect x="338" y="159" width="74" height="74" fill="rgb(245, 237, 226)" stroke="#ffffff" /><text x="375" y="200" font-size="12" text-anchor="middle" fill="#0f172a">0.16</text><rect x="412" y="159" width="74" height="74" fill="rgb(247, 242, 234)" stroke="#ffffff" /><text x="449" y="200" font-size="12" text-anchor="middle" fill="#0f172a">0.12</text><rect x="486" y="159" width="74" height="74" fill="rgb(239, 229, 212)" stroke="#ffffff" /><text x="523" y="200" font-size="12" text-anchor="middle" fill="#0f172a">0.24</text><rect x="560" y="159" width="74" height="74" fill="rgb(249, 203, 203)" stroke="#ffffff" /><text x="597" y="200" font-size="12" text-anchor="middle" fill="#0f172a">-0.32</text><rect x="634" y="159" width="74" height="74" fill="rgb(231, 215, 189)" stroke="#ffffff" /><text x="671" y="200" font-size="12" text-anchor="middle" fill="#0f172a">0.36</text><rect x="708" y="159" width="74" height="74" fill="rgb(236, 223, 202)" stroke="#ffffff" /><text x="745" y="200" font-size="12" text-anchor="middle" fill="#0f172a">0.29</text><rect x="782" y="159" width="74" height="74" fill="rgb(233, 218, 194)" stroke="#ffffff" /><text x="819" y="200" font-size="12" text-anchor="middle" fill="#0f172a">0.34</text><rect x="190" y="233" width="74" height="74" fill="rgb(255, 253, 253)" stroke="#ffffff" /><text x="227" y="274" font-size="12" text-anchor="middle" fill="#0f172a">-0.01</text><rect x="264" y="233" width="74" height="74" fill="rgb(245, 237, 226)" stroke="#ffffff" /><text x="301" y="274" font-size="12" text-anchor="middle" fill="#0f172a">0.16</text><rect x="338" y="233" width="74" height="74" fill="rgb(190, 145, 75)" stroke="#ffffff" /><text x="375" y="274" font-size="12" text-anchor="middle" fill="#0f172a">1</text><rect x="412" y="233" width="74" height="74" fill="rgb(191, 147, 78)" stroke="#ffffff" /><text x="449" y="274" font-size="12" text-anchor="middle" fill="#0f172a">0.98</text><rect x="486" y="233" width="74" height="74" fill="rgb(255, 252, 252)" stroke="#ffffff" /><text x="523" y="274" font-size="12" text-anchor="middle" fill="#0f172a">-0.02</text><rect x="560" y="233" width="74" height="74" fill="rgb(254, 254, 253)" stroke="#ffffff" /><text x="597" y="274" font-size="12" text-anchor="middle" fill="#0f172a">0.01</text><rect x="634" y="233" width="74" height="74" fill="rgb(253, 251, 248)" stroke="#ffffff" /><text x="671" y="274" font-size="12" text-anchor="middle" fill="#0f172a">0.04</text><rect x="708" y="233" width="74" height="74" fill="rgb(255, 255, 255)" stroke="#ffffff" /><text x="745" y="274" font-size="12" text-anchor="middle" fill="#0f172a">0</text><rect x="782" y="233" width="74" height="74" fill="rgb(255, 255, 255)" stroke="#ffffff" /><text x="819" y="274" font-size="12" text-anchor="middle" fill="#0f172a">0</text><rect x="190" y="307" width="74" height="74" fill="rgb(254, 249, 249)" stroke="#ffffff" /><text x="227" y="348" font-size="12" text-anchor="middle" fill="#0f172a">-0.03</text><rect x="264" y="307" width="74" height="74" fill="rgb(247, 242, 234)" stroke="#ffffff" /><text x="301" y="348" font-size="12" text-anchor="middle" fill="#0f172a">0.12</text><rect x="338" y="307" width="74" height="74" fill="rgb(191, 147, 78)" stroke="#ffffff" /><text x="375" y="348" font-size="12" text-anchor="middle" fill="#0f172a">0.98</text><rect x="412" y="307" width="74" height="74" fill="rgb(190, 145, 75)" stroke="#ffffff" /><text x="449" y="348" font-size="12" text-anchor="middle" fill="#0f172a">1</text><rect x="486" y="307" width="74" height="74" fill="rgb(255, 252, 252)" stroke="#ffffff" /><text x="523" y="348" font-size="12" text-anchor="middle" fill="#0f172a">-0.02</text><rect x="560" y="307" width="74" height="74" fill="rgb(253, 252, 251)" stroke="#ffffff" /><text x="597" y="348" font-size="12" text-anchor="middle" fill="#0f172a">0.02</text><rect x="634" y="307" width="74" height="74" fill="rgb(253, 252, 250)" stroke="#ffffff" /><text x="671" y="348" font-size="12" text-anchor="middle" fill="#0f172a">0.03</text><rect x="708" y="307" width="74" height="74" fill="rgb(255, 255, 254)" stroke="#ffffff" /><text x="745" y="348" font-size="12" text-anchor="middle" fill="#0f172a">0</text><rect x="782" y="307" width="74" height="74" fill="rgb(255, 253, 253)" stroke="#ffffff" /><text x="819" y="348" font-size="12" text-anchor="middle" fill="#0f172a">-0.01</text><rect x="190" y="381" width="74" height="74" fill="rgb(253, 243, 243)" stroke="#ffffff" /><text x="227" y="422" font-size="12" text-anchor="middle" fill="#0f172a">-0.08</text><rect x="264" y="381" width="74" height="74" fill="rgb(239, 229, 212)" stroke="#ffffff" /><text x="301" y="422" font-size="12" text-anchor="middle" fill="#0f172a">0.24</text><rect x="338" y="381" width="74" height="74" fill="rgb(255, 252, 252)" stroke="#ffffff" /><text x="375" y="422" font-size="12" text-anchor="middle" fill="#0f172a">-0.02</text><rect x="412" y="381" width="74" height="74" fill="rgb(255, 252, 252)" stroke="#ffffff" /><text x="449" y="422" font-size="12" text-anchor="middle" fill="#0f172a">-0.02</text><rect x="486" y="381" width="74" height="74" fill="rgb(190, 145, 75)" stroke="#ffffff" /><text x="523" y="422" font-size="12" text-anchor="middle" fill="#0f172a">1</text><rect x="560" y="381" width="74" height="74" fill="rgb(247, 189, 189)" stroke="#ffffff" /><text x="597" y="422" font-size="12" text-anchor="middle" fill="#0f172a">-0.4</text><rect x="634" y="381" width="74" height="74" fill="rgb(222, 200, 165)" stroke="#ffffff" /><text x="671" y="422" font-size="12" text-anchor="middle" fill="#0f172a">0.5</text><rect x="708" y="381" width="74" height="74" fill="rgb(214, 186, 141)" stroke="#ffffff" /><text x="745" y="422" font-size="12" text-anchor="middle" fill="#0f172a">0.63</text><rect x="782" y="381" width="74" height="74" fill="rgb(224, 203, 169)" stroke="#ffffff" /><text x="819" y="422" font-size="12" text-anchor="middle" fill="#0f172a">0.48</text><rect x="190" y="455" width="74" height="74" fill="rgb(248, 200, 200)" stroke="#ffffff" /><text x="227" y="496" font-size="12" text-anchor="middle" fill="#0f172a">-0.33</text><rect x="264" y="455" width="74" height="74" fill="rgb(249, 203, 203)" stroke="#ffffff" /><text x="301" y="496" font-size="12" text-anchor="middle" fill="#0f172a">-0.32</text><rect x="338" y="455" width="74" height="74" fill="rgb(254, 254, 253)" stroke="#ffffff" /><text x="375" y="496" font-size="12" text-anchor="middle" fill="#0f172a">0.01</text><rect x="412" y="455" width="74" height="74" fill="rgb(253, 252, 251)" stroke="#ffffff" /><text x="449" y="496" font-size="12" text-anchor="middle" fill="#0f172a">0.02</text><rect x="486" y="455" width="74" height="74" fill="rgb(247, 189, 189)" stroke="#ffffff" /><text x="523" y="496" font-size="12" text-anchor="middle" fill="#0f172a">-0.4</text><rect x="560" y="455" width="74" height="74" fill="rgb(190, 145, 75)" stroke="#ffffff" /><text x="597" y="496" font-size="12" text-anchor="middle" fill="#0f172a">1</text><rect x="634" y="455" width="74" height="74" fill="rgb(239, 124, 124)" stroke="#ffffff" /><text x="671" y="496" font-size="12" text-anchor="middle" fill="#0f172a">-0.79</text><rect x="708" y="455" width="74" height="74" fill="rgb(250, 215, 215)" stroke="#ffffff" /><text x="745" y="496" font-size="12" text-anchor="middle" fill="#0f172a">-0.24</text><rect x="782" y="455" width="74" height="74" fill="rgb(239, 126, 126)" stroke="#ffffff" /><text x="819" y="496" font-size="12" text-anchor="middle" fill="#0f172a">-0.78</text><rect x="190" y="529" width="74" height="74" fill="rgb(241, 232, 217)" stroke="#ffffff" /><text x="227" y="570" font-size="12" text-anchor="middle" fill="#0f172a">0.21</text><rect x="264" y="529" width="74" height="74" fill="rgb(231, 215, 189)" stroke="#ffffff" /><text x="301" y="570" font-size="12" text-anchor="middle" fill="#0f172a">0.36</text><rect x="338" y="529" width="74" height="74" fill="rgb(253, 251, 248)" stroke="#ffffff" /><text x="375" y="570" font-size="12" text-anchor="middle" fill="#0f172a">0.04</text><rect x="412" y="529" width="74" height="74" fill="rgb(253, 252, 250)" stroke="#ffffff" /><text x="449" y="570" font-size="12" text-anchor="middle" fill="#0f172a">0.03</text><rect x="486" y="529" width="74" height="74" fill="rgb(222, 200, 165)" stroke="#ffffff" /><text x="523" y="570" font-size="12" text-anchor="middle" fill="#0f172a">0.5</text><rect x="560" y="529" width="74" height="74" fill="rgb(239, 124, 124)" stroke="#ffffff" /><text x="597" y="570" font-size="12" text-anchor="middle" fill="#0f172a">-0.79</text><rect x="634" y="529" width="74" height="74" fill="rgb(190, 145, 75)" stroke="#ffffff" /><text x="671" y="570" font-size="12" text-anchor="middle" fill="#0f172a">1</text><rect x="708" y="529" width="74" height="74" fill="rgb(229, 210, 182)" stroke="#ffffff" /><text x="745" y="570" font-size="12" text-anchor="middle" fill="#0f172a">0.41</text><rect x="782" y="529" width="74" height="74" fill="rgb(198, 158, 96)" stroke="#ffffff" /><text x="819" y="570" font-size="12" text-anchor="middle" fill="#0f172a">0.88</text><rect x="190" y="603" width="74" height="74" fill="rgb(251, 219, 219)" stroke="#ffffff" /><text x="227" y="644" font-size="12" text-anchor="middle" fill="#0f172a">-0.22</text><rect x="264" y="603" width="74" height="74" fill="rgb(236, 223, 202)" stroke="#ffffff" /><text x="301" y="644" font-size="12" text-anchor="middle" fill="#0f172a">0.29</text><rect x="338" y="603" width="74" height="74" fill="rgb(255, 255, 255)" stroke="#ffffff" /><text x="375" y="644" font-size="12" text-anchor="middle" fill="#0f172a">0</text><rect x="412" y="603" width="74" height="74" fill="rgb(255, 255, 254)" stroke="#ffffff" /><text x="449" y="644" font-size="12" text-anchor="middle" fill="#0f172a">0</text><rect x="486" y="603" width="74" height="74" fill="rgb(214, 186, 141)" stroke="#ffffff" /><text x="523" y="644" font-size="12" text-anchor="middle" fill="#0f172a">0.63</text><rect x="560" y="603" width="74" height="74" fill="rgb(250, 215, 215)" stroke="#ffffff" /><text x="597" y="644" font-size="12" text-anchor="middle" fill="#0f172a">-0.24</text><rect x="634" y="603" width="74" height="74" fill="rgb(229, 210, 182)" stroke="#ffffff" /><text x="671" y="644" font-size="12" text-anchor="middle" fill="#0f172a">0.41</text><rect x="708" y="603" width="74" height="74" fill="rgb(190, 145, 75)" stroke="#ffffff" /><text x="745" y="644" font-size="12" text-anchor="middle" fill="#0f172a">1</text><rect x="782" y="603" width="74" height="74" fill="rgb(234, 219, 196)" stroke="#ffffff" /><text x="819" y="644" font-size="12" text-anchor="middle" fill="#0f172a">0.33</text><rect x="190" y="677" width="74" height="74" fill="rgb(238, 227, 209)" stroke="#ffffff" /><text x="227" y="718" font-size="12" text-anchor="middle" fill="#0f172a">0.26</text><rect x="264" y="677" width="74" height="74" fill="rgb(233, 218, 194)" stroke="#ffffff" /><text x="301" y="718" font-size="12" text-anchor="middle" fill="#0f172a">0.34</text><rect x="338" y="677" width="74" height="74" fill="rgb(255, 255, 255)" stroke="#ffffff" /><text x="375" y="718" font-size="12" text-anchor="middle" fill="#0f172a">0</text><rect x="412" y="677" width="74" height="74" fill="rgb(255, 253, 253)" stroke="#ffffff" /><text x="449" y="718" font-size="12" text-anchor="middle" fill="#0f172a">-0.01</text><rect x="486" y="677" width="74" height="74" fill="rgb(224, 203, 169)" stroke="#ffffff" /><text x="523" y="718" font-size="12" text-anchor="middle" fill="#0f172a">0.48</text><rect x="560" y="677" width="74" height="74" fill="rgb(239, 126, 126)" stroke="#ffffff" /><text x="597" y="718" font-size="12" text-anchor="middle" fill="#0f172a">-0.78</text><rect x="634" y="677" width="74" height="74" fill="rgb(198, 158, 96)" stroke="#ffffff" /><text x="671" y="718" font-size="12" text-anchor="middle" fill="#0f172a">0.88</text><rect x="708" y="677" width="74" height="74" fill="rgb(234, 219, 196)" stroke="#ffffff" /><text x="745" y="718" font-size="12" text-anchor="middle" fill="#0f172a">0.33</text><rect x="782" y="677" width="74" height="74" fill="rgb(190, 145, 75)" stroke="#ffffff" /><text x="819" y="718" font-size="12" text-anchor="middle" fill="#0f172a">1</text>
</svg>