<?xml version="1.0" encoding="UTF-8"?>
<svg xmlns="http://www.w3.org/2000/svg" width="1200" height="430" viewBox="0 0 1200 430">
<rect width="100%" height="100%" fill="#ffffff" />
<text x="80" y="22" font-size="20" font-weight="700" fill="#0f172a">Holdout Test Period Performance of the Integrated Onion Price Prediction Model</text>
<rect x="80" y="8" width="14" height="14" fill="#b91c1c" /><text x="100" y="20" font-size="12" fill="#0f172a">Actual onion price</text><rect x="300" y="8" width="14" height="14" fill="#1d4ed8" /><text x="320" y="20" font-size="12" fill="#0f172a">Predicted onion price</text><rect x="520" y="8" width="14" height="14" fill="#047857" /><text x="540" y="20" font-size="12" fill="#0f172a">Lag one baseline</text><line x1="80" y1="360" x2="1170" y2="360" stroke="#e5e7eb" />
      <text x="70" y="364" font-size="12" text-anchor="end" fill="#475569">2125</text><line x1="80" y1="294" x2="1170" y2="294" stroke="#e5e7eb" />
      <text x="70" y="298" font-size="12" text-anchor="end" fill="#475569">2517</text><line x1="80" y1="228" x2="1170" y2="228" stroke="#e5e7eb" />
      <text x="70" y="232" font-size="12" text-anchor="end" fill="#475569">2909</text><line x1="80" y1="162" x2="1170" y2="162" stroke="#e5e7eb" />
      <text x="70" y="166" font-size="12" text-anchor="end" fill="#475569">3301</text><line x1="80" y1="96" x2="1170" y2="96" stroke="#e5e7eb" />
      <text x="70" y="100" font-size="12" text-anchor="end" fill="#475569">3693</text><line x1="80" y1="30" x2="1170" y2="30" stroke="#e5e7eb" />
      <text x="70" y="34" font-size="12" text-anchor="end" fill="#475569">4085</text>
<line x1="80" y1="360" x2="1170" y2="360" stroke="#475569" stroke-width="1.5" />
<line x1="80" y1="30" x2="80" y2="360" stroke="#475569" stroke-width="1.5" />
<path d="M 80 305.9827040816327 L 89.15966386554622 320.9152040816327 L 98.31932773109244 315.38265306122446 L 107.47899159663865 324.2219387755102 L 116.63865546218487 335.34596938775513 L 125.7983193277311 288.78061224489795 L 134.9579831932773 318.5092346938776 L 144.11764705882354 289.0449489795919 L 153.27731092436974 302.1944387755102 L 162.43697478991595 311.2930102040816 L 171.5966386554622 311.2930102040816 L 180.7563025210084 322.11734693877554 L 189.9159663865546 307.8061224489796 L 199.07563025210084 324.5233163265306 L 208.23529411764704 285.2869897959184 L 217.39495798319328 317.90816326530614 L 226.5546218487395 290.96938775510205 L 235.7142857142857 317.73979591836735 L 244.87394957983193 317.90816326530614 L 254.03361344537814 343.16326530612247 L 263.1932773109244 340.1562244897959 L 272.3529411764706 304.75362244897957 L 281.5126050420168 323.31948979591834 L 290.672268907563 329.4834183673469 L 299.8319327731092 294.4562755102041 L 308.99159663865544 323.80102040816325 L 318.1512605042017 309.47464285714284 L 327.3109243697479 340.35658163265305 L 336.4705882352941 305.28061224489795 L 345.6302521008403 298.2647448979592 L 354.78991596638656 325.29780612244895 L 363.94957983193274 344.96647959183673 L 373.109243697479 322.11734693877554 L 382.2689075630252 312.4362244897959 L 391.4285714285714 318.5092346938776 L 400.5882352941176 319.7113775510204 L 409.74789915966386 337.5515816326531 L 418.90756302521004 294.33673469387753 L 428.0672268907563 314.90112244897955 L 437.2268907563025 305.28061224489795 L 446.38655462184875 258.8954081632653 L 455.5462184873949 278.82336734693877 L 464.70588235294116 259.58066326530616 L 473.8655462184874 202.5765306122449 L 483.0252100840336 162.16836734693877 L 492.1848739495798 207.8683163265306 L 501.34453781512605 236.25 L 510.5042016806722 229.51530612244898 L 519.6638655462184 281.4280102040816 L 528.8235294117646 220.04464285714286 L 537.9831932773109 263.1887755102041 L 547.1428571428571 182.61321428571426 L 556.3025210084033 193.31632653061226 L 565.4621848739496 204.26020408163265 L 574.6218487394958 153.75 L 583.781512605042 189.5280612244898 L 592.9411764705882 202.45698979591836 L 602.1008403361344 89.7704081632653 L 611.2605042016806 176.1984183673469 L 620.4201680672269 168.48214285714283 L 629.5798319327731 158.56025510204083 L 638.7394957983192 146.1734693877551 L 647.8991596638655 159.76239795918366 L 657.0588235294117 105.86969387755099 L 666.218487394958 118.6740306122449 L 675.3781512605042 111.23724489795919 L 684.5378151260504 186.48734693877552 L 693.6974789915967 155.1525 L 702.8571428571428 115.86734693877551 L 712.016806722689 147.73760204081634 L 721.1764705882352 96.79301020408161 L 730.3361344537815 118.6740306122449 L 739.4957983193277 146.1734693877551 L 748.655462184874 135.8609693877551 L 757.8151260504201 157.9591836734694 L 766.9747899159663 52.34739795918364 L 776.1344537815125 82.19387755102042 L 785.2941176470588 59.74545918367346 L 794.453781512605 82.19387755102042 L 803.6134453781513 30 L 812.7731092436975 82.79494897959188 L 821.9327731092436 99.63168367346941 L 831.0924369747898 75.2066326530612 L 840.2521008403361 86.40306122448982 L 849.4117647058823 118.49724489795915 L 858.5714285714286 66.75964285714281 L 867.7310924369748 106.3966836734694 L 876.8907563025209 96.6919897959184 L 886.0504201680671 117.26984693877552 L 895.2100840336134 116.63341836734699 L 904.3697478991596 181.41107142857143 L 913.5294117647059 169.5344387755102 L 922.6890756302521 207.62755102040816 L 931.8487394957982 174.79591836734696 L 941.0084033613444 152.8138775510204 L 950.1680672268907 195.84183673469386 L 959.3277310924369 100.17887755102043 L 968.4873949579832 222.49943877551019 L 977.6470588235294 163.22066326530614 L 986.8067226890756 145.33163265306123 L 995.9663865546217 190.23015306122448 L 1005.126050420168 219.6944387755102 L 1014.2857142857142 115.44642857142856 L 1023.4453781512605 175.84821428571428 L 1032.6050420168067 131.0204081632653 L 1041.764705882353 179.00510204081633 L 1050.9243697478992 198.99872448979593 L 1060.0840336134452 160.06377551020407 L 1069.2436974789916 199.4499489795918 L 1078.4033613445376 100.54591836734693 L 1087.563025210084 135.51076530612247 L 1096.7226890756301 109.60071428571433 L 1105.8823529411764 117.26984693877552 L 1115.0420168067226 131.114693877551 L 1124.2016806722688 130.3654591836735 L 1133.361344537815 216.8877551020408 L 1142.5210084033613 126.58224489795919 L 1151.6806722689075 190.23015306122448 L 1160.8403361344538 168.48214285714283 L 1170 195.84183673469386" fill="none" stroke="#b91c1c" stroke-width="3" /><path d="M 80 343.04204081632656 L 89.15966386554622 328.9210714285714 L 98.31932773109244 327.2070918367347 L 107.47899159663865 331.45331632653057 L 116.63865546218487 328.9379081632653 L 125.7983193277311 323.7808163265306 L 134.9579831932773 317.64551020408163 L 144.11764705882354 322.7352551020408 L 153.27731092436974 312.79316326530613 L 162.43697478991595 314.3741326530613 L 171.5966386554622 322.85816326530613 L 180.7563025210084 320.5043877551021 L 189.9159663865546 311.4226530612245 L 199.07563025210084 309.5958673469388 L 208.23529411764704 321.32770408163265 L 217.39495798319328 313.0575 L 226.5546218487395 319.53290816326535 L 235.7142857142857 316.1369387755102 L 244.87394957983193 325.0267346938776 L 254.03361344537814 318.31897959183675 L 263.1932773109244 326.62622448979596 L 272.3529411764706 324.5233163265306 L 281.5126050420168 321.368112244898 L 290.672268907563 325.39714285714285 L 299.8319327731092 336.3376530612245 L 308.99159663865544 327.90244897959184 L 318.1512605042017 327.76943877551025 L 327.3109243697479 318.98234693877555 L 336.4705882352941 329.57770408163265 L 345.6302521008403 323.6410714285715 L 354.78991596638656 320.52459183673466 L 363.94957983193274 327.195306122449 L 373.109243697479 340.55188775510203 L 382.2689075630252 332.3523979591837 L 391.4285714285714 327.4815306122449 L 400.5882352941176 329.2746428571429 L 409.74789915966386 325.0486224489796 L 418.90756302521004 333.3390306122449 L 428.0672268907563 326.27770408163263 L 437.2268907563025 325.0536734693878 L 446.38655462184875 319.78882653061225 L 455.5462184873949 305.2974489795918 L 464.70588235294116 304.14076530612243 L 473.8655462184874 292.9594897959184 L 483.0252100840336 271.6627040816327 L 492.1848739495798 249.0627551020408 L 501.34453781512605 242.60923469387757 L 510.5042016806722 232.79005102040813 L 519.6638655462184 230.5760204081633 L 528.8235294117646 240.9120918367347 L 537.9831932773109 220.24836734693878 L 547.1428571428571 234.50908163265305 L 556.3025210084033 228.01852040816328 L 565.4621848739496 236.12709183673468 L 574.6218487394958 233.61168367346937 L 583.781512605042 214.29321428571433 L 592.9411764705882 213.2375510204082 L 602.1008403361344 208.5855612244898 L 611.2605042016806 172.7788775510204 L 620.4201680672269 186.99749999999997 L 629.5798319327731 178.5622959183673 L 638.7394957983192 165.76132653061225 L 647.8991596638655 167.3726020408163 L 657.0588235294117 162.56234693877553 L 666.218487394958 148.58280612244897 L 675.3781512605042 150.067806122449 L 684.5378151260504 142.0114285714286 L 693.6974789915967 156.70989795918368 L 702.8571428571428 145.57744897959185 L 712.016806722689 136.58326530612243 L 721.1764705882352 142.06698979591837 L 730.3361344537815 132.41112244897963 L 739.4957983193277 138.08510204081634 L 748.655462184874 151.81714285714284 L 757.8151260504201 146.24755102040817 L 766.9747899159663 142.16295918367345 L 776.1344537815125 115.4952551020408 L 785.2941176470588 115.23596938775509 L 794.453781512605 104.13382653061223 L 803.6134453781513 112.26933673469392 L 812.7731092436975 87.53785714285709 L 821.9327731092436 95.62117346938777 L 831.0924369747898 85.76158163265308 L 840.2521008403361 83.85397959183672 L 849.4117647058823 91.22846938775507 L 858.5714285714286 101.48540816326528 L 867.7310924369748 86.4232653061224 L 876.8907563025209 116.95668367346934 L 886.0504201680671 106.36469387755102 L 895.2100840336134 103.55969387755101 L 904.3697478991596 107.63250000000002 L 913.5294117647059 127.10923469387757 L 922.6890756302521 132.2208673469388 L 931.8487394957982 156.25867346938776 L 941.0084033613444 159.78260204081633 L 950.1680672268907 163.3856632653061 L 959.3277310924369 162.84015306122447 L 968.4873949579832 148.8067346938775 L 977.6470588235294 189.61056122448974 L 986.8067226890756 169.3222959183673 L 995.9663865546217 160.76923469387756 L 1005.126050420168 168.67913265306123 L 1014.2857142857142 177.8214795918367 L 1023.4453781512605 143.61428571428576 L 1032.6050420168067 170.83255102040818 L 1041.764705882353 156.7587244897959 L 1050.9243697478992 170.40321428571426 L 1060.0840336134452 178.70540816326525 L 1069.2436974789916 182.17545918367347 L 1078.4033613445376 174.54000000000002 L 1087.563025210084 159.72872448979595 L 1096.7226890756301 154.23489795918368 L 1105.8823529411764 151.33056122448983 L 1115.0420168067226 146.47147959183673 L 1124.2016806722688 139.12224489795915 L 1133.361344537815 143.82979591836732 L 1142.5210084033613 152.5916326530612 L 1151.6806722689075 140.49275510204086 L 1160.8403361344538 158.07704081632647 L 1170 160.8180612244898" fill="none" stroke="#1d4ed8" stroke-width="3" /><path d="M 80 360 L 89.15966386554622 305.9827040816327 L 98.31932773109244 320.9152040816327 L 107.47899159663865 315.38265306122446 L 116.63865546218487 324.2219387755102 L 125.7983193277311 335.34596938775513 L 134.9579831932773 288.78061224489795 L 144.11764705882354 318.5092346938776 L 153.27731092436974 289.0449489795919 L 162.43697478991595 302.1944387755102 L 171.5966386554622 311.2930102040816 L 180.7563025210084 311.2930102040816 L 189.9159663865546 322.11734693877554 L 199.07563025210084 307.8061224489796 L 208.23529411764704 324.5233163265306 L 217.39495798319328 285.2869897959184 L 226.5546218487395 317.90816326530614 L 235.7142857142857 290.96938775510205 L 244.87394957983193 317.73979591836735 L 254.03361344537814 317.90816326530614 L 263.1932773109244 343.16326530612247 L 272.3529411764706 340.1562244897959 L 281.5126050420168 304.75362244897957 L 290.672268907563 323.31948979591834 L 299.8319327731092 329.4834183673469 L 308.99159663865544 294.4562755102041 L 318.1512605042017 323.80102040816325 L 327.3109243697479 309.47464285714284 L 336.4705882352941 340.35658163265305 L 345.6302521008403 305.28061224489795 L 354.78991596638656 298.2647448979592 L 363.94957983193274 325.29780612244895 L 373.109243697479 344.96647959183673 L 382.2689075630252 322.11734693877554 L 391.4285714285714 312.4362244897959 L 400.5882352941176 318.5092346938776 L 409.74789915966386 319.7113775510204 L 418.90756302521004 337.5515816326531 L 428.0672268907563 294.33673469387753 L 437.2268907563025 314.90112244897955 L 446.38655462184875 305.28061224489795 L 455.5462184873949 258.8954081632653 L 464.70588235294116 278.82336734693877 L 473.8655462184874 259.58066326530616 L 483.0252100840336 202.5765306122449 L 492.1848739495798 162.16836734693877 L 501.34453781512605 207.8683163265306 L 510.5042016806722 236.25 L 519.6638655462184 229.51530612244898 L 528.8235294117646 281.4280102040816 L 537.9831932773109 220.04464285714286 L 547.1428571428571 263.1887755102041 L 556.3025210084033 182.61321428571426 L 565.4621848739496 193.31632653061226 L 574.6218487394958 204.26020408163265 L 583.781512605042 153.75 L 592.9411764705882 189.5280612244898 L 602.1008403361344 202.45698979591836 L 611.2605042016806 89.7704081632653 L 620.4201680672269 176.1984183673469 L 629.5798319327731 168.48214285714283 L 638.7394957983192 158.56025510204083 L 647.8991596638655 146.1734693877551 L 657.0588235294117 159.76239795918366 L 666.218487394958 105.86969387755099 L 675.3781512605042 118.6740306122449 L 684.5378151260504 111.23724489795919 L 693.6974789915967 186.48734693877552 L 702.8571428571428 155.1525 L 712.016806722689 115.86734693877551 L 721.1764705882352 147.73760204081634 L 730.3361344537815 96.79301020408161 L 739.4957983193277 118.6740306122449 L 748.655462184874 146.1734693877551 L 757.8151260504201 135.8609693877551 L 766.9747899159663 157.9591836734694 L 776.1344537815125 52.34739795918364 L 785.2941176470588 82.19387755102042 L 794.453781512605 59.74545918367346 L 803.6134453781513 82.19387755102042 L 812.7731092436975 30 L 821.9327731092436 82.79494897959188 L 831.0924369747898 99.63168367346941 L 840.2521008403361 75.2066326530612 L 849.4117647058823 86.40306122448982 L 858.5714285714286 118.49724489795915 L 867.7310924369748 66.75964285714281 L 876.8907563025209 106.3966836734694 L 886.0504201680671 96.6919897959184 L 895.2100840336134 117.26984693877552 L 904.3697478991596 116.63341836734699 L 913.5294117647059 181.41107142857143 L 922.6890756302521 169.5344387755102 L 931.8487394957982 207.62755102040816 L 941.0084033613444 174.79591836734696 L 950.1680672268907 152.8138775510204 L 959.3277310924369 195.84183673469386 L 968.4873949579832 100.17887755102043 L 977.6470588235294 222.49943877551019 L 986.8067226890756 163.22066326530614 L 995.9663865546217 145.33163265306123 L 1005.126050420168 190.23015306122448 L 1014.2857142857142 219.6944387755102 L 1023.4453781512605 115.44642857142856 L 1032.6050420168067 175.84821428571428 L 1041.764705882353 131.0204081632653 L 1050.9243697478992 179.00510204081633 L 1060.0840336134452 198.99872448979593 L 1069.2436974789916 160.06377551020407 L 1078.4033613445376 199.4499489795918 L 1087.563025210084 100.54591836734693 L 1096.7226890756301 135.51076530612247 L 1105.8823529411764 109.60071428571433 L 1115.0420168067226 117.26984693877552 L 1124.2016806722688 131.114693877551 L 1133.361344537815 130.3654591836735 L 1142.5210084033613 216.8877551020408 L 1151.6806722689075 126.58224489795919 L 1160.8403361344538 190.23015306122448 L 1170 168.48214285714283" fill="none" stroke="#047857" stroke-width="3" /><text x="80" y="380" font-size="11" text-anchor="middle" fill="#475569">2024-07-02</text><text x="171.5966386554622" y="380" font-size="11" text-anchor="middle" fill="#475569">2024-07-12</text><text x="263.1932773109244" y="380" font-size="11" text-anchor="middle" fill="#475569">2024-07-22</text><text x="354.78991596638656" y="380" font-size="11" text-anchor="middle" fill="#475569">2024-08-01</text><text x="446.38655462184875" y="380" font-size="11" text-anchor="middle" fill="#475569">2024-08-11</text><text x="537.9831932773109" y="380" font-size="11" text-anchor="middle" fill="#475569">2024-08-21</text><text x="629.5798319327731" y="380" font-size="11" text-anchor="middle" fill="#475569">2024-08-31</text><text x="721.1764705882352" y="380" font-size="11" text-anchor="middle" fill="#475569">2024-09-10</text><text x="812.7731092436975" y="380" font-size="11" text-anchor="middle" fill="#475569">2024-09-20</text><text x="904.3697478991596" y="380" font-size="11" text-anchor="middle" fill="#475569">2024-09-30</text><text x="995.9663865546217" y="380" font-size="11" text-anchor="middle" fill="#475569">2024-10-11</text><text x="1087.563025210084" y="380" font-size="11" text-anchor="middle" fill="#475569">2024-10-21</text><text x="1170" y="380" font-size="11" text-anchor="middle" fill="#475569">2024-10-30</text>
<text x="18" y="195" font-size="12" fill="#475569" transform="rotate(-90 18 195)">Onion average modal price in rupees per quintal</text>
</svg>