<?xml version="1.0" encoding="UTF-8"?>
<svg xmlns="http://www.w3.org/2000/svg" width="1200" height="430" viewBox="0 0 1200 430">
<rect width="100%" height="100%" fill="#ffffff" />
<text x="80" y="22" font-size="20" font-weight="700" fill="#0f172a">Holdout Test Period Performance of the Integrated Tomato Price Prediction Model</text>
<rect x="80" y="8" width="14" height="14" fill="#b91c1c" /><text x="100" y="20" font-size="12" fill="#0f172a">Actual tomato price</text><rect x="300" y="8" width="14" height="14" fill="#1d4ed8" /><text x="320" y="20" font-size="12" fill="#0f172a">Predicted tomato price</text><rect x="520" y="8" width="14" height="14" fill="#047857" /><text x="540" y="20" font-size="12" fill="#0f172a">Lag one baseline</text><line x1="80" y1="360" x2="1170" y2="360" stroke="#e5e7eb" />
      <text x="70" y="364" font-size="12" text-anchor="end" fill="#475569">1192.86</text><line x1="80" y1="294" x2="1170" y2="294" stroke="#e5e7eb" />
      <text x="70" y="298" font-size="12" text-anchor="end" fill="#475569">2105.29</text><line x1="80" y1="227.99999999999997" x2="1170" y2="227.99999999999997" stroke="#e5e7eb" />
      <text x="70" y="231.99999999999997" font-size="12" text-anchor="end" fill="#475569">3017.72</text><line x1="80" y1="161.99999999999997" x2="1170" y2="161.99999999999997" stroke="#e5e7eb" />
      <text x="70" y="165.99999999999997" font-size="12" text-anchor="end" fill="#475569">3930.14</text><line x1="80" y1="96" x2="1170" y2="96" stroke="#e5e7eb" />
      <text x="70" y="100" font-size="12" text-anchor="end" fill="#475569">4842.57</text><line x1="80" y1="30" x2="1170" y2="30" stroke="#e5e7eb" />
      <text x="70" y="34" font-size="12" text-anchor="end" fill="#475569">5755</text>
<line x1="80" y1="360" x2="1170" y2="360" stroke="#475569" stroke-width="1.5" />
<line x1="80" y1="30" x2="80" y2="360" stroke="#475569" stroke-width="1.5" />
<path d="M 80 190.7033322081304 L 89.15966386554622 181.8119785889955 L 98.31932773109244 197.33351015093794 L 107.47899159663865 203.36186526498528 L 116.63865546218487 212.64454839176352 L 125.7983193277311 189.49751651637172 L 134.9579831932773 206.03100737811644 L 144.11764705882354 170.50971693108934 L 153.27731092436974 189.40709842310844 L 162.43697478991595 213.0062207648165 L 171.5966386554622 162.0104161643439 L 180.7563025210084 157.67034768770796 L 189.9159663865546 182.26406905531178 L 199.07563025210084 160.56372667213193 L 208.23529411764704 178.64734532478178 L 217.39495798319328 147.6469595409172 L 226.5546218487395 148.5077397887833 L 235.7142857142857 133.79997106621016 L 244.87394957983193 143.92679751169405 L 254.03361344537814 143.51376766166754 L 263.1932773109244 123.88002121811252 L 272.3529411764706 150.9193711723007 L 281.5126050420168 158.49713073250712 L 290.672268907563 159.11703717991995 L 299.8319327731092 126.8073974056035 L 308.99159663865544 30 L 318.1512605042017 36.389304142354206 L 327.3109243697479 120.77976563630227 L 336.4705882352941 128.73655784346818 L 345.6302521008403 122.58812750156724 L 354.78991596638656 171.93036601244154 L 363.94957983193274 197.76462361961708 L 373.109243697479 199.10787481313596 L 382.2689075630252 175.0306215942518 L 391.4285714285714 190.7033322081304 L 400.5882352941176 212.64454839176352 L 409.74789915966386 179.16381347350148 L 418.90756302521004 272.68216231856104 L 428.0672268907563 282.92978733664467 L 437.2268907563025 284.73814920190966 L 446.38655462184875 328.48314606741576 L 455.5462184873949 331.583401649226 L 464.70588235294116 328.1388339682693 L 473.8655462184874 324.86642233688576 L 483.0252100840336 322.1104788542219 L 492.1848739495798 320.7332304576361 L 501.34453781512605 333.4431209914645 L 510.5042016806722 313.3703042870232 L 519.6638655462184 322.7137483724743 L 528.8235294117646 319.6995708154506 L 537.9831932773109 312.91821382070697 L 547.1428571428571 319.6995708154506 L 556.3025210084033 329.5160823648551 L 565.4621848739496 317.52953657713266 L 574.6218487394958 292.57414283647586 L 583.781512605042 326.2096735304046 L 592.9411764705882 321.5079326807156 L 602.1008403361344 314.877031393162 L 611.2605042016806 329.6455610744081 L 620.4201680672269 317.89120895018567 L 629.5798319327731 308.84939962386073 L 638.7394957983192 320.2160389641703 L 647.8991596638655 337.2667213193808 L 657.0588235294117 344.4140907556542 L 666.218487394958 334.16646573757055 L 675.3781512605042 350.44172252495537 L 684.5378151260504 360 L 693.6974789915967 346.2224526209191 L 702.8571428571428 349.14982880841006 L 712.016806722689 349.5375415923229 L 721.1764705882352 347.4275449679317 L 730.3361344537815 344.5645464628442 L 739.4957983193277 339.2298789603125 L 748.655462184874 325.38289048560546 L 757.8151260504201 336.5773737763418 L 766.9747899159663 333.64999758885085 L 776.1344537815125 352.25008439022037 L 785.2941176470588 355.35033997203067 L 794.453781512605 342.43357284081594 L 803.6134453781513 312.2078892800309 L 812.7731092436975 328.3797077687226 L 821.9327731092436 329.10305251482856 L 831.0924369747898 332.8101943386218 L 840.2521008403361 334.6829338862902 L 849.4117647058823 341.3999131986305 L 858.5714285714286 333.13280609538504 L 867.7310924369748 306.6793653855427 L 876.8907563025209 278.468920287409 L 886.0504201680671 282.32651781839223 L 895.2100840336134 278.8819501374355 L 904.3697478991596 279.915609779621 L 913.5294117647059 267.2570767227661 L 922.6890756302521 290.76578097121086 L 931.8487394957982 270.87380045329604 L 941.0084033613444 319.6995708154506 L 950.1680672268907 263.0378068187298 L 959.3277310924369 262.86565076915656 L 968.4873949579832 243.74837247432126 L 977.6470588235294 228.5581328060954 L 986.8067226890756 208.5627139894874 L 995.9663865546217 232.05405796402567 L 1005.126050420168 240.1316487437913 L 1014.2857142857142 178.948980083908 L 1023.4453781512605 192.52616096831747 L 1032.6050420168067 201.65838838790566 L 1041.764705882353 183.46988474707047 L 1050.9243697478992 139.31547475526835 L 1060.0840336134452 215.718763562714 L 1069.2436974789916 190.7033322081304 L 1078.4033613445376 187.43092057674687 L 1087.563025210084 195.69730433524617 L 1096.7226890756301 162.9746347109032 L 1105.8823529411764 191.90842455514294 L 1115.0420168067226 166.1436080435936 L 1124.2016806722688 185.88079278584175 L 1133.361344537815 190.10006268987797 L 1142.5210084033613 211.7143270482712 L 1151.6806722689075 199.83121955924196 L 1160.8403361344538 190.7033322081304 L 1170 159.96118049862562" fill="none" stroke="#b91c1c" stroke-width="3" /><path d="M 80 188.06674060857404 L 89.15966386554622 187.95751555191202 L 98.31932773109244 182.28721608718718 L 107.47899159663865 187.67396441143848 L 116.63865546218487 197.8969957081545 L 125.7983193277311 206.10840526594978 L 134.9579831932773 198.91474176592567 L 144.11764705882354 203.65554323190435 L 153.27731092436974 186.00159135844143 L 162.43697478991595 184.74586487920143 L 171.5966386554622 201.65911173265178 L 180.7563025210084 182.08033948980085 L 189.9159663865546 166.55953127260454 L 199.07563025210084 175.16950378550416 L 208.23529411764704 170.32454067608626 L 217.39495798319328 173.7980421468872 L 226.5546218487395 159.17562810435456 L 235.7142857142857 152.0521290447027 L 244.87394957983193 141.6533249746829 L 254.03361344537814 142.0251241741814 L 263.1932773109244 144.3202970535757 L 272.3529411764706 134.8473742585716 L 281.5126050420168 143.26349037951488 L 290.672268907563 152.91580267155328 L 299.8319327731092 160.56083329314748 L 308.99159663865544 142.16834643391036 L 318.1512605042017 76.65139605535995 L 327.3109243697479 47.722669624342984 L 336.4705882352941 87.71206056806676 L 345.6302521008403 119.1645368182476 L 354.78991596638656 124.89849062062976 L 363.94957983193274 154.48039735738055 L 373.109243697479 188.96585812798384 L 382.2689075630252 203.3510150937937 L 391.4285714285714 188.5672951728794 L 400.5882352941176 190.9760331774124 L 409.74789915966386 207.27805372040316 L 418.90756302521004 196.5233640352992 L 428.0672268907563 241.80329845204227 L 437.2268907563025 279.2183054443748 L 446.38655462184875 292.3730529970584 L 455.5462184873949 316.9949848097603 L 464.70588235294116 331.4951535902011 L 473.8655462184874 337.0627381009789 L 483.0252100840336 332.7154361768819 L 492.1848739495798 328.9207696388099 L 501.34453781512605 327.55871148189226 L 510.5042016806722 334.1114915368665 L 519.6638655462184 326.22992718329556 L 528.8235294117646 325.2591985340213 L 537.9831932773109 325.02338814679075 L 547.1428571428571 317.1714809278102 L 556.3025210084033 318.39538023822155 L 565.4621848739496 325.2678786709746 L 574.6218487394958 321.0196749770941 L 583.781512605042 303.4568645416405 L 592.9411764705882 313.1453440709842 L 602.1008403361344 321.6786420407966 L 611.2605042016806 316.2455996527945 L 620.4201680672269 322.71302502772824 L 629.5798319327731 319.63591647779333 L 638.7394957983192 313.76525051839707 L 647.8991596638655 315.8911607272026 L 657.0588235294117 330.6293099291122 L 666.218487394958 336.18676761344454 L 675.3781512605042 336.65332497468296 L 684.5378151260504 343.0939865940107 L 693.6974789915967 354.20383854945266 L 702.8571428571428 352.0822684091238 L 712.016806722689 348.91401842117955 L 721.1764705882352 349.21492983555964 L 730.3361344537815 348.4279307517963 L 739.4957983193277 344.9768529681246 L 748.655462184874 340.3532333510151 L 757.8151260504201 333.05974827602836 L 766.9747899159663 334.18020928774655 L 776.1344537815125 333.52702898201284 L 785.2941176470588 343.3739210107537 L 794.453781512605 350.8012248637701 L 803.6134453781513 345.6596904084487 L 812.7731092436975 324.61831508897137 L 821.9327731092436 323.65915995563483 L 831.0924369747898 326.3188985870666 L 840.2521008403361 329.4423012007523 L 849.4117647058823 331.6014852678787 L 858.5714285714286 335.23122920383855 L 867.7310924369748 334.442783430583 L 876.8907563025209 317.37112407773543 L 886.0504201680671 291.71263924386363 L 895.2100840336134 283.2278053720403 L 904.3697478991596 278.3003809615663 L 913.5294117647059 277.2276607030911 L 922.6890756302521 269.62603076626317 L 931.8487394957982 280.4436514442784 L 941.0084033613444 272.56136374596133 L 950.1680672268907 299.89439166706853 L 959.3277310924369 281.23716063075665 L 968.4873949579832 265.04508848917396 L 977.6470588235294 251.6010030380479 L 986.8067226890756 234.78468438057578 L 995.9663865546217 218.64758643969716 L 1005.126050420168 223.54607706032695 L 1014.2857142857142 235.3879538988282 L 1023.4453781512605 204.67039591069104 L 1032.6050420168067 193.2979698124126 L 1041.764705882353 198.39610358296767 L 1050.9243697478992 189.58721126488882 L 1060.0840336134452 158.72353763803832 L 1069.2436974789916 185.009162366784 L 1078.4033613445376 194.47557505907318 L 1087.563025210084 190.57240680908524 L 1096.7226890756301 193.6386651878285 L 1105.8823529411764 176.8346433910402 L 1115.0420168067226 186.36181704200226 L 1124.2016806722688 176.66610406519752 L 1133.361344537815 181.39388532574625 L 1142.5210084033613 190.72430920576747 L 1151.6806722689075 204.4403722814293 L 1160.8403361344538 207.42055263538606 L 1170 198.83228046486957" fill="none" stroke="#1d4ed8" stroke-width="3" /><path d="M 80 180.81737956309976 L 89.15966386554622 190.7033322081304 L 98.31932773109244 181.8119785889955 L 107.47899159663865 197.33351015093794 L 116.63865546218487 203.36186526498528 L 125.7983193277311 212.64454839176352 L 134.9579831932773 189.49751651637172 L 144.11764705882354 206.03100737811644 L 153.27731092436974 170.50971693108934 L 162.43697478991595 189.40709842310844 L 171.5966386554622 213.0062207648165 L 180.7563025210084 162.0104161643439 L 189.9159663865546 157.67034768770796 L 199.07563025210084 182.26406905531178 L 208.23529411764704 160.56372667213193 L 217.39495798319328 178.64734532478178 L 226.5546218487395 147.6469595409172 L 235.7142857142857 148.5077397887833 L 244.87394957983193 133.79997106621016 L 254.03361344537814 143.92679751169405 L 263.1932773109244 143.51376766166754 L 272.3529411764706 123.88002121811252 L 281.5126050420168 150.9193711723007 L 290.672268907563 158.49713073250712 L 299.8319327731092 159.11703717991995 L 308.99159663865544 126.8073974056035 L 318.1512605042017 30 L 327.3109243697479 36.389304142354206 L 336.4705882352941 120.77976563630227 L 345.6302521008403 128.73655784346818 L 354.78991596638656 122.58812750156724 L 363.94957983193274 171.93036601244154 L 373.109243697479 197.76462361961708 L 382.2689075630252 199.10787481313596 L 391.4285714285714 175.0306215942518 L 400.5882352941176 190.7033322081304 L 409.74789915966386 212.64454839176352 L 418.90756302521004 179.16381347350148 L 428.0672268907563 272.68216231856104 L 437.2268907563025 282.92978733664467 L 446.38655462184875 284.73814920190966 L 455.5462184873949 328.48314606741576 L 464.70588235294116 331.583401649226 L 473.8655462184874 328.1388339682693 L 483.0252100840336 324.86642233688576 L 492.1848739495798 322.1104788542219 L 501.34453781512605 320.7332304576361 L 510.5042016806722 333.4431209914645 L 519.6638655462184 313.3703042870232 L 528.8235294117646 322.7137483724743 L 537.9831932773109 319.6995708154506 L 547.1428571428571 312.91821382070697 L 556.3025210084033 319.6995708154506 L 565.4621848739496 329.5160823648551 L 574.6218487394958 317.52953657713266 L 583.781512605042 292.57414283647586 L 592.9411764705882 326.2096735304046 L 602.1008403361344 321.5079326807156 L 611.2605042016806 314.877031393162 L 620.4201680672269 329.6455610744081 L 629.5798319327731 317.89120895018567 L 638.7394957983192 308.84939962386073 L 647.8991596638655 320.2160389641703 L 657.0588235294117 337.2667213193808 L 666.218487394958 344.4140907556542 L 675.3781512605042 334.16646573757055 L 684.5378151260504 350.44172252495537 L 693.6974789915967 360 L 702.8571428571428 346.2224526209191 L 712.016806722689 349.14982880841006 L 721.1764705882352 349.5375415923229 L 730.3361344537815 347.4275449679317 L 739.4957983193277 344.5645464628442 L 748.655462184874 339.2298789603125 L 757.8151260504201 325.38289048560546 L 766.9747899159663 336.5773737763418 L 776.1344537815125 333.64999758885085 L 785.2941176470588 352.25008439022037 L 794.453781512605 355.35033997203067 L 803.6134453781513 342.43357284081594 L 812.7731092436975 312.2078892800309 L 821.9327731092436 328.3797077687226 L 831.0924369747898 329.10305251482856 L 840.2521008403361 332.8101943386218 L 849.4117647058823 334.6829338862902 L 858.5714285714286 341.3999131986305 L 867.7310924369748 333.13280609538504 L 876.8907563025209 306.6793653855427 L 886.0504201680671 278.468920287409 L 895.2100840336134 282.32651781839223 L 904.3697478991596 278.8819501374355 L 913.5294117647059 279.915609779621 L 922.6890756302521 267.2570767227661 L 931.8487394957982 290.76578097121086 L 941.0084033613444 270.87380045329604 L 950.1680672268907 319.6995708154506 L 959.3277310924369 263.0378068187298 L 968.4873949579832 262.86565076915656 L 977.6470588235294 243.74837247432126 L 986.8067226890756 228.5581328060954 L 995.9663865546217 208.5627139894874 L 1005.126050420168 232.05405796402567 L 1014.2857142857142 240.1316487437913 L 1023.4453781512605 178.948980083908 L 1032.6050420168067 192.52616096831747 L 1041.764705882353 201.65838838790566 L 1050.9243697478992 183.46988474707047 L 1060.0840336134452 139.31547475526835 L 1069.2436974789916 215.718763562714 L 1078.4033613445376 190.7033322081304 L 1087.563025210084 187.43092057674687 L 1096.7226890756301 195.69730433524617 L 1105.8823529411764 162.9746347109032 L 1115.0420168067226 191.90842455514294 L 1124.2016806722688 166.1436080435936 L 1133.361344537815 185.88079278584175 L 1142.5210084033613 190.10006268987797 L 1151.6806722689075 211.7143270482712 L 1160.8403361344538 199.83121955924196 L 1170 190.7033322081304" fill="none" stroke="#047857" stroke-width="3" /><text x="80" y="380" font-size="11" text-anchor="middle" fill="#475569">2024-06-22</text><text x="171.5966386554622" y="380" font-size="11" text-anchor="middle" fill="#475569">2024-07-02</text><text x="263.1932773109244" y="380" font-size="11" text-anchor="middle" fill="#475569">2024-07-12</text><text x="354.78991596638656" y="380" font-size="11" text-anchor="middle" fill="#475569">2024-07-22</text><text x="446.38655462184875" y="380" font-size="11" text-anchor="middle" fill="#475569">2024-08-01</text><text x="537.9831932773109" y="380" font-size="11" text-anchor="middle" fill="#475569">2024-08-11</text><text x="629.5798319327731" y="380" font-size="11" text-anchor="middle" fill="#475569">2024-08-21</text><text x="721.1764705882352" y="380" font-size="11" text-anchor="middle" fill="#475569">2024-08-31</text><text x="812.7731092436975" y="380" font-size="11" text-anchor="middle" fill="#475569">2024-09-10</text><text x="904.3697478991596" y="380" font-size="11" text-anchor="middle" fill="#475569">2024-09-20</text><text x="995.9663865546217" y="380" font-size="11" text-anchor="middle" fill="#475569">2024-09-30</text><text x="1087.563025210084" y="380" font-size="11" text-anchor="middle" fill="#475569">2024-10-11</text><text x="1170" y="380" font-size="11" text-anchor="middle" fill="#475569">2024-10-20</text>
<text x="18" y="195" font-size="12" fill="#475569" transform="rotate(-90 18 195)">Tomato average modal price in rupees per quintal</text>
</svg>