<?xml version="1.0" encoding="UTF-8"?>
<svg xmlns="http://www.w3.org/2000/svg" width="760" height="520" viewBox="0 0 760 520">
<rect width="100%" height="100%" fill="#ffffff" />
<text x="80" y="22" font-size="20" font-weight="700" fill="#0f172a">Diagnostic Scatter Plot of Actual Versus Predicted Tomato Prices on the Holdout Test Data</text>
<line x1="80" y1="450" x2="730" y2="450" stroke="#475569" stroke-width="1.5" />
<line x1="80" y1="30" x2="80" y2="450" stroke="#475569" stroke-width="1.5" />
<line x1="91.41668164501749" y1="450" x2="695.0917113459911" y2="30" stroke="#dc2626" stroke-width="2" stroke-dasharray="6 4" />
<circle cx="413.46313352944014" cy="222.32669341515222" r="3.2" fill="#7c3aed" fill-opacity="0.65" /><circle cx="430.97640580955436" cy="222.17701203681847" r="3.2" fill="#7c3aed" fill-opacity="0.65" /><circle cx="400.4036921269404" cy="214.40646683974512" r="3.2" fill="#7c3aed" fill-opacity="0.65" /><circle cx="388.5296593265441" cy="221.78843521359448" r="3.2" fill="#7c3aed" fill-opacity="0.65" /><circle cx="370.24558650107184" cy="235.79801746518763" r="3.2" fill="#7c3aed" fill-opacity="0.65" /><circle cx="415.83822504351025" cy="247.05088506018407" r="3.2" fill="#7c3aed" fill-opacity="0.65" /><circle cx="383.27225819461916" cy="237.19273070568804" r="3.2" fill="#7c3aed" fill-opacity="0.65" /><circle cx="453.23843634785436" cy="243.68949728581546" r="3.2" fill="#7c3aed" fill-opacity="0.65" /><circle cx="416.0163212878167" cy="219.49662497049798" r="3.2" fill="#7c3aed" fill-opacity="0.65" /><circle cx="369.5332015238463" cy="217.77578475336324" r="3.2" fill="#7c3aed" fill-opacity="0.65" /><circle cx="469.97948331265593" cy="240.95359924474863" r="3.2" fill="#7c3aed" fill-opacity="0.65" /><circle cx="478.52810303936315" cy="214.12296436157655" r="3.2" fill="#7c3aed" fill-opacity="0.65" /><circle cx="430.0859245880223" cy="192.85333962709467" r="3.2" fill="#7c3aed" fill-opacity="0.65" /><circle cx="472.8290232215583" cy="204.65239556289825" r="3.2" fill="#7c3aed" fill-opacity="0.65" /><circle cx="437.2097743602783" cy="198.0128864762804" r="3.2" fill="#7c3aed" fill-opacity="0.65" /><circle cx="498.27114029819336" cy="202.77295256077412" r="3.2" fill="#7c3aed" fill-opacity="0.65" /><circle cx="496.5756640523965" cy="182.73448194477226" r="3.2" fill="#7c3aed" fill-opacity="0.65" /><circle cx="525.5455115362527" cy="172.97248052867593" r="3.2" fill="#7c3aed" fill-opacity="0.65" /><circle cx="505.59873217393596" cy="158.7220202973802" r="3.2" fill="#7c3aed" fill-opacity="0.65" /><circle cx="506.41227581792754" cy="159.2315317441586" r="3.2" fill="#7c3aed" fill-opacity="0.65" /><circle cx="545.0848066915966" cy="162.37682322397916" r="3.2" fill="#7c3aed" fill-opacity="0.65" /><circle cx="491.82548102425613" cy="149.3951852725985" r="3.2" fill="#7c3aed" fill-opacity="0.65" /><circle cx="476.8995909814254" cy="160.92858154354496" r="3.2" fill="#7c3aed" fill-opacity="0.65" /><circle cx="475.6785631304607" cy="174.1560538116592" r="3.2" fill="#7c3aed" fill-opacity="0.65" /><circle cx="539.3187626859326" cy="184.63275902761387" r="3.2" fill="#7c3aed" fill-opacity="0.65" /><circle cx="730" cy="159.4278026905829" r="3.2" fill="#7c3aed" fill-opacity="0.65" /><circle cx="717.4150069923326" cy="69.64375737550148" r="3.2" fill="#7c3aed" fill-opacity="0.65" /><circle cx="551.1913707163743" cy="30" r="3.2" fill="#7c3aed" fill-opacity="0.65" /><circle cx="535.5189012174112" cy="84.80122728345532" r="3.2" fill="#7c3aed" fill-opacity="0.65" /><circle cx="547.6294458302464" cy="127.90351663913145" r="3.2" fill="#7c3aed" fill-opacity="0.65" /><circle cx="450.44018815731215" cy="135.76129336794895" r="3.2" fill="#7c3aed" fill-opacity="0.65" /><circle cx="399.55452923408757" cy="176.3001652112344" r="3.2" fill="#7c3aed" fill-opacity="0.65" /><circle cx="396.90873142867156" cy="223.5588388010385" r="3.2" fill="#7c3aed" fill-opacity="0.65" /><circle cx="444.3336241325343" cy="243.27217370781216" r="3.2" fill="#7c3aed" fill-opacity="0.65" /><circle cx="413.46313352944014" cy="223.01265046023133" r="3.2" fill="#7c3aed" fill-opacity="0.65" /><circle cx="370.24558650107184" cy="226.3135709228228" r="3.2" fill="#7c3aed" fill-opacity="0.65" /><circle cx="436.1924886128001" cy="248.65376445598298" r="3.2" fill="#7c3aed" fill-opacity="0.65" /><circle cx="251.9896802816222" cy="233.91560066084492" r="3.2" fill="#7c3aed" fill-opacity="0.65" /><circle cx="231.80496433691206" cy="295.96695775312725" r="3.2" fill="#7c3aed" fill-opacity="0.65" /><circle cx="228.24303945078404" cy="347.24026433797496" r="3.2" fill="#7c3aed" fill-opacity="0.65" /><circle cx="142.07865168539325" cy="365.2674533868303" r="3.2" fill="#7c3aed" fill-opacity="0.65" /><circle cx="135.97208766061544" cy="399.00920462591455" r="3.2" fill="#7c3aed" fill-opacity="0.65" /><circle cx="142.75684218371202" cy="418.8801510502714" r="3.2" fill="#7c3aed" fill-opacity="0.65" /><circle cx="149.20250145764925" cy="426.50993627566675" r="3.2" fill="#7c3aed" fill-opacity="0.65" /><circle cx="154.63087498410835" cy="420.5524191645032" r="3.2" fill="#7c3aed" fill-opacity="0.65" /><circle cx="157.34363697738343" cy="415.35223035166393" r="3.2" fill="#7c3aed" fill-opacity="0.65" /><circle cx="132.3090041077214" cy="413.4856738258202" r="3.2" fill="#7c3aed" fill-opacity="0.65" /><circle cx="171.8463703437422" cy="422.46556525843755" r="3.2" fill="#7c3aed" fill-opacity="0.65" /><circle cx="153.44261684209602" cy="411.6647156006608" r="3.2" fill="#7c3aed" fill-opacity="0.65" /><circle cx="159.3796332422942" cy="410.3344347415624" r="3.2" fill="#7c3aed" fill-opacity="0.65" /><circle cx="172.7368515652742" cy="410.01128156714657" r="3.2" fill="#7c3aed" fill-opacity="0.65" /><circle cx="159.3796332422942" cy="399.25107387302336" r="3.2" fill="#7c3aed" fill-opacity="0.65" /><circle cx="140.04408019043694" cy="400.92829832428606" r="3.2" fill="#7c3aed" fill-opacity="0.65" /><circle cx="163.65394310564778" cy="410.34632995043665" r="3.2" fill="#7c3aed" fill-opacity="0.65" /><circle cx="212.80850653421422" cy="404.5246164739202" r="3.2" fill="#7c3aed" fill-opacity="0.65" /><circle cx="146.5567036522334" cy="380.4566438517819" r="3.2" fill="#7c3aed" fill-opacity="0.65" /><circle cx="155.81770835616618" cy="393.73367949020536" r="3.2" fill="#7c3aed" fill-opacity="0.65" /><circle cx="168.87857452862033" cy="405.4276610809535" r="3.2" fill="#7c3aed" fill-opacity="0.65" /><circle cx="139.7890463685902" cy="397.98225159310834" r="3.2" fill="#7c3aed" fill-opacity="0.65" /><circle cx="162.94155812842217" cy="406.8451734717961" r="3.2" fill="#7c3aed" fill-opacity="0.65" /><circle cx="180.75118255906222" cy="402.62832192589093" r="3.2" fill="#7c3aed" fill-opacity="0.65" /><circle cx="158.36234749481602" cy="394.5831956573047" r="3.2" fill="#7c3aed" fill-opacity="0.65" /><circle cx="124.77767012849236" cy="397.49653056407834" r="3.2" fill="#7c3aed" fill-opacity="0.65" /><circle cx="110.69951820856002" cy="417.6936039650696" r="3.2" fill="#7c3aed" fill-opacity="0.65" /><circle cx="130.8842341532702" cy="425.3095114467784" r="3.2" fill="#7c3aed" fill-opacity="0.65" /><circle cx="98.82691017811817" cy="425.9488789237668" r="3.2" fill="#7c3aed" fill-opacity="0.65" /><circle cx="80" cy="434.77512390842577" r="3.2" fill="#7c3aed" fill-opacity="0.65" /><circle cx="107.13759332243202" cy="450" r="3.2" fill="#7c3aed" fill-opacity="0.65" /><circle cx="101.37154931676801" cy="447.09261269766347" r="3.2" fill="#7c3aed" fill-opacity="0.65" /><circle cx="100.60787262118218" cy="442.7508614585792" r="3.2" fill="#7c3aed" fill-opacity="0.65" /><circle cx="104.76392657831634" cy="443.16322869955155" r="3.2" fill="#7c3aed" fill-opacity="0.65" /><circle cx="110.40316605803417" cy="442.0847297616238" r="3.2" fill="#7c3aed" fill-opacity="0.65" /><circle cx="120.91084447211179" cy="437.35539296672175" r="3.2" fill="#7c3aed" fill-opacity="0.65" /><circle cx="148.18521571017112" cy="431.01921170639605" r="3.2" fill="#7c3aed" fill-opacity="0.65" /><circle cx="126.13547589508434" cy="421.0242624498466" r="3.2" fill="#7c3aed" fill-opacity="0.65" /><circle cx="131.90151990074835" cy="422.55973566202505" r="3.2" fill="#7c3aed" fill-opacity="0.65" /><circle cx="95.26498529199017" cy="421.6646211942412" r="3.2" fill="#7c3aed" fill-opacity="0.65" /><circle cx="89.15842126721235" cy="435.15874439461885" r="3.2" fill="#7c3aed" fill-opacity="0.65" /><circle cx="114.60053834384742" cy="445.33707812131223" r="3.2" fill="#7c3aed" fill-opacity="0.65" /><circle cx="174.13597566054528" cy="438.29114939815906" r="3.2" fill="#7c3aed" fill-opacity="0.65" /><circle cx="142.2823937888798" cy="409.45617181968373" r="3.2" fill="#7c3aed" fill-opacity="0.65" /><circle cx="140.85762383442858" cy="408.1417512390843" r="3.2" fill="#7c3aed" fill-opacity="0.65" /><circle cx="133.55567781786618" cy="411.7866414916214" r="3.2" fill="#7c3aed" fill-opacity="0.65" /><circle cx="129.86694840579202" cy="416.06693415152233" r="3.2" fill="#7c3aed" fill-opacity="0.65" /><circle cx="116.63653460875818" cy="419.0258673589804" r="3.2" fill="#7c3aed" fill-opacity="0.65" /><circle cx="132.92023041818095" cy="424.0000472032098" r="3.2" fill="#7c3aed" fill-opacity="0.65" /><circle cx="185.02549242241582" cy="422.9195657304697" r="3.2" fill="#7c3aed" fill-opacity="0.65" /><circle cx="240.5915206460126" cy="399.52466367713004" r="3.2" fill="#7c3aed" fill-opacity="0.65" /><circle cx="232.99322247892437" cy="364.3624262449847" r="3.2" fill="#7c3aed" fill-opacity="0.65" /><circle cx="239.77797700202098" cy="352.7348595704508" r="3.2" fill="#7c3aed" fill-opacity="0.65" /><circle cx="237.74198073711023" cy="345.982345999528" r="3.2" fill="#7c3aed" fill-opacity="0.65" /><circle cx="262.67545494000626" cy="344.51229643615767" r="3.2" fill="#7c3aed" fill-opacity="0.65" /><circle cx="216.37043142034221" cy="334.09506726457397" r="3.2" fill="#7c3aed" fill-opacity="0.65" /><circle cx="255.5516051677502" cy="348.91947132405005" r="3.2" fill="#7c3aed" fill-opacity="0.65" /><circle cx="159.3796332422942" cy="338.1176303988671" r="3.2" fill="#7c3aed" fill-opacity="0.65" /><circle cx="270.9861380843201" cy="375.5746518763276" r="3.2" fill="#7c3aed" fill-opacity="0.65" /><circle cx="271.32523333347945" cy="350.00689166863344" r="3.2" fill="#7c3aed" fill-opacity="0.65" /><circle cx="308.9804784596703" cy="327.8173707812131" r="3.2" fill="#7c3aed" fill-opacity="0.65" /><circle cx="338.9006475031455" cy="309.39367476988434" r="3.2" fill="#7c3aed" fill-opacity="0.65" /><circle cx="378.28556335403994" cy="286.3486901109275" r="3.2" fill="#7c3aed" fill-opacity="0.65" /><circle cx="332.0147343132828" cy="264.23450554637714" r="3.2" fill="#7c3aed" fill-opacity="0.65" /><circle cx="316.1043282319263" cy="270.9473684210526" r="3.2" fill="#7c3aed" fill-opacity="0.65" /><circle cx="436.6156452892721" cy="287.1754071276847" r="3.2" fill="#7c3aed" fill-opacity="0.65" /><circle cx="409.8727132442232" cy="245.08024545669107" r="3.2" fill="#7c3aed" fill-opacity="0.65" /><circle cx="391.88499256927673" cy="229.49553929667215" r="3.2" fill="#7c3aed" fill-opacity="0.65" /><circle cx="427.71083307395213" cy="236.48199197545438" r="3.2" fill="#7c3aed" fill-opacity="0.65" /><circle cx="514.6816406335623" cy="224.41033750295017" r="3.2" fill="#7c3aed" fill-opacity="0.65" /><circle cx="364.19031419465426" cy="182.11493981590752" r="3.2" fill="#7c3aed" fill-opacity="0.65" /><circle cx="413.46313352944014" cy="218.13660608921404" r="3.2" fill="#7c3aed" fill-opacity="0.65" /><circle cx="419.90879280337737" cy="231.10932263393914" r="3.2" fill="#7c3aed" fill-opacity="0.65" /><circle cx="403.62652176390907" cy="225.76044371017232" r="3.2" fill="#7c3aed" fill-opacity="0.65" /><circle cx="468.0802649633725" cy="229.96242624498464" r="3.2" fill="#7c3aed" fill-opacity="0.65" /><circle cx="411.0894667853245" cy="206.93429313193298" r="3.2" fill="#7c3aed" fill-opacity="0.65" /><circle cx="461.8383477929217" cy="219.99027613877746" r="3.2" fill="#7c3aed" fill-opacity="0.65" /><circle cx="422.9620748157663" cy="206.70332782629225" r="3.2" fill="#7c3aed" fill-opacity="0.65" /><circle cx="414.6513916714525" cy="213.18225159310836" r="3.2" fill="#7c3aed" fill-opacity="0.65" /><circle cx="372.0778406624961" cy="225.96860986547085" r="3.2" fill="#7c3aed" fill-opacity="0.65" /><circle cx="395.48396147422034" cy="244.76502242152463" r="3.2" fill="#7c3aed" fill-opacity="0.65" /><circle cx="413.46313352944014" cy="248.8490441350012" r="3.2" fill="#7c3aed" fill-opacity="0.65" /><circle cx="474.0158565936162" cy="237.07972622138305" r="3.2" fill="#7c3aed" fill-opacity="0.65" />
<text x="405" y="512" font-size="12" text-anchor="middle" fill="#475569">Actual tomato price</text>
<text x="18" y="240" font-size="12" fill="#475569" transform="rotate(-90 18 240)">Predicted tomato price</text>
</svg>